G75*
G70*
%OFA0B0*%
%FSLAX24Y24*%
%IPPOS*%
%LPD*%
%AMOC8*
5,1,8,0,0,1.08239X$1,22.5*
%
%ADD10C,0.0000*%
%ADD11C,0.0520*%
%ADD12C,0.0650*%
%ADD13OC8,0.0660*%
%ADD14C,0.0591*%
%ADD15OC8,0.0560*%
%ADD16C,0.0560*%
%ADD17C,0.1890*%
%ADD18OC8,0.0520*%
%ADD19C,0.0760*%
%ADD20R,0.0554X0.0554*%
%ADD21C,0.0554*%
%ADD22C,0.0520*%
%ADD23C,0.0640*%
%ADD24C,0.0600*%
%ADD25C,0.0740*%
%ADD26C,0.0160*%
%ADD27C,0.0240*%
%ADD28C,0.0300*%
%ADD29C,0.0140*%
D10*
X005221Y001300D02*
X005221Y020985D01*
X024906Y020985D01*
X024906Y001300D01*
X005221Y001300D01*
D11*
X011021Y004710D02*
X011021Y005230D01*
X012021Y005230D02*
X012021Y004710D01*
X013021Y004710D02*
X013021Y005230D01*
X014021Y005230D02*
X014021Y004710D01*
X015021Y004710D02*
X015021Y005230D01*
X016021Y005230D02*
X016021Y004710D01*
X017021Y004710D02*
X017021Y005230D01*
X018021Y005230D02*
X018021Y004710D01*
X019021Y004710D02*
X019021Y005230D01*
X020021Y005230D02*
X020021Y004710D01*
X021021Y004710D02*
X021021Y005230D01*
X022021Y005230D02*
X022021Y004710D01*
X023021Y004710D02*
X023021Y005230D01*
X024021Y005230D02*
X024021Y004710D01*
X024021Y007710D02*
X024021Y008230D01*
X023021Y008230D02*
X023021Y007710D01*
X022021Y007710D02*
X022021Y008230D01*
X021021Y008230D02*
X021021Y007710D01*
X020021Y007710D02*
X020021Y008230D01*
X019021Y008230D02*
X019021Y007710D01*
X018021Y007710D02*
X018021Y008230D01*
X017021Y008230D02*
X017021Y007710D01*
X016021Y007710D02*
X016021Y008230D01*
X015021Y008230D02*
X015021Y007710D01*
X014021Y007710D02*
X014021Y008230D01*
X013021Y008230D02*
X013021Y007710D01*
X012021Y007710D02*
X012021Y008230D01*
X011021Y008230D02*
X011021Y007710D01*
X012962Y015886D02*
X012962Y016406D01*
X013962Y016406D02*
X013962Y015886D01*
X014962Y015886D02*
X014962Y016406D01*
D12*
X018626Y019698D03*
X019626Y019698D03*
X016462Y012488D03*
X016462Y011488D03*
X014537Y011473D03*
X014537Y012473D03*
X018531Y010172D03*
X018531Y009172D03*
X023026Y009245D03*
X024026Y009245D03*
X018503Y004066D03*
X017503Y004066D03*
D13*
X010251Y009013D03*
X006251Y009013D03*
X019236Y013415D03*
X019236Y014415D03*
X020681Y014392D03*
X020681Y010392D03*
D14*
X017177Y018144D03*
X017177Y019049D03*
X017177Y019955D03*
D15*
X019122Y018143D03*
X016775Y016662D03*
X006637Y017246D03*
D16*
X006637Y016446D03*
X016775Y015862D03*
X019122Y017343D03*
D17*
X021388Y018001D03*
X022569Y019851D03*
X023711Y018001D03*
D18*
X012091Y017830D03*
X008091Y017830D03*
D19*
X008496Y016451D03*
X011645Y016451D03*
D20*
X008932Y013581D03*
D21*
X008932Y014565D03*
D22*
X014548Y009910D03*
X016448Y009910D03*
D23*
X007255Y007480D03*
X007255Y006480D03*
X006255Y006480D03*
X006255Y007480D03*
X006255Y005480D03*
X007255Y005480D03*
D24*
X007571Y002600D02*
X007571Y002000D01*
X008571Y002000D02*
X008571Y002600D01*
X009571Y002600D02*
X009571Y002000D01*
X010571Y002000D02*
X010571Y002600D01*
X011571Y002600D02*
X011571Y002000D01*
X012571Y002000D02*
X012571Y002600D01*
X013571Y002600D02*
X013571Y002000D01*
X014571Y002000D02*
X014571Y002600D01*
X015571Y002600D02*
X015571Y002000D01*
X016571Y002000D02*
X016571Y002600D01*
X017571Y002600D02*
X017571Y002000D01*
X018571Y002000D02*
X018571Y002600D01*
X019571Y002600D02*
X019571Y002000D01*
X020571Y002000D02*
X020571Y002600D01*
X021571Y002600D02*
X021571Y002000D01*
X022571Y002000D02*
X022571Y002600D01*
X023571Y002600D02*
X023571Y002000D01*
X024506Y002000D02*
X024506Y002600D01*
X023319Y010303D02*
X022719Y010303D01*
X022719Y011303D02*
X023319Y011303D01*
X023319Y012303D02*
X022719Y012303D01*
X022719Y013303D02*
X023319Y013303D01*
X023319Y014303D02*
X022719Y014303D01*
X022719Y015303D02*
X023319Y015303D01*
X011221Y019680D02*
X011221Y020280D01*
X010221Y020280D02*
X010221Y019680D01*
X009221Y019680D02*
X009221Y020280D01*
X008221Y020280D02*
X008221Y019680D01*
X007221Y019680D02*
X007221Y020280D01*
X006221Y020280D02*
X006221Y019680D01*
X006571Y002600D02*
X006571Y002000D01*
X005636Y002000D02*
X005636Y002600D01*
D25*
X006971Y010150D03*
X009531Y010150D03*
X009531Y011930D03*
X006971Y011930D03*
D26*
X007481Y011923D02*
X009021Y011923D01*
X009021Y011829D02*
X009098Y011641D01*
X009242Y011498D01*
X009429Y011420D01*
X009632Y011420D01*
X009820Y011498D01*
X009963Y011641D01*
X009996Y011720D01*
X011078Y011720D01*
X011201Y011843D01*
X011541Y012183D01*
X011541Y012357D01*
X011541Y013793D01*
X012378Y014630D01*
X012811Y014630D01*
X012811Y008576D01*
X012794Y008569D01*
X012682Y008457D01*
X012621Y008310D01*
X012621Y007631D01*
X012679Y007490D01*
X012363Y007490D01*
X012421Y007631D01*
X012421Y008310D01*
X012360Y008457D01*
X012247Y008569D01*
X012100Y008630D01*
X011941Y008630D01*
X011794Y008569D01*
X011682Y008457D01*
X011621Y008310D01*
X011621Y007631D01*
X011679Y007490D01*
X011363Y007490D01*
X011421Y007631D01*
X011421Y008310D01*
X011360Y008457D01*
X011247Y008569D01*
X011100Y008630D01*
X010941Y008630D01*
X010794Y008569D01*
X010682Y008457D01*
X010621Y008310D01*
X010621Y007631D01*
X010679Y007490D01*
X009178Y007490D01*
X009168Y007501D01*
X009072Y007540D01*
X008969Y007540D01*
X008874Y007501D01*
X008800Y007427D01*
X008761Y007332D01*
X008761Y007228D01*
X008773Y007200D01*
X008719Y007200D01*
X008624Y007161D01*
X008550Y007087D01*
X008511Y006992D01*
X008511Y006900D01*
X008469Y006900D01*
X008374Y006861D01*
X008300Y006787D01*
X008261Y006692D01*
X008261Y006610D01*
X008169Y006610D01*
X008074Y006571D01*
X008000Y006497D01*
X007961Y006402D01*
X007961Y006298D01*
X007968Y006280D01*
X007869Y006280D01*
X007774Y006241D01*
X007700Y006167D01*
X007661Y006072D01*
X007661Y005968D01*
X007700Y005873D01*
X007774Y005800D01*
X007869Y005760D01*
X007972Y005760D01*
X008068Y005800D01*
X008078Y005810D01*
X010345Y005810D01*
X010321Y005752D01*
X010321Y005648D01*
X010360Y005553D01*
X010434Y005480D01*
X010529Y005440D01*
X010632Y005440D01*
X010688Y005463D01*
X010682Y005457D01*
X010621Y005310D01*
X010621Y004631D01*
X010671Y004510D01*
X007174Y004510D01*
X006971Y004672D01*
X006971Y005068D01*
X006993Y005052D01*
X007063Y005017D01*
X007138Y004992D01*
X007215Y004980D01*
X007246Y004980D01*
X007246Y005471D01*
X007263Y005471D01*
X007263Y004980D01*
X007294Y004980D01*
X007372Y004992D01*
X007447Y005017D01*
X007517Y005052D01*
X007580Y005099D01*
X007636Y005154D01*
X007682Y005218D01*
X007718Y005288D01*
X007742Y005363D01*
X007755Y005441D01*
X007755Y005471D01*
X007264Y005471D01*
X007264Y005489D01*
X007755Y005489D01*
X007755Y005519D01*
X007742Y005597D01*
X007718Y005672D01*
X007682Y005742D01*
X007636Y005806D01*
X007580Y005861D01*
X007517Y005908D01*
X007447Y005943D01*
X007372Y005968D01*
X007294Y005980D01*
X007263Y005980D01*
X007263Y005489D01*
X007246Y005489D01*
X007246Y005980D01*
X007215Y005980D01*
X007138Y005968D01*
X007063Y005943D01*
X006993Y005908D01*
X006971Y005892D01*
X006971Y005899D01*
X007113Y006041D01*
X007163Y006020D01*
X007346Y006020D01*
X007515Y006090D01*
X007645Y006219D01*
X007715Y006388D01*
X007715Y006571D01*
X007645Y006740D01*
X007515Y006870D01*
X007346Y006940D01*
X007163Y006940D01*
X006994Y006870D01*
X006865Y006740D01*
X006795Y006571D01*
X006795Y006388D01*
X006816Y006338D01*
X006551Y006073D01*
X006551Y005899D01*
X006551Y005834D01*
X006515Y005870D01*
X006346Y005940D01*
X006163Y005940D01*
X005994Y005870D01*
X005865Y005740D01*
X005841Y005682D01*
X005841Y005733D01*
X006138Y006030D01*
X006163Y006020D01*
X006346Y006020D01*
X006515Y006090D01*
X006645Y006219D01*
X006715Y006388D01*
X006715Y006571D01*
X006645Y006740D01*
X006515Y006870D01*
X006346Y006940D01*
X006163Y006940D01*
X005994Y006870D01*
X005865Y006740D01*
X005795Y006571D01*
X005795Y006388D01*
X005826Y006312D01*
X005421Y005907D01*
X005421Y005733D01*
X005421Y004363D01*
X005544Y004240D01*
X006174Y003610D01*
X006348Y003610D01*
X009964Y003610D01*
X009961Y003602D01*
X009961Y003560D01*
X009929Y003560D01*
X009834Y003521D01*
X009760Y003447D01*
X009721Y003352D01*
X009721Y003260D01*
X009478Y003260D01*
X009468Y003271D01*
X009372Y003310D01*
X009269Y003310D01*
X009174Y003271D01*
X009100Y003197D01*
X009061Y003102D01*
X009061Y002998D01*
X009100Y002903D01*
X009174Y002830D01*
X009187Y002824D01*
X009131Y002688D01*
X009131Y001913D01*
X009198Y001751D01*
X009322Y001627D01*
X009483Y001560D01*
X009658Y001560D01*
X009820Y001627D01*
X009944Y001751D01*
X010011Y001913D01*
X010011Y002688D01*
X009948Y002840D01*
X010194Y002840D01*
X010131Y002688D01*
X010131Y001913D01*
X010198Y001751D01*
X010322Y001627D01*
X010483Y001560D01*
X010658Y001560D01*
X010820Y001627D01*
X010944Y001751D01*
X011011Y001913D01*
X011011Y002688D01*
X010948Y002840D01*
X011194Y002840D01*
X011131Y002688D01*
X011131Y001913D01*
X011198Y001751D01*
X011322Y001627D01*
X011483Y001560D01*
X011658Y001560D01*
X011820Y001627D01*
X011944Y001751D01*
X012011Y001913D01*
X012011Y002688D01*
X011948Y002840D01*
X012194Y002840D01*
X012131Y002688D01*
X012131Y001913D01*
X012198Y001751D01*
X012322Y001627D01*
X012483Y001560D01*
X012658Y001560D01*
X012820Y001627D01*
X012944Y001751D01*
X013011Y001913D01*
X013011Y002533D01*
X013131Y002421D01*
X013131Y001913D01*
X013198Y001751D01*
X013322Y001627D01*
X013483Y001560D01*
X013658Y001560D01*
X013820Y001627D01*
X013944Y001751D01*
X014011Y001913D01*
X014011Y002688D01*
X013944Y002849D01*
X013820Y002973D01*
X013658Y003040D01*
X013483Y003040D01*
X013322Y002973D01*
X013240Y002892D01*
X012907Y003201D01*
X012848Y003260D01*
X012843Y003260D01*
X012840Y003263D01*
X012757Y003260D01*
X012378Y003260D01*
X012411Y003338D01*
X012411Y003442D01*
X012371Y003537D01*
X012298Y003610D01*
X013958Y003610D01*
X014081Y003733D01*
X014756Y004409D01*
X014794Y004371D01*
X014941Y004310D01*
X015100Y004310D01*
X015247Y004371D01*
X015360Y004484D01*
X015421Y004631D01*
X015421Y005310D01*
X015360Y005457D01*
X015247Y005569D01*
X015100Y005630D01*
X014941Y005630D01*
X014794Y005569D01*
X014682Y005457D01*
X014621Y005310D01*
X014621Y004867D01*
X014421Y004667D01*
X014421Y005310D01*
X014360Y005457D01*
X014247Y005569D01*
X014219Y005581D01*
X014221Y005583D01*
X014261Y005678D01*
X014261Y005782D01*
X014249Y005810D01*
X022074Y005810D01*
X022248Y005810D01*
X023058Y006620D01*
X023072Y006620D01*
X023168Y006660D01*
X023241Y006733D01*
X023281Y006828D01*
X023281Y006932D01*
X023241Y007027D01*
X023168Y007101D01*
X023072Y007140D01*
X022969Y007140D01*
X022874Y007101D01*
X022800Y007027D01*
X022761Y006932D01*
X022761Y006917D01*
X022074Y006230D01*
X021601Y006230D01*
X022048Y006640D01*
X022072Y006640D01*
X022168Y006680D01*
X022241Y006753D01*
X022281Y006848D01*
X022281Y006952D01*
X022241Y007047D01*
X022168Y007121D01*
X022072Y007160D01*
X021969Y007160D01*
X021874Y007121D01*
X021800Y007047D01*
X021761Y006952D01*
X021761Y006947D01*
X021339Y006560D01*
X020968Y006560D01*
X021048Y006640D01*
X021062Y006640D01*
X021158Y006680D01*
X021231Y006753D01*
X021271Y006848D01*
X021271Y006952D01*
X021231Y007047D01*
X021158Y007121D01*
X021062Y007160D01*
X020959Y007160D01*
X020864Y007121D01*
X020790Y007047D01*
X020751Y006952D01*
X020751Y006937D01*
X020664Y006850D01*
X020271Y006850D01*
X020291Y006898D01*
X020291Y007002D01*
X020251Y007097D01*
X020178Y007171D01*
X020082Y007210D01*
X019979Y007210D01*
X019884Y007171D01*
X019873Y007160D01*
X019277Y007160D01*
X019281Y007168D01*
X019281Y007272D01*
X019241Y007367D01*
X019240Y007368D01*
X019247Y007371D01*
X019360Y007484D01*
X019421Y007631D01*
X019421Y008310D01*
X019360Y008457D01*
X019247Y008569D01*
X019100Y008630D01*
X019008Y008630D01*
X019178Y008800D01*
X019301Y008923D01*
X019301Y009638D01*
X019328Y009650D01*
X019401Y009723D01*
X019441Y009818D01*
X019441Y009922D01*
X019401Y010017D01*
X019328Y010091D01*
X019232Y010130D01*
X019129Y010130D01*
X019034Y010091D01*
X019029Y010086D01*
X019036Y010132D01*
X019036Y010172D01*
X018532Y010172D01*
X018532Y010172D01*
X019036Y010172D01*
X019036Y010212D01*
X019024Y010290D01*
X018999Y010366D01*
X018963Y010437D01*
X018917Y010501D01*
X018860Y010557D01*
X018796Y010604D01*
X018725Y010640D01*
X018650Y010665D01*
X018571Y010677D01*
X018532Y010677D01*
X018532Y010173D01*
X018531Y010173D01*
X018531Y010677D01*
X018492Y010677D01*
X018413Y010665D01*
X018338Y010640D01*
X018267Y010604D01*
X018202Y010557D01*
X018146Y010501D01*
X018100Y010437D01*
X018071Y010380D01*
X018071Y013900D01*
X012921Y013900D01*
X012921Y014630D01*
X018178Y014630D01*
X018301Y014753D01*
X019598Y016050D01*
X023643Y016050D01*
X023654Y016040D01*
X023749Y016000D01*
X023852Y016000D01*
X023948Y016040D01*
X024021Y016113D01*
X024061Y016208D01*
X024061Y016312D01*
X024021Y016407D01*
X023948Y016481D01*
X023852Y016520D01*
X023749Y016520D01*
X023654Y016481D01*
X023643Y016470D01*
X019598Y016470D01*
X019424Y016470D01*
X018181Y015228D01*
X018211Y015298D01*
X018211Y015402D01*
X018171Y015497D01*
X018161Y015508D01*
X018161Y016923D01*
X018161Y017097D01*
X017801Y017457D01*
X017801Y017472D01*
X017761Y017567D01*
X017688Y017641D01*
X017592Y017680D01*
X017489Y017680D01*
X017394Y017641D01*
X017320Y017567D01*
X017281Y017472D01*
X017281Y017368D01*
X017320Y017273D01*
X017394Y017200D01*
X017489Y017160D01*
X017504Y017160D01*
X017741Y016923D01*
X017741Y015508D01*
X017730Y015497D01*
X017691Y015402D01*
X017691Y015298D01*
X017730Y015203D01*
X017804Y015130D01*
X017899Y015090D01*
X018002Y015090D01*
X018073Y015119D01*
X018004Y015050D01*
X016374Y015050D01*
X016765Y015442D01*
X016859Y015442D01*
X017013Y015506D01*
X017131Y015624D01*
X017195Y015778D01*
X017195Y015945D01*
X017131Y016099D01*
X017013Y016218D01*
X016991Y016227D01*
X017235Y016471D01*
X017235Y016661D01*
X016775Y016661D01*
X016775Y016662D01*
X016775Y016662D01*
X016775Y017122D01*
X016965Y017122D01*
X017235Y016852D01*
X017235Y016662D01*
X016775Y016662D01*
X016775Y017122D01*
X016584Y017122D01*
X016315Y016852D01*
X016315Y016662D01*
X016775Y016662D01*
X016775Y016661D01*
X016315Y016661D01*
X016315Y016471D01*
X016559Y016227D01*
X016537Y016218D01*
X016419Y016099D01*
X016355Y015945D01*
X016355Y015852D01*
X016033Y015530D01*
X015147Y015530D01*
X015188Y015547D01*
X015301Y015660D01*
X015362Y015807D01*
X015362Y016486D01*
X015301Y016633D01*
X015188Y016745D01*
X015041Y016806D01*
X014882Y016806D01*
X014877Y016804D01*
X014455Y017226D01*
X014348Y017270D01*
X014233Y017270D01*
X013060Y017270D01*
X012921Y017410D01*
X012921Y018570D01*
X015521Y018570D01*
X016111Y017980D01*
X016193Y017898D01*
X016299Y017854D01*
X016851Y017854D01*
X016930Y017775D01*
X017090Y017709D01*
X017263Y017709D01*
X017423Y017775D01*
X017502Y017854D01*
X017762Y017854D01*
X017869Y017898D01*
X017950Y017980D01*
X018287Y018316D01*
X018331Y018422D01*
X018331Y018538D01*
X018331Y018850D01*
X018626Y019145D01*
X018865Y018906D01*
X018946Y018824D01*
X019053Y018780D01*
X020198Y018780D01*
X020443Y018535D01*
X020377Y018420D01*
X020303Y018144D01*
X020303Y017858D01*
X020377Y017582D01*
X020520Y017335D01*
X020722Y017133D01*
X020969Y016990D01*
X021245Y016916D01*
X021531Y016916D01*
X021806Y016990D01*
X022054Y017133D01*
X022256Y017335D01*
X022399Y017582D01*
X022473Y017858D01*
X022473Y018144D01*
X022399Y018420D01*
X022256Y018667D01*
X022089Y018834D01*
X022138Y018810D01*
X022257Y018769D01*
X022380Y018741D01*
X022489Y018728D01*
X022489Y019771D01*
X022649Y019771D01*
X022649Y019931D01*
X023692Y019931D01*
X023680Y020040D01*
X023651Y020163D01*
X023610Y020282D01*
X023555Y020396D01*
X023488Y020503D01*
X023409Y020602D01*
X023320Y020691D01*
X023221Y020770D01*
X023165Y020805D01*
X024726Y020805D01*
X024726Y018485D01*
X024697Y018546D01*
X024629Y018653D01*
X024551Y018752D01*
X024461Y018841D01*
X024362Y018920D01*
X024256Y018987D01*
X024142Y019042D01*
X024022Y019083D01*
X023899Y019112D01*
X023790Y019124D01*
X023790Y018081D01*
X023631Y018081D01*
X023631Y019124D01*
X023522Y019112D01*
X023399Y019083D01*
X023388Y019080D01*
X023409Y019101D01*
X023488Y019199D01*
X023555Y019306D01*
X023610Y019420D01*
X023651Y019539D01*
X023680Y019663D01*
X023692Y019771D01*
X022649Y019771D01*
X022649Y018728D01*
X022758Y018741D01*
X022881Y018769D01*
X022891Y018772D01*
X022870Y018752D01*
X022792Y018653D01*
X022724Y018546D01*
X022670Y018432D01*
X022628Y018313D01*
X022600Y018190D01*
X022588Y018081D01*
X023630Y018081D01*
X023630Y017921D01*
X022588Y017921D01*
X022600Y017812D01*
X022628Y017689D01*
X022670Y017570D01*
X022724Y017456D01*
X022792Y017349D01*
X022870Y017250D01*
X022960Y017161D01*
X023059Y017082D01*
X023166Y017015D01*
X023279Y016960D01*
X023399Y016918D01*
X023522Y016890D01*
X023631Y016878D01*
X023631Y017921D01*
X023790Y017921D01*
X023790Y016878D01*
X023899Y016890D01*
X024022Y016918D01*
X024142Y016960D01*
X024256Y017015D01*
X024362Y017082D01*
X024461Y017161D01*
X024551Y017250D01*
X024629Y017349D01*
X024697Y017456D01*
X024726Y017517D01*
X024726Y002985D01*
X024721Y002987D01*
X024721Y003187D01*
X024598Y003310D01*
X024231Y003677D01*
X024231Y004364D01*
X024247Y004371D01*
X024360Y004484D01*
X024421Y004631D01*
X024421Y005310D01*
X024360Y005457D01*
X024247Y005569D01*
X024100Y005630D01*
X023941Y005630D01*
X023794Y005569D01*
X023682Y005457D01*
X023621Y005310D01*
X023621Y004631D01*
X023682Y004484D01*
X023794Y004371D01*
X023811Y004364D01*
X023811Y003677D01*
X023811Y003503D01*
X024301Y003013D01*
X024301Y002991D01*
X024257Y002973D01*
X024133Y002849D01*
X024066Y002688D01*
X024066Y001913D01*
X024133Y001751D01*
X024257Y001627D01*
X024418Y001560D01*
X024593Y001560D01*
X024726Y001615D01*
X024726Y001480D01*
X005401Y001480D01*
X005401Y001621D01*
X005548Y001560D01*
X005723Y001560D01*
X005885Y001627D01*
X006009Y001751D01*
X006076Y001913D01*
X006076Y002688D01*
X006009Y002849D01*
X005885Y002973D01*
X005723Y003040D01*
X005548Y003040D01*
X005401Y002979D01*
X005401Y020805D01*
X012811Y020805D01*
X012811Y019150D01*
X008711Y019150D01*
X008512Y019349D01*
X008594Y019431D01*
X008661Y019593D01*
X008661Y020368D01*
X008594Y020529D01*
X008470Y020653D01*
X008308Y020720D01*
X008133Y020720D01*
X007972Y020653D01*
X007848Y020529D01*
X007781Y020368D01*
X007781Y019593D01*
X007848Y019431D01*
X007931Y019348D01*
X007931Y019288D01*
X007931Y019172D01*
X007975Y019066D01*
X008345Y018696D01*
X008426Y018614D01*
X008533Y018570D01*
X012811Y018570D01*
X012811Y017520D01*
X012491Y017840D01*
X012491Y017995D01*
X012256Y018230D01*
X011925Y018230D01*
X011815Y018120D01*
X009817Y018120D01*
X009710Y018076D01*
X009629Y017994D01*
X008604Y016969D01*
X008599Y016971D01*
X008392Y016971D01*
X008201Y016892D01*
X008055Y016745D01*
X007976Y016554D01*
X007976Y016347D01*
X008055Y016156D01*
X008201Y016010D01*
X008392Y015931D01*
X008599Y015931D01*
X008790Y016010D01*
X008936Y016156D01*
X009016Y016347D01*
X009016Y016554D01*
X009014Y016559D01*
X009995Y017540D01*
X011815Y017540D01*
X011925Y017430D01*
X012081Y017430D01*
X012694Y016816D01*
X012729Y016781D01*
X012675Y016742D01*
X012626Y016693D01*
X012585Y016637D01*
X012554Y016575D01*
X012532Y016509D01*
X012522Y016441D01*
X012522Y016146D01*
X012522Y015851D01*
X012532Y015783D01*
X012554Y015717D01*
X012585Y015656D01*
X012626Y015599D01*
X012675Y015551D01*
X012731Y015510D01*
X012793Y015478D01*
X012811Y015473D01*
X012811Y015050D01*
X012378Y015050D01*
X012204Y015050D01*
X011244Y014090D01*
X011121Y013967D01*
X011121Y012357D01*
X010904Y012140D01*
X009996Y012140D01*
X009963Y012219D01*
X009820Y012362D01*
X009632Y012440D01*
X009429Y012440D01*
X009242Y012362D01*
X009098Y012219D01*
X009021Y012032D01*
X009021Y011829D01*
X009048Y011764D02*
X007454Y011764D01*
X007481Y011829D02*
X007403Y011641D01*
X007260Y011498D01*
X007072Y011420D01*
X006869Y011420D01*
X006682Y011498D01*
X006538Y011641D01*
X006461Y011829D01*
X006461Y012032D01*
X006538Y012219D01*
X006682Y012362D01*
X006869Y012440D01*
X007072Y012440D01*
X007260Y012362D01*
X007403Y012219D01*
X007481Y012032D01*
X007481Y011829D01*
X007367Y011605D02*
X009134Y011605D01*
X009365Y011447D02*
X007137Y011447D01*
X006805Y011447D02*
X005401Y011447D01*
X005401Y011605D02*
X006574Y011605D01*
X006488Y011764D02*
X005401Y011764D01*
X005401Y011923D02*
X006461Y011923D01*
X006481Y012081D02*
X005401Y012081D01*
X005401Y012240D02*
X006559Y012240D01*
X006768Y012398D02*
X005401Y012398D01*
X005401Y012557D02*
X011121Y012557D01*
X011121Y012715D02*
X005401Y012715D01*
X005401Y012874D02*
X011121Y012874D01*
X011121Y013032D02*
X005401Y013032D01*
X005401Y013191D02*
X008513Y013191D01*
X008511Y013193D02*
X008545Y013160D01*
X008586Y013136D01*
X008631Y013124D01*
X008924Y013124D01*
X008924Y013572D01*
X008941Y013572D01*
X008941Y013124D01*
X009233Y013124D01*
X009279Y013136D01*
X009320Y013160D01*
X009353Y013193D01*
X009377Y013234D01*
X009389Y013280D01*
X009389Y013572D01*
X008941Y013572D01*
X008941Y013590D01*
X008924Y013590D01*
X008924Y014038D01*
X008631Y014038D01*
X008586Y014026D01*
X008545Y014002D01*
X008511Y013969D01*
X008487Y013928D01*
X008475Y013882D01*
X008475Y013590D01*
X008923Y013590D01*
X008923Y013572D01*
X008475Y013572D01*
X008475Y013280D01*
X008487Y013234D01*
X008511Y013193D01*
X008475Y013349D02*
X005401Y013349D01*
X005401Y013508D02*
X008475Y013508D01*
X008475Y013667D02*
X005401Y013667D01*
X005401Y013825D02*
X008475Y013825D01*
X008526Y013984D02*
X005401Y013984D01*
X005401Y014142D02*
X011296Y014142D01*
X011137Y013984D02*
X009338Y013984D01*
X009353Y013969D02*
X009320Y014002D01*
X009279Y014026D01*
X009233Y014038D01*
X008941Y014038D01*
X008941Y013590D01*
X009389Y013590D01*
X009389Y013882D01*
X009377Y013928D01*
X009353Y013969D01*
X009389Y013825D02*
X011121Y013825D01*
X011121Y013667D02*
X009389Y013667D01*
X009389Y013508D02*
X011121Y013508D01*
X011121Y013349D02*
X009389Y013349D01*
X009351Y013191D02*
X011121Y013191D01*
X011541Y013191D02*
X012811Y013191D01*
X012811Y013349D02*
X011541Y013349D01*
X011541Y013508D02*
X012811Y013508D01*
X012811Y013667D02*
X011541Y013667D01*
X011573Y013825D02*
X012811Y013825D01*
X012811Y013984D02*
X011731Y013984D01*
X011890Y014142D02*
X012811Y014142D01*
X012921Y014142D02*
X018844Y014142D01*
X018766Y014221D02*
X019041Y013945D01*
X019431Y013945D01*
X019691Y014205D01*
X020211Y014205D01*
X020211Y014197D01*
X020487Y013922D01*
X020876Y013922D01*
X021151Y014197D01*
X021151Y014586D01*
X020876Y014862D01*
X020487Y014862D01*
X020250Y014625D01*
X019691Y014625D01*
X019431Y014885D01*
X019041Y014885D01*
X018766Y014610D01*
X018766Y014221D01*
X018766Y014301D02*
X012921Y014301D01*
X012811Y014301D02*
X012048Y014301D01*
X012207Y014459D02*
X012811Y014459D01*
X012921Y014459D02*
X018766Y014459D01*
X018774Y014618D02*
X012921Y014618D01*
X012811Y014618D02*
X012365Y014618D01*
X012089Y014935D02*
X009130Y014935D01*
X009169Y014919D02*
X009015Y014982D01*
X008849Y014982D01*
X008696Y014919D01*
X008579Y014801D01*
X008515Y014648D01*
X008515Y014482D01*
X008579Y014329D01*
X008696Y014212D01*
X008849Y014148D01*
X009015Y014148D01*
X009169Y014212D01*
X009286Y014329D01*
X009349Y014482D01*
X009349Y014648D01*
X009286Y014801D01*
X009169Y014919D01*
X009296Y014776D02*
X011930Y014776D01*
X011771Y014618D02*
X009349Y014618D01*
X009340Y014459D02*
X011613Y014459D01*
X011454Y014301D02*
X009258Y014301D01*
X008941Y013984D02*
X008924Y013984D01*
X008924Y013825D02*
X008941Y013825D01*
X008924Y013667D02*
X008941Y013667D01*
X008924Y013508D02*
X008941Y013508D01*
X008924Y013349D02*
X008941Y013349D01*
X008924Y013191D02*
X008941Y013191D01*
X009328Y012398D02*
X007173Y012398D01*
X007382Y012240D02*
X009119Y012240D01*
X009041Y012081D02*
X007460Y012081D01*
X007072Y010660D02*
X006869Y010660D01*
X006682Y010582D01*
X006538Y010439D01*
X006461Y010252D01*
X006461Y010049D01*
X006538Y009861D01*
X006682Y009718D01*
X006869Y009640D01*
X007072Y009640D01*
X007260Y009718D01*
X007403Y009861D01*
X007481Y010049D01*
X007481Y010252D01*
X007403Y010439D01*
X007260Y010582D01*
X007072Y010660D01*
X007087Y010654D02*
X009309Y010654D01*
X009320Y010660D02*
X009243Y010621D01*
X009172Y010570D01*
X009111Y010508D01*
X009060Y010438D01*
X009021Y010361D01*
X008994Y010279D01*
X008981Y010193D01*
X008981Y010170D01*
X009511Y010170D01*
X009511Y010130D01*
X009551Y010130D01*
X009551Y010170D01*
X010081Y010170D01*
X010081Y010193D01*
X010067Y010279D01*
X010040Y010361D01*
X010001Y010438D01*
X009950Y010508D01*
X009889Y010570D01*
X009819Y010621D01*
X009742Y010660D01*
X009660Y010687D01*
X009574Y010700D01*
X009551Y010700D01*
X009551Y010170D01*
X009511Y010170D01*
X009511Y010700D01*
X009487Y010700D01*
X009402Y010687D01*
X009320Y010660D01*
X009511Y010654D02*
X009551Y010654D01*
X009551Y010496D02*
X009511Y010496D01*
X009511Y010337D02*
X009551Y010337D01*
X009551Y010179D02*
X009511Y010179D01*
X009511Y010130D02*
X008981Y010130D01*
X008981Y010107D01*
X008994Y010021D01*
X009021Y009939D01*
X009060Y009862D01*
X009111Y009792D01*
X009172Y009731D01*
X009243Y009680D01*
X009320Y009640D01*
X009402Y009614D01*
X009487Y009600D01*
X009511Y009600D01*
X009511Y010130D01*
X009551Y010130D02*
X009551Y009600D01*
X009574Y009600D01*
X009660Y009614D01*
X009742Y009640D01*
X009819Y009680D01*
X009889Y009731D01*
X009950Y009792D01*
X010001Y009862D01*
X010040Y009939D01*
X010067Y010021D01*
X010081Y010107D01*
X010081Y010130D01*
X009551Y010130D01*
X009551Y010020D02*
X009511Y010020D01*
X009511Y009861D02*
X009551Y009861D01*
X009551Y009703D02*
X009511Y009703D01*
X009211Y009703D02*
X007224Y009703D01*
X007403Y009861D02*
X009061Y009861D01*
X008995Y010020D02*
X007469Y010020D01*
X007481Y010179D02*
X008981Y010179D01*
X009013Y010337D02*
X007445Y010337D01*
X007346Y010496D02*
X009102Y010496D01*
X009753Y010654D02*
X012811Y010654D01*
X012811Y010496D02*
X009960Y010496D01*
X010048Y010337D02*
X012811Y010337D01*
X012811Y010179D02*
X010081Y010179D01*
X010067Y010020D02*
X012811Y010020D01*
X012811Y009861D02*
X010001Y009861D01*
X009851Y009703D02*
X012811Y009703D01*
X012811Y009544D02*
X005401Y009544D01*
X005401Y009386D02*
X005959Y009386D01*
X006056Y009483D02*
X005781Y009207D01*
X005781Y008818D01*
X006056Y008543D01*
X006446Y008543D01*
X006721Y008818D01*
X006721Y009207D01*
X006446Y009483D01*
X006056Y009483D01*
X005801Y009227D02*
X005401Y009227D01*
X005401Y009069D02*
X005781Y009069D01*
X005781Y008910D02*
X005401Y008910D01*
X005401Y008752D02*
X005847Y008752D01*
X006006Y008593D02*
X005401Y008593D01*
X005401Y008435D02*
X010673Y008435D01*
X010621Y008276D02*
X005401Y008276D01*
X005401Y008118D02*
X010621Y008118D01*
X010621Y007959D02*
X005401Y007959D01*
X005401Y007800D02*
X005925Y007800D01*
X005865Y007740D02*
X005795Y007571D01*
X005795Y007388D01*
X005865Y007219D01*
X005994Y007090D01*
X006163Y007020D01*
X006346Y007020D01*
X006515Y007090D01*
X006645Y007219D01*
X006715Y007388D01*
X006715Y007571D01*
X006645Y007740D01*
X006515Y007870D01*
X006346Y007940D01*
X006163Y007940D01*
X005994Y007870D01*
X005865Y007740D01*
X005824Y007642D02*
X005401Y007642D01*
X005401Y007483D02*
X005795Y007483D01*
X005821Y007325D02*
X005401Y007325D01*
X005401Y007166D02*
X005918Y007166D01*
X005973Y006849D02*
X005401Y006849D01*
X005401Y006691D02*
X005844Y006691D01*
X005795Y006532D02*
X005401Y006532D01*
X005401Y006374D02*
X005801Y006374D01*
X005729Y006215D02*
X005401Y006215D01*
X005401Y006056D02*
X005570Y006056D01*
X005421Y005898D02*
X005401Y005898D01*
X005401Y005739D02*
X005421Y005739D01*
X005421Y005581D02*
X005401Y005581D01*
X005401Y005422D02*
X005421Y005422D01*
X005421Y005264D02*
X005401Y005264D01*
X005401Y005105D02*
X005421Y005105D01*
X005421Y004947D02*
X005401Y004947D01*
X005401Y004788D02*
X005421Y004788D01*
X005421Y004630D02*
X005401Y004630D01*
X005401Y004471D02*
X005421Y004471D01*
X005401Y004312D02*
X005471Y004312D01*
X005401Y004154D02*
X005630Y004154D01*
X005789Y003995D02*
X005401Y003995D01*
X005401Y003837D02*
X005947Y003837D01*
X006106Y003678D02*
X005401Y003678D01*
X005401Y003520D02*
X009833Y003520D01*
X009725Y003361D02*
X005401Y003361D01*
X005401Y003203D02*
X009106Y003203D01*
X009061Y003044D02*
X005401Y003044D01*
X005973Y002886D02*
X006234Y002886D01*
X006198Y002849D02*
X006131Y002688D01*
X006131Y001913D01*
X006198Y001751D01*
X006322Y001627D01*
X006483Y001560D01*
X006658Y001560D01*
X006820Y001627D01*
X006944Y001751D01*
X007011Y001913D01*
X007011Y002688D01*
X006944Y002849D01*
X006820Y002973D01*
X006658Y003040D01*
X006483Y003040D01*
X006322Y002973D01*
X006198Y002849D01*
X006147Y002727D02*
X006059Y002727D01*
X006076Y002569D02*
X006131Y002569D01*
X006131Y002410D02*
X006076Y002410D01*
X006076Y002251D02*
X006131Y002251D01*
X006131Y002093D02*
X006076Y002093D01*
X006076Y001934D02*
X006131Y001934D01*
X006187Y001776D02*
X006019Y001776D01*
X005861Y001617D02*
X006345Y001617D01*
X006796Y001617D02*
X007345Y001617D01*
X007322Y001627D02*
X007483Y001560D01*
X007658Y001560D01*
X007820Y001627D01*
X007944Y001751D01*
X008011Y001913D01*
X008011Y002688D01*
X007944Y002849D01*
X007820Y002973D01*
X007658Y003040D01*
X007483Y003040D01*
X007322Y002973D01*
X007198Y002849D01*
X007131Y002688D01*
X007131Y001913D01*
X007198Y001751D01*
X007322Y001627D01*
X007187Y001776D02*
X006954Y001776D01*
X007011Y001934D02*
X007131Y001934D01*
X007131Y002093D02*
X007011Y002093D01*
X007011Y002251D02*
X007131Y002251D01*
X007131Y002410D02*
X007011Y002410D01*
X007011Y002569D02*
X007131Y002569D01*
X007147Y002727D02*
X006994Y002727D01*
X006908Y002886D02*
X007234Y002886D01*
X007908Y002886D02*
X008234Y002886D01*
X008198Y002849D02*
X008322Y002973D01*
X008483Y003040D01*
X008658Y003040D01*
X008820Y002973D01*
X008944Y002849D01*
X009011Y002688D01*
X009011Y001913D01*
X008944Y001751D01*
X008820Y001627D01*
X008658Y001560D01*
X008483Y001560D01*
X008322Y001627D01*
X008198Y001751D01*
X008131Y001913D01*
X008131Y002688D01*
X008198Y002849D01*
X008147Y002727D02*
X007994Y002727D01*
X008011Y002569D02*
X008131Y002569D01*
X008131Y002410D02*
X008011Y002410D01*
X008011Y002251D02*
X008131Y002251D01*
X008131Y002093D02*
X008011Y002093D01*
X008011Y001934D02*
X008131Y001934D01*
X008187Y001776D02*
X007954Y001776D01*
X007796Y001617D02*
X008345Y001617D01*
X008796Y001617D02*
X009345Y001617D01*
X009187Y001776D02*
X008954Y001776D01*
X009011Y001934D02*
X009131Y001934D01*
X009131Y002093D02*
X009011Y002093D01*
X009011Y002251D02*
X009131Y002251D01*
X009131Y002410D02*
X009011Y002410D01*
X009011Y002569D02*
X009131Y002569D01*
X009147Y002727D02*
X008994Y002727D01*
X008908Y002886D02*
X009118Y002886D01*
X009994Y002727D02*
X010147Y002727D01*
X010131Y002569D02*
X010011Y002569D01*
X010011Y002410D02*
X010131Y002410D01*
X010131Y002251D02*
X010011Y002251D01*
X010011Y002093D02*
X010131Y002093D01*
X010131Y001934D02*
X010011Y001934D01*
X009954Y001776D02*
X010187Y001776D01*
X010345Y001617D02*
X009796Y001617D01*
X010796Y001617D02*
X011345Y001617D01*
X011187Y001776D02*
X010954Y001776D01*
X011011Y001934D02*
X011131Y001934D01*
X011131Y002093D02*
X011011Y002093D01*
X011011Y002251D02*
X011131Y002251D01*
X011131Y002410D02*
X011011Y002410D01*
X011011Y002569D02*
X011131Y002569D01*
X011147Y002727D02*
X010994Y002727D01*
X011994Y002727D02*
X012147Y002727D01*
X012131Y002569D02*
X012011Y002569D01*
X012011Y002410D02*
X012131Y002410D01*
X012131Y002251D02*
X012011Y002251D01*
X012011Y002093D02*
X012131Y002093D01*
X012131Y001934D02*
X012011Y001934D01*
X011954Y001776D02*
X012187Y001776D01*
X012345Y001617D02*
X011796Y001617D01*
X012796Y001617D02*
X013345Y001617D01*
X013187Y001776D02*
X012954Y001776D01*
X013011Y001934D02*
X013131Y001934D01*
X013131Y002093D02*
X013011Y002093D01*
X013011Y002251D02*
X013131Y002251D01*
X013131Y002410D02*
X013011Y002410D01*
X013076Y003044D02*
X019351Y003044D01*
X019351Y002985D02*
X019322Y002973D01*
X019198Y002849D01*
X019131Y002688D01*
X019131Y001913D01*
X019198Y001751D01*
X019322Y001627D01*
X019483Y001560D01*
X019658Y001560D01*
X019820Y001627D01*
X019944Y001751D01*
X020011Y001913D01*
X020011Y002688D01*
X019944Y002849D01*
X019820Y002973D01*
X019771Y002994D01*
X019771Y003357D01*
X019648Y003480D01*
X019231Y003897D01*
X019231Y004364D01*
X019247Y004371D01*
X019360Y004484D01*
X019421Y004631D01*
X019421Y005310D01*
X019360Y005457D01*
X019247Y005569D01*
X019100Y005630D01*
X018941Y005630D01*
X018794Y005569D01*
X018682Y005457D01*
X018621Y005310D01*
X018621Y004631D01*
X018655Y004547D01*
X018621Y004558D01*
X018543Y004571D01*
X018503Y004571D01*
X018503Y004066D01*
X018503Y004066D01*
X018503Y004571D01*
X018463Y004571D01*
X018437Y004566D01*
X018450Y004607D01*
X018461Y004676D01*
X018461Y004970D01*
X018021Y004970D01*
X018021Y004970D01*
X018021Y004270D01*
X018040Y004270D01*
X018035Y004260D01*
X018010Y004184D01*
X017998Y004105D01*
X017998Y004066D01*
X018502Y004066D01*
X018502Y004066D01*
X017998Y004066D01*
X017998Y004026D01*
X018010Y003947D01*
X018035Y003872D01*
X018071Y003801D01*
X018118Y003737D01*
X018174Y003681D01*
X018238Y003634D01*
X018309Y003598D01*
X018385Y003573D01*
X018463Y003561D01*
X018503Y003561D01*
X018543Y003561D01*
X018621Y003573D01*
X018697Y003598D01*
X018768Y003634D01*
X018832Y003681D01*
X018843Y003691D01*
X019351Y003183D01*
X019351Y002985D01*
X019234Y002886D02*
X018908Y002886D01*
X018944Y002849D02*
X018820Y002973D01*
X018658Y003040D01*
X018483Y003040D01*
X018322Y002973D01*
X018198Y002849D01*
X018131Y002688D01*
X018131Y001913D01*
X018198Y001751D01*
X018322Y001627D01*
X018483Y001560D01*
X018658Y001560D01*
X018820Y001627D01*
X018944Y001751D01*
X019011Y001913D01*
X019011Y002688D01*
X018944Y002849D01*
X018994Y002727D02*
X019147Y002727D01*
X019131Y002569D02*
X019011Y002569D01*
X019011Y002410D02*
X019131Y002410D01*
X019131Y002251D02*
X019011Y002251D01*
X019011Y002093D02*
X019131Y002093D01*
X019131Y001934D02*
X019011Y001934D01*
X018954Y001776D02*
X019187Y001776D01*
X019345Y001617D02*
X018796Y001617D01*
X018345Y001617D02*
X017796Y001617D01*
X017820Y001627D02*
X017944Y001751D01*
X018011Y001913D01*
X018011Y002688D01*
X017944Y002849D01*
X017820Y002973D01*
X017658Y003040D01*
X017483Y003040D01*
X017322Y002973D01*
X017198Y002849D01*
X017131Y002688D01*
X017131Y001913D01*
X017198Y001751D01*
X017322Y001627D01*
X017483Y001560D01*
X017658Y001560D01*
X017820Y001627D01*
X017954Y001776D02*
X018187Y001776D01*
X018131Y001934D02*
X018011Y001934D01*
X018011Y002093D02*
X018131Y002093D01*
X018131Y002251D02*
X018011Y002251D01*
X018011Y002410D02*
X018131Y002410D01*
X018131Y002569D02*
X018011Y002569D01*
X017994Y002727D02*
X018147Y002727D01*
X018234Y002886D02*
X017908Y002886D01*
X017234Y002886D02*
X016908Y002886D01*
X016944Y002849D02*
X016820Y002973D01*
X016658Y003040D01*
X016483Y003040D01*
X016322Y002973D01*
X016198Y002849D01*
X016131Y002688D01*
X016131Y001913D01*
X016198Y001751D01*
X016322Y001627D01*
X016483Y001560D01*
X016658Y001560D01*
X016820Y001627D01*
X016944Y001751D01*
X017011Y001913D01*
X017011Y002688D01*
X016944Y002849D01*
X016994Y002727D02*
X017147Y002727D01*
X017131Y002569D02*
X017011Y002569D01*
X017011Y002410D02*
X017131Y002410D01*
X017131Y002251D02*
X017011Y002251D01*
X017011Y002093D02*
X017131Y002093D01*
X017131Y001934D02*
X017011Y001934D01*
X016954Y001776D02*
X017187Y001776D01*
X017345Y001617D02*
X016796Y001617D01*
X016345Y001617D02*
X015796Y001617D01*
X015820Y001627D02*
X015944Y001751D01*
X016011Y001913D01*
X016011Y002688D01*
X015944Y002849D01*
X015820Y002973D01*
X015658Y003040D01*
X015483Y003040D01*
X015322Y002973D01*
X015198Y002849D01*
X015131Y002688D01*
X015131Y001913D01*
X015198Y001751D01*
X015322Y001627D01*
X015483Y001560D01*
X015658Y001560D01*
X015820Y001627D01*
X015954Y001776D02*
X016187Y001776D01*
X016131Y001934D02*
X016011Y001934D01*
X016011Y002093D02*
X016131Y002093D01*
X016131Y002251D02*
X016011Y002251D01*
X016011Y002410D02*
X016131Y002410D01*
X016131Y002569D02*
X016011Y002569D01*
X015994Y002727D02*
X016147Y002727D01*
X016234Y002886D02*
X015908Y002886D01*
X015234Y002886D02*
X014908Y002886D01*
X014944Y002849D02*
X014820Y002973D01*
X014658Y003040D01*
X014483Y003040D01*
X014322Y002973D01*
X014198Y002849D01*
X014131Y002688D01*
X014131Y001913D01*
X014198Y001751D01*
X014322Y001627D01*
X014483Y001560D01*
X014658Y001560D01*
X014820Y001627D01*
X014944Y001751D01*
X015011Y001913D01*
X015011Y002688D01*
X014944Y002849D01*
X014994Y002727D02*
X015147Y002727D01*
X015131Y002569D02*
X015011Y002569D01*
X015011Y002410D02*
X015131Y002410D01*
X015131Y002251D02*
X015011Y002251D01*
X015011Y002093D02*
X015131Y002093D01*
X015131Y001934D02*
X015011Y001934D01*
X014954Y001776D02*
X015187Y001776D01*
X015345Y001617D02*
X014796Y001617D01*
X014345Y001617D02*
X013796Y001617D01*
X013954Y001776D02*
X014187Y001776D01*
X014131Y001934D02*
X014011Y001934D01*
X014011Y002093D02*
X014131Y002093D01*
X014131Y002251D02*
X014011Y002251D01*
X014011Y002410D02*
X014131Y002410D01*
X014131Y002569D02*
X014011Y002569D01*
X013994Y002727D02*
X014147Y002727D01*
X014234Y002886D02*
X013908Y002886D01*
X014026Y003678D02*
X017233Y003678D01*
X017239Y003672D02*
X017410Y003601D01*
X017595Y003601D01*
X017766Y003672D01*
X017897Y003802D01*
X017968Y003973D01*
X017968Y004158D01*
X017917Y004281D01*
X017918Y004281D01*
X017986Y004270D01*
X018021Y004270D01*
X018021Y004970D01*
X018021Y004970D01*
X018461Y004970D01*
X018461Y005265D01*
X018450Y005333D01*
X018429Y005399D01*
X018397Y005461D01*
X018356Y005517D01*
X018307Y005566D01*
X018251Y005606D01*
X018190Y005638D01*
X018124Y005659D01*
X018055Y005670D01*
X018021Y005670D01*
X018021Y004971D01*
X018021Y004971D01*
X018021Y005670D01*
X017986Y005670D01*
X017918Y005659D01*
X017852Y005638D01*
X017790Y005606D01*
X017734Y005566D01*
X017685Y005517D01*
X017644Y005461D01*
X017613Y005399D01*
X017592Y005333D01*
X017581Y005265D01*
X017581Y004970D01*
X017581Y004676D01*
X017592Y004607D01*
X017613Y004541D01*
X017625Y004519D01*
X017595Y004531D01*
X017410Y004531D01*
X017373Y004515D01*
X017421Y004631D01*
X017421Y005310D01*
X017360Y005457D01*
X017247Y005569D01*
X017100Y005630D01*
X016941Y005630D01*
X016794Y005569D01*
X016682Y005457D01*
X016621Y005310D01*
X016621Y004631D01*
X016682Y004484D01*
X016794Y004371D01*
X016941Y004310D01*
X017100Y004310D01*
X017101Y004310D01*
X017038Y004158D01*
X017038Y003973D01*
X017109Y003802D01*
X017239Y003672D01*
X017094Y003837D02*
X014184Y003837D01*
X014081Y003733D02*
X014081Y003733D01*
X014343Y003995D02*
X017038Y003995D01*
X017038Y004154D02*
X014501Y004154D01*
X014660Y004312D02*
X014936Y004312D01*
X015106Y004312D02*
X015936Y004312D01*
X015941Y004310D02*
X016100Y004310D01*
X016247Y004371D01*
X016360Y004484D01*
X016421Y004631D01*
X016421Y005310D01*
X016360Y005457D01*
X016247Y005569D01*
X016100Y005630D01*
X015941Y005630D01*
X015794Y005569D01*
X015682Y005457D01*
X015621Y005310D01*
X015621Y004631D01*
X015682Y004484D01*
X015794Y004371D01*
X015941Y004310D01*
X016106Y004312D02*
X016936Y004312D01*
X016694Y004471D02*
X016347Y004471D01*
X016420Y004630D02*
X016621Y004630D01*
X016621Y004788D02*
X016421Y004788D01*
X016421Y004947D02*
X016621Y004947D01*
X016621Y005105D02*
X016421Y005105D01*
X016421Y005264D02*
X016621Y005264D01*
X016667Y005422D02*
X016374Y005422D01*
X016219Y005581D02*
X016822Y005581D01*
X017219Y005581D02*
X017755Y005581D01*
X017625Y005422D02*
X017374Y005422D01*
X017421Y005264D02*
X017581Y005264D01*
X017581Y005105D02*
X017421Y005105D01*
X017421Y004947D02*
X017581Y004947D01*
X017581Y004970D02*
X018020Y004970D01*
X018020Y004970D01*
X017581Y004970D01*
X017581Y004788D02*
X017421Y004788D01*
X017420Y004630D02*
X017588Y004630D01*
X018021Y004630D02*
X018021Y004630D01*
X018021Y004788D02*
X018021Y004788D01*
X018021Y004947D02*
X018021Y004947D01*
X018021Y005105D02*
X018021Y005105D01*
X018021Y005264D02*
X018021Y005264D01*
X018021Y005422D02*
X018021Y005422D01*
X018021Y005581D02*
X018021Y005581D01*
X018287Y005581D02*
X018822Y005581D01*
X018667Y005422D02*
X018417Y005422D01*
X018461Y005264D02*
X018621Y005264D01*
X018621Y005105D02*
X018461Y005105D01*
X018461Y004947D02*
X018621Y004947D01*
X018621Y004788D02*
X018461Y004788D01*
X018453Y004630D02*
X018621Y004630D01*
X018503Y004471D02*
X018503Y004471D01*
X018503Y004312D02*
X018503Y004312D01*
X018503Y004154D02*
X018503Y004154D01*
X018503Y004065D02*
X018503Y003561D01*
X018503Y004065D01*
X018503Y004065D01*
X018503Y003995D02*
X018503Y003995D01*
X018503Y003837D02*
X018503Y003837D01*
X018503Y003678D02*
X018503Y003678D01*
X018829Y003678D02*
X018856Y003678D01*
X019014Y003520D02*
X012379Y003520D01*
X012411Y003361D02*
X019173Y003361D01*
X019331Y003203D02*
X012905Y003203D01*
X014421Y004788D02*
X014542Y004788D01*
X014621Y004947D02*
X014421Y004947D01*
X014421Y005105D02*
X014621Y005105D01*
X014621Y005264D02*
X014421Y005264D01*
X014374Y005422D02*
X014667Y005422D01*
X014822Y005581D02*
X014219Y005581D01*
X014261Y005739D02*
X024726Y005739D01*
X024726Y005581D02*
X024219Y005581D01*
X024374Y005422D02*
X024726Y005422D01*
X024726Y005264D02*
X024421Y005264D01*
X024421Y005105D02*
X024726Y005105D01*
X024726Y004947D02*
X024421Y004947D01*
X024421Y004788D02*
X024726Y004788D01*
X024726Y004630D02*
X024420Y004630D01*
X024347Y004471D02*
X024726Y004471D01*
X024726Y004312D02*
X024231Y004312D01*
X024231Y004154D02*
X024726Y004154D01*
X024726Y003995D02*
X024231Y003995D01*
X024231Y003837D02*
X024726Y003837D01*
X024726Y003678D02*
X024231Y003678D01*
X024388Y003520D02*
X024726Y003520D01*
X024726Y003361D02*
X024547Y003361D01*
X024705Y003203D02*
X024726Y003203D01*
X024721Y003044D02*
X024726Y003044D01*
X024270Y003044D02*
X023781Y003044D01*
X023781Y002989D02*
X023781Y003357D01*
X023658Y003480D01*
X023231Y003907D01*
X023231Y004364D01*
X023247Y004371D01*
X023360Y004484D01*
X023421Y004631D01*
X023421Y005310D01*
X023360Y005457D01*
X023247Y005569D01*
X023100Y005630D01*
X022941Y005630D01*
X022794Y005569D01*
X022682Y005457D01*
X022621Y005310D01*
X022621Y004631D01*
X022682Y004484D01*
X022794Y004371D01*
X022811Y004364D01*
X022811Y003907D01*
X022811Y003733D01*
X023361Y003183D01*
X023361Y002989D01*
X023322Y002973D01*
X023198Y002849D01*
X023131Y002688D01*
X023131Y001913D01*
X023198Y001751D01*
X023322Y001627D01*
X023483Y001560D01*
X023658Y001560D01*
X023820Y001627D01*
X023944Y001751D01*
X024011Y001913D01*
X024011Y002688D01*
X023944Y002849D01*
X023820Y002973D01*
X023781Y002989D01*
X023908Y002886D02*
X024169Y002886D01*
X024082Y002727D02*
X023994Y002727D01*
X024011Y002569D02*
X024066Y002569D01*
X024066Y002410D02*
X024011Y002410D01*
X024011Y002251D02*
X024066Y002251D01*
X024066Y002093D02*
X024011Y002093D01*
X024011Y001934D02*
X024066Y001934D01*
X024122Y001776D02*
X023954Y001776D01*
X023796Y001617D02*
X024280Y001617D01*
X023345Y001617D02*
X022796Y001617D01*
X022820Y001627D02*
X022944Y001751D01*
X023011Y001913D01*
X023011Y002688D01*
X022944Y002849D01*
X022820Y002973D01*
X022771Y002994D01*
X022771Y003447D01*
X022648Y003570D01*
X022231Y003987D01*
X022231Y004364D01*
X022247Y004371D01*
X022360Y004484D01*
X022421Y004631D01*
X022421Y005310D01*
X022360Y005457D01*
X022247Y005569D01*
X022100Y005630D01*
X021941Y005630D01*
X021794Y005569D01*
X021682Y005457D01*
X021621Y005310D01*
X021621Y004631D01*
X021682Y004484D01*
X021794Y004371D01*
X021811Y004364D01*
X021811Y003987D01*
X021811Y003813D01*
X022351Y003273D01*
X022351Y002985D01*
X022322Y002973D01*
X022198Y002849D01*
X022131Y002688D01*
X022131Y001913D01*
X022198Y001751D01*
X022322Y001627D01*
X022483Y001560D01*
X022658Y001560D01*
X022820Y001627D01*
X022954Y001776D02*
X023187Y001776D01*
X023131Y001934D02*
X023011Y001934D01*
X023011Y002093D02*
X023131Y002093D01*
X023131Y002251D02*
X023011Y002251D01*
X023011Y002410D02*
X023131Y002410D01*
X023131Y002569D02*
X023011Y002569D01*
X022994Y002727D02*
X023147Y002727D01*
X023234Y002886D02*
X022908Y002886D01*
X022771Y003044D02*
X023361Y003044D01*
X023341Y003203D02*
X022771Y003203D01*
X022771Y003361D02*
X023183Y003361D01*
X023024Y003520D02*
X022698Y003520D01*
X022540Y003678D02*
X022866Y003678D01*
X022811Y003837D02*
X022381Y003837D01*
X022231Y003995D02*
X022811Y003995D01*
X022811Y004154D02*
X022231Y004154D01*
X022231Y004312D02*
X022811Y004312D01*
X022694Y004471D02*
X022347Y004471D01*
X022420Y004630D02*
X022621Y004630D01*
X022621Y004788D02*
X022421Y004788D01*
X022421Y004947D02*
X022621Y004947D01*
X022621Y005105D02*
X022421Y005105D01*
X022421Y005264D02*
X022621Y005264D01*
X022667Y005422D02*
X022374Y005422D01*
X022219Y005581D02*
X022822Y005581D01*
X023219Y005581D02*
X023822Y005581D01*
X023667Y005422D02*
X023374Y005422D01*
X023421Y005264D02*
X023621Y005264D01*
X023621Y005105D02*
X023421Y005105D01*
X023421Y004947D02*
X023621Y004947D01*
X023621Y004788D02*
X023421Y004788D01*
X023420Y004630D02*
X023621Y004630D01*
X023694Y004471D02*
X023347Y004471D01*
X023231Y004312D02*
X023811Y004312D01*
X023811Y004154D02*
X023231Y004154D01*
X023231Y003995D02*
X023811Y003995D01*
X023811Y003837D02*
X023301Y003837D01*
X023460Y003678D02*
X023811Y003678D01*
X023811Y003520D02*
X023618Y003520D01*
X023777Y003361D02*
X023953Y003361D01*
X024111Y003203D02*
X023781Y003203D01*
X022351Y003203D02*
X021791Y003203D01*
X021791Y003207D02*
X021668Y003330D01*
X021231Y003767D01*
X021231Y004364D01*
X021247Y004371D01*
X021360Y004484D01*
X021421Y004631D01*
X021421Y005310D01*
X021360Y005457D01*
X021247Y005569D01*
X021100Y005630D01*
X020941Y005630D01*
X020794Y005569D01*
X020682Y005457D01*
X020621Y005310D01*
X020621Y004631D01*
X020682Y004484D01*
X020794Y004371D01*
X020811Y004364D01*
X020811Y003767D01*
X020811Y003593D01*
X021371Y003033D01*
X021371Y002994D01*
X021322Y002973D01*
X021198Y002849D01*
X021131Y002688D01*
X021131Y001913D01*
X021198Y001751D01*
X021322Y001627D01*
X021483Y001560D01*
X021658Y001560D01*
X021820Y001627D01*
X021944Y001751D01*
X022011Y001913D01*
X022011Y002688D01*
X021944Y002849D01*
X021820Y002973D01*
X021791Y002985D01*
X021791Y003207D01*
X021791Y003044D02*
X022351Y003044D01*
X022234Y002886D02*
X021908Y002886D01*
X021994Y002727D02*
X022147Y002727D01*
X022131Y002569D02*
X022011Y002569D01*
X022011Y002410D02*
X022131Y002410D01*
X022131Y002251D02*
X022011Y002251D01*
X022011Y002093D02*
X022131Y002093D01*
X022131Y001934D02*
X022011Y001934D01*
X021954Y001776D02*
X022187Y001776D01*
X022345Y001617D02*
X021796Y001617D01*
X021345Y001617D02*
X020796Y001617D01*
X020820Y001627D02*
X020944Y001751D01*
X021011Y001913D01*
X021011Y002688D01*
X020944Y002849D01*
X020820Y002973D01*
X020781Y002989D01*
X020781Y003337D01*
X020658Y003460D01*
X020231Y003887D01*
X020231Y004364D01*
X020247Y004371D01*
X020360Y004484D01*
X020421Y004631D01*
X020421Y005310D01*
X020360Y005457D01*
X020247Y005569D01*
X020100Y005630D01*
X019941Y005630D01*
X019794Y005569D01*
X019682Y005457D01*
X019621Y005310D01*
X019621Y004631D01*
X019682Y004484D01*
X019794Y004371D01*
X019811Y004364D01*
X019811Y003887D01*
X019811Y003713D01*
X020361Y003163D01*
X020361Y002989D01*
X020322Y002973D01*
X020198Y002849D01*
X020131Y002688D01*
X020131Y001913D01*
X020198Y001751D01*
X020322Y001627D01*
X020483Y001560D01*
X020658Y001560D01*
X020820Y001627D01*
X020954Y001776D02*
X021187Y001776D01*
X021131Y001934D02*
X021011Y001934D01*
X021011Y002093D02*
X021131Y002093D01*
X021131Y002251D02*
X021011Y002251D01*
X021011Y002410D02*
X021131Y002410D01*
X021131Y002569D02*
X021011Y002569D01*
X020994Y002727D02*
X021147Y002727D01*
X021234Y002886D02*
X020908Y002886D01*
X020781Y003044D02*
X021360Y003044D01*
X021201Y003203D02*
X020781Y003203D01*
X020757Y003361D02*
X021043Y003361D01*
X020884Y003520D02*
X020598Y003520D01*
X020440Y003678D02*
X020811Y003678D01*
X020811Y003837D02*
X020281Y003837D01*
X020231Y003995D02*
X020811Y003995D01*
X020811Y004154D02*
X020231Y004154D01*
X020231Y004312D02*
X020811Y004312D01*
X020694Y004471D02*
X020347Y004471D01*
X020420Y004630D02*
X020621Y004630D01*
X020621Y004788D02*
X020421Y004788D01*
X020421Y004947D02*
X020621Y004947D01*
X020621Y005105D02*
X020421Y005105D01*
X020421Y005264D02*
X020621Y005264D01*
X020667Y005422D02*
X020374Y005422D01*
X020219Y005581D02*
X020822Y005581D01*
X021219Y005581D02*
X021822Y005581D01*
X021667Y005422D02*
X021374Y005422D01*
X021421Y005264D02*
X021621Y005264D01*
X021621Y005105D02*
X021421Y005105D01*
X021421Y004947D02*
X021621Y004947D01*
X021621Y004788D02*
X021421Y004788D01*
X021420Y004630D02*
X021621Y004630D01*
X021694Y004471D02*
X021347Y004471D01*
X021231Y004312D02*
X021811Y004312D01*
X021811Y004154D02*
X021231Y004154D01*
X021231Y003995D02*
X021811Y003995D01*
X021811Y003837D02*
X021231Y003837D01*
X021320Y003678D02*
X021946Y003678D01*
X022104Y003520D02*
X021478Y003520D01*
X021637Y003361D02*
X022263Y003361D01*
X020361Y003044D02*
X019771Y003044D01*
X019771Y003203D02*
X020321Y003203D01*
X020163Y003361D02*
X019767Y003361D01*
X019608Y003520D02*
X020004Y003520D01*
X019846Y003678D02*
X019450Y003678D01*
X019291Y003837D02*
X019811Y003837D01*
X019811Y003995D02*
X019231Y003995D01*
X019231Y004154D02*
X019811Y004154D01*
X019811Y004312D02*
X019231Y004312D01*
X019347Y004471D02*
X019694Y004471D01*
X019621Y004630D02*
X019420Y004630D01*
X019421Y004788D02*
X019621Y004788D01*
X019621Y004947D02*
X019421Y004947D01*
X019421Y005105D02*
X019621Y005105D01*
X019621Y005264D02*
X019421Y005264D01*
X019374Y005422D02*
X019667Y005422D01*
X019822Y005581D02*
X019219Y005581D01*
X018021Y004471D02*
X018021Y004471D01*
X018021Y004312D02*
X018021Y004312D01*
X018006Y004154D02*
X017968Y004154D01*
X017968Y003995D02*
X018003Y003995D01*
X018053Y003837D02*
X017911Y003837D01*
X017773Y003678D02*
X018177Y003678D01*
X019908Y002886D02*
X020234Y002886D01*
X020147Y002727D02*
X019994Y002727D01*
X020011Y002569D02*
X020131Y002569D01*
X020131Y002410D02*
X020011Y002410D01*
X020011Y002251D02*
X020131Y002251D01*
X020131Y002093D02*
X020011Y002093D01*
X020011Y001934D02*
X020131Y001934D01*
X020187Y001776D02*
X019954Y001776D01*
X019796Y001617D02*
X020345Y001617D01*
X015694Y004471D02*
X015347Y004471D01*
X015420Y004630D02*
X015621Y004630D01*
X015621Y004788D02*
X015421Y004788D01*
X015421Y004947D02*
X015621Y004947D01*
X015621Y005105D02*
X015421Y005105D01*
X015421Y005264D02*
X015621Y005264D01*
X015667Y005422D02*
X015374Y005422D01*
X015219Y005581D02*
X015822Y005581D01*
X015679Y007490D02*
X015363Y007490D01*
X015421Y007631D01*
X015421Y008240D01*
X015621Y008240D01*
X015621Y007631D01*
X015679Y007490D01*
X015621Y007642D02*
X015421Y007642D01*
X015421Y007800D02*
X015621Y007800D01*
X015621Y007959D02*
X015421Y007959D01*
X015421Y008118D02*
X015621Y008118D01*
X016421Y008118D02*
X016581Y008118D01*
X016581Y008240D02*
X016581Y007970D01*
X016581Y007676D01*
X016592Y007607D01*
X016613Y007541D01*
X016639Y007490D01*
X016363Y007490D01*
X016421Y007631D01*
X016421Y008240D01*
X016581Y008240D01*
X016581Y007970D02*
X017020Y007970D01*
X016581Y007970D01*
X016581Y007959D02*
X016421Y007959D01*
X016421Y007800D02*
X016581Y007800D01*
X016586Y007642D02*
X016421Y007642D01*
X017020Y007970D02*
X017020Y007970D01*
X017021Y007970D02*
X017021Y007970D01*
X017461Y007970D01*
X017461Y007676D01*
X017450Y007607D01*
X017429Y007541D01*
X017402Y007490D01*
X017679Y007490D01*
X017621Y007631D01*
X017621Y008240D01*
X017461Y008240D01*
X017461Y007970D01*
X017021Y007970D01*
X017461Y007959D02*
X017621Y007959D01*
X017621Y008118D02*
X017461Y008118D01*
X017461Y007800D02*
X017621Y007800D01*
X017621Y007642D02*
X017455Y007642D01*
X019129Y008752D02*
X021811Y008752D01*
X021811Y008910D02*
X019288Y008910D01*
X019301Y009069D02*
X021811Y009069D01*
X021811Y009227D02*
X019301Y009227D01*
X019301Y009386D02*
X021811Y009386D01*
X021811Y009544D02*
X019301Y009544D01*
X019381Y009703D02*
X021811Y009703D01*
X021811Y009861D02*
X019441Y009861D01*
X019399Y010020D02*
X020389Y010020D01*
X020487Y009922D02*
X020211Y010197D01*
X020211Y010586D01*
X020487Y010862D01*
X020876Y010862D01*
X021151Y010586D01*
X021151Y010197D01*
X020876Y009922D01*
X020487Y009922D01*
X020230Y010179D02*
X019036Y010179D01*
X019009Y010337D02*
X020211Y010337D01*
X020211Y010496D02*
X018921Y010496D01*
X018682Y010654D02*
X020279Y010654D01*
X020438Y010813D02*
X018071Y010813D01*
X018071Y010971D02*
X021811Y010971D01*
X021811Y011037D02*
X021811Y008576D01*
X021794Y008569D01*
X021682Y008457D01*
X021621Y008310D01*
X021621Y007631D01*
X021682Y007484D01*
X021794Y007371D01*
X021941Y007310D01*
X022100Y007310D01*
X022247Y007371D01*
X022360Y007484D01*
X022421Y007631D01*
X022421Y008310D01*
X022360Y008457D01*
X022247Y008569D01*
X022231Y008576D01*
X022231Y010863D01*
X022383Y011016D01*
X022469Y010930D01*
X022631Y010863D01*
X023406Y010863D01*
X023568Y010930D01*
X023692Y011054D01*
X023759Y011215D01*
X023759Y011390D01*
X023692Y011552D01*
X023568Y011676D01*
X023406Y011743D01*
X022631Y011743D01*
X022469Y011676D01*
X022346Y011552D01*
X022332Y011520D01*
X022294Y011520D01*
X022171Y011397D01*
X021934Y011160D01*
X021934Y011160D01*
X021811Y011037D01*
X021904Y011130D02*
X018071Y011130D01*
X018071Y011288D02*
X022062Y011288D01*
X022171Y011397D02*
X022171Y011397D01*
X022221Y011447D02*
X018071Y011447D01*
X018071Y011605D02*
X022399Y011605D01*
X022487Y011923D02*
X018071Y011923D01*
X018071Y012081D02*
X022334Y012081D01*
X022346Y012054D02*
X022469Y011930D01*
X022631Y011863D01*
X023406Y011863D01*
X023568Y011930D01*
X023692Y012054D01*
X023759Y012215D01*
X023759Y012390D01*
X023692Y012552D01*
X023568Y012676D01*
X023406Y012743D01*
X022631Y012743D01*
X022469Y012676D01*
X022346Y012552D01*
X022279Y012390D01*
X022279Y012215D01*
X022346Y012054D01*
X022279Y012240D02*
X018071Y012240D01*
X018071Y012398D02*
X022282Y012398D01*
X022350Y012557D02*
X018071Y012557D01*
X018071Y012715D02*
X022565Y012715D01*
X022631Y012863D02*
X022469Y012930D01*
X022346Y013054D01*
X022279Y013215D01*
X022279Y013390D01*
X022346Y013552D01*
X022469Y013676D01*
X022631Y013743D01*
X023406Y013743D01*
X023568Y013676D01*
X023692Y013552D01*
X023759Y013390D01*
X023759Y013215D01*
X023692Y013054D01*
X023568Y012930D01*
X023406Y012863D01*
X022631Y012863D01*
X022605Y012874D02*
X018071Y012874D01*
X018071Y013032D02*
X018898Y013032D01*
X019025Y012905D02*
X018726Y013204D01*
X018726Y013415D01*
X019236Y013415D01*
X019236Y012905D01*
X019447Y012905D01*
X019746Y013204D01*
X019746Y013415D01*
X019236Y013415D01*
X019236Y013415D01*
X019236Y012905D01*
X019025Y012905D01*
X019236Y013032D02*
X019236Y013032D01*
X019236Y013191D02*
X019236Y013191D01*
X019236Y013349D02*
X019236Y013349D01*
X019236Y013415D02*
X019236Y013416D01*
X019236Y013416D01*
X019236Y013925D01*
X019447Y013925D01*
X019746Y013627D01*
X019746Y013416D01*
X019236Y013416D01*
X019236Y013925D01*
X019025Y013925D01*
X018726Y013627D01*
X018726Y013416D01*
X019236Y013416D01*
X019236Y013415D01*
X019236Y013508D02*
X019236Y013508D01*
X019236Y013667D02*
X019236Y013667D01*
X019236Y013825D02*
X019236Y013825D01*
X019469Y013984D02*
X020425Y013984D01*
X020266Y014142D02*
X019627Y014142D01*
X019547Y013825D02*
X024726Y013825D01*
X024726Y013667D02*
X023577Y013667D01*
X023710Y013508D02*
X024726Y013508D01*
X024726Y013349D02*
X023759Y013349D01*
X023749Y013191D02*
X024726Y013191D01*
X024726Y013032D02*
X023670Y013032D01*
X023433Y012874D02*
X024726Y012874D01*
X024726Y012715D02*
X023473Y012715D01*
X023687Y012557D02*
X024726Y012557D01*
X024726Y012398D02*
X023755Y012398D01*
X023759Y012240D02*
X024726Y012240D01*
X024726Y012081D02*
X023703Y012081D01*
X023550Y011923D02*
X024726Y011923D01*
X024726Y011764D02*
X018071Y011764D01*
X017511Y011764D02*
X016843Y011764D01*
X016856Y011751D02*
X016725Y011882D01*
X016555Y011953D01*
X016370Y011953D01*
X016199Y011882D01*
X016068Y011751D01*
X015997Y011580D01*
X015997Y011395D01*
X016068Y011224D01*
X016199Y011093D01*
X016370Y011023D01*
X016555Y011023D01*
X016725Y011093D01*
X016856Y011224D01*
X016927Y011395D01*
X016927Y011580D01*
X016856Y011751D01*
X016917Y011605D02*
X017511Y011605D01*
X017511Y011447D02*
X016927Y011447D01*
X016883Y011288D02*
X017511Y011288D01*
X017511Y011130D02*
X016762Y011130D01*
X016162Y011130D02*
X014852Y011130D01*
X014801Y011079D02*
X014932Y011210D01*
X015002Y011381D01*
X015002Y011566D01*
X014932Y011737D01*
X014801Y011867D01*
X014630Y011938D01*
X014445Y011938D01*
X014274Y011867D01*
X014143Y011737D01*
X014072Y011566D01*
X014072Y011381D01*
X014143Y011210D01*
X014274Y011079D01*
X014445Y011008D01*
X014630Y011008D01*
X014801Y011079D01*
X014964Y011288D02*
X016041Y011288D01*
X015997Y011447D02*
X015002Y011447D01*
X014986Y011605D02*
X016008Y011605D01*
X016081Y011764D02*
X014904Y011764D01*
X014668Y011923D02*
X016297Y011923D01*
X016344Y011995D02*
X016422Y011983D01*
X016462Y011983D01*
X016502Y011983D01*
X016580Y011995D01*
X016656Y012020D01*
X016727Y012056D01*
X016791Y012102D01*
X016847Y012159D01*
X016894Y012223D01*
X016930Y012294D01*
X016955Y012369D01*
X016967Y012448D01*
X016967Y012487D01*
X016462Y012487D01*
X016462Y011983D01*
X016462Y012487D01*
X016462Y012487D01*
X015957Y012487D01*
X015957Y012448D01*
X015969Y012369D01*
X015994Y012294D01*
X016030Y012223D01*
X016077Y012159D01*
X016133Y012102D01*
X016197Y012056D01*
X016268Y012020D01*
X016344Y011995D01*
X016462Y012081D02*
X016462Y012081D01*
X016462Y012240D02*
X016462Y012240D01*
X016462Y012398D02*
X016462Y012398D01*
X016462Y012487D02*
X016462Y012488D01*
X016462Y012993D01*
X016422Y012993D01*
X016344Y012980D01*
X016268Y012956D01*
X016197Y012920D01*
X016133Y012873D01*
X016077Y012817D01*
X016030Y012752D01*
X015994Y012681D01*
X015969Y012606D01*
X015957Y012527D01*
X015957Y012488D01*
X016462Y012488D01*
X016462Y012488D01*
X016462Y012993D01*
X016502Y012993D01*
X016580Y012980D01*
X016656Y012956D01*
X016727Y012920D01*
X016791Y012873D01*
X016847Y012817D01*
X016894Y012752D01*
X016930Y012681D01*
X016955Y012606D01*
X016967Y012527D01*
X016967Y012488D01*
X016462Y012488D01*
X016462Y012487D01*
X016462Y012557D02*
X016462Y012557D01*
X016462Y012715D02*
X016462Y012715D01*
X016462Y012874D02*
X016462Y012874D01*
X016134Y012874D02*
X014845Y012874D01*
X014866Y012858D02*
X014802Y012905D01*
X014731Y012941D01*
X014656Y012966D01*
X014577Y012978D01*
X014538Y012978D01*
X014538Y012474D01*
X014537Y012474D01*
X014537Y012978D01*
X014498Y012978D01*
X014419Y012966D01*
X014344Y012941D01*
X014273Y012905D01*
X014208Y012858D01*
X014152Y012802D01*
X014105Y012738D01*
X014069Y012667D01*
X014045Y012592D01*
X014032Y012513D01*
X014032Y012473D01*
X014032Y012434D01*
X014045Y012355D01*
X014069Y012279D01*
X014105Y012209D01*
X014152Y012144D01*
X014208Y012088D01*
X014273Y012041D01*
X014344Y012005D01*
X014419Y011981D01*
X014498Y011968D01*
X014537Y011968D01*
X014537Y012473D01*
X014032Y012473D01*
X014537Y012473D01*
X014537Y012473D01*
X014538Y012473D01*
X014538Y012473D01*
X015042Y012473D01*
X015042Y012434D01*
X015030Y012355D01*
X015005Y012279D01*
X014969Y012209D01*
X014923Y012144D01*
X014866Y012088D01*
X014802Y012041D01*
X014731Y012005D01*
X014656Y011981D01*
X014577Y011968D01*
X014538Y011968D01*
X014538Y012473D01*
X015042Y012473D01*
X015042Y012513D01*
X015030Y012592D01*
X015005Y012667D01*
X014969Y012738D01*
X014923Y012802D01*
X014866Y012858D01*
X014981Y012715D02*
X016011Y012715D01*
X015962Y012557D02*
X015035Y012557D01*
X015037Y012398D02*
X015965Y012398D01*
X016022Y012240D02*
X014985Y012240D01*
X014857Y012081D02*
X016162Y012081D01*
X016627Y011923D02*
X017511Y011923D01*
X017511Y012081D02*
X016762Y012081D01*
X016902Y012240D02*
X017511Y012240D01*
X017511Y012398D02*
X016959Y012398D01*
X016962Y012557D02*
X017511Y012557D01*
X017511Y012715D02*
X016913Y012715D01*
X016790Y012874D02*
X017511Y012874D01*
X017511Y013032D02*
X013391Y013032D01*
X013391Y012874D02*
X014230Y012874D01*
X014094Y012715D02*
X013391Y012715D01*
X013391Y012557D02*
X014039Y012557D01*
X014038Y012398D02*
X013391Y012398D01*
X013391Y012240D02*
X014090Y012240D01*
X014218Y012081D02*
X013391Y012081D01*
X013391Y011923D02*
X014407Y011923D01*
X014537Y012081D02*
X014538Y012081D01*
X014537Y012240D02*
X014538Y012240D01*
X014537Y012398D02*
X014538Y012398D01*
X014537Y012557D02*
X014538Y012557D01*
X014537Y012715D02*
X014538Y012715D01*
X014537Y012874D02*
X014538Y012874D01*
X013391Y013191D02*
X017511Y013191D01*
X017511Y013200D02*
X017511Y008920D01*
X013391Y008920D01*
X013391Y013200D01*
X017511Y013200D01*
X018071Y013191D02*
X018739Y013191D01*
X018726Y013349D02*
X018071Y013349D01*
X018071Y013508D02*
X018726Y013508D01*
X018766Y013667D02*
X018071Y013667D01*
X018071Y013825D02*
X018924Y013825D01*
X019003Y013984D02*
X012921Y013984D01*
X012811Y013032D02*
X011541Y013032D01*
X011541Y012874D02*
X012811Y012874D01*
X012811Y012715D02*
X011541Y012715D01*
X011541Y012557D02*
X012811Y012557D01*
X012811Y012398D02*
X011541Y012398D01*
X011541Y012240D02*
X012811Y012240D01*
X012811Y012081D02*
X011439Y012081D01*
X011280Y011923D02*
X012811Y011923D01*
X012811Y011764D02*
X011122Y011764D01*
X011003Y012240D02*
X009942Y012240D01*
X009733Y012398D02*
X011121Y012398D01*
X009927Y011605D02*
X012811Y011605D01*
X012811Y011447D02*
X009697Y011447D01*
X010056Y009483D02*
X009781Y009207D01*
X009781Y008818D01*
X010056Y008543D01*
X010446Y008543D01*
X010721Y008818D01*
X010721Y009207D01*
X010446Y009483D01*
X010056Y009483D01*
X009959Y009386D02*
X006542Y009386D01*
X006701Y009227D02*
X009801Y009227D01*
X009781Y009069D02*
X006721Y009069D01*
X006721Y008910D02*
X009781Y008910D01*
X009847Y008752D02*
X006655Y008752D01*
X006496Y008593D02*
X010006Y008593D01*
X010496Y008593D02*
X010852Y008593D01*
X010655Y008752D02*
X012811Y008752D01*
X012811Y008910D02*
X010721Y008910D01*
X010721Y009069D02*
X012811Y009069D01*
X012811Y009227D02*
X010701Y009227D01*
X010542Y009386D02*
X012811Y009386D01*
X013391Y009386D02*
X017511Y009386D01*
X017511Y009544D02*
X016611Y009544D01*
X016674Y009571D02*
X016787Y009683D01*
X016848Y009830D01*
X016848Y009989D01*
X016787Y010136D01*
X016674Y010249D01*
X016527Y010310D01*
X016368Y010310D01*
X016221Y010249D01*
X016109Y010136D01*
X016048Y009989D01*
X016048Y009830D01*
X016109Y009683D01*
X016221Y009571D01*
X016368Y009510D01*
X016527Y009510D01*
X016674Y009571D01*
X016795Y009703D02*
X017511Y009703D01*
X017511Y009861D02*
X016848Y009861D01*
X016835Y010020D02*
X017511Y010020D01*
X017511Y010179D02*
X016745Y010179D01*
X016151Y010179D02*
X014845Y010179D01*
X014887Y010136D02*
X014774Y010249D01*
X014627Y010310D01*
X014468Y010310D01*
X014321Y010249D01*
X014209Y010136D01*
X014148Y009989D01*
X014148Y009830D01*
X014209Y009683D01*
X014321Y009571D01*
X014468Y009510D01*
X014627Y009510D01*
X014774Y009571D01*
X014887Y009683D01*
X014948Y009830D01*
X014948Y009989D01*
X014887Y010136D01*
X014935Y010020D02*
X016061Y010020D01*
X016048Y009861D02*
X014948Y009861D01*
X014895Y009703D02*
X016101Y009703D01*
X016285Y009544D02*
X014711Y009544D01*
X014385Y009544D02*
X013391Y009544D01*
X013391Y009703D02*
X014201Y009703D01*
X014148Y009861D02*
X013391Y009861D01*
X013391Y010020D02*
X014161Y010020D01*
X014251Y010179D02*
X013391Y010179D01*
X013391Y010337D02*
X017511Y010337D01*
X017511Y010496D02*
X013391Y010496D01*
X013391Y010654D02*
X017511Y010654D01*
X017511Y010813D02*
X013391Y010813D01*
X013391Y010971D02*
X017511Y010971D01*
X018071Y010654D02*
X018381Y010654D01*
X018531Y010654D02*
X018532Y010654D01*
X018531Y010496D02*
X018532Y010496D01*
X018531Y010337D02*
X018532Y010337D01*
X018531Y010179D02*
X018532Y010179D01*
X018532Y010172D02*
X018532Y009667D01*
X018571Y009667D01*
X018650Y009680D01*
X018725Y009704D01*
X018796Y009740D01*
X018860Y009787D01*
X018881Y009807D01*
X018881Y009693D01*
X018881Y009480D01*
X018795Y009566D01*
X018624Y009637D01*
X018439Y009637D01*
X018268Y009566D01*
X018137Y009436D01*
X018071Y009275D01*
X018071Y009964D01*
X018100Y009907D01*
X018146Y009843D01*
X018202Y009787D01*
X018267Y009740D01*
X018338Y009704D01*
X018413Y009680D01*
X018492Y009667D01*
X018531Y009667D01*
X018531Y010172D01*
X018532Y010172D01*
X018531Y010020D02*
X018532Y010020D01*
X018531Y009861D02*
X018532Y009861D01*
X018531Y009703D02*
X018532Y009703D01*
X018722Y009703D02*
X018881Y009703D01*
X018881Y009544D02*
X018817Y009544D01*
X018341Y009703D02*
X018071Y009703D01*
X018071Y009861D02*
X018133Y009861D01*
X018071Y009544D02*
X018246Y009544D01*
X018117Y009386D02*
X018071Y009386D01*
X017511Y009227D02*
X013391Y009227D01*
X013391Y009069D02*
X017511Y009069D01*
X018071Y010496D02*
X018142Y010496D01*
X019794Y008569D02*
X019941Y008630D01*
X020100Y008630D01*
X020247Y008569D01*
X020360Y008457D01*
X020421Y008310D01*
X020421Y007631D01*
X020360Y007484D01*
X020247Y007371D01*
X020100Y007310D01*
X019941Y007310D01*
X019794Y007371D01*
X019682Y007484D01*
X019621Y007631D01*
X019621Y008310D01*
X019682Y008457D01*
X019794Y008569D01*
X019852Y008593D02*
X019190Y008593D01*
X019369Y008435D02*
X019673Y008435D01*
X019621Y008276D02*
X019421Y008276D01*
X019421Y008118D02*
X019621Y008118D01*
X019621Y007959D02*
X019421Y007959D01*
X019421Y007800D02*
X019621Y007800D01*
X019621Y007642D02*
X019421Y007642D01*
X019360Y007483D02*
X019682Y007483D01*
X019906Y007325D02*
X019259Y007325D01*
X019280Y007166D02*
X019879Y007166D01*
X020136Y007325D02*
X020906Y007325D01*
X020941Y007310D02*
X021100Y007310D01*
X021247Y007371D01*
X021360Y007484D01*
X021421Y007631D01*
X021421Y008310D01*
X021360Y008457D01*
X021247Y008569D01*
X021100Y008630D01*
X020941Y008630D01*
X020794Y008569D01*
X020682Y008457D01*
X020621Y008310D01*
X020621Y007631D01*
X020682Y007484D01*
X020794Y007371D01*
X020941Y007310D01*
X021136Y007325D02*
X021906Y007325D01*
X022136Y007325D02*
X022906Y007325D01*
X022941Y007310D02*
X023100Y007310D01*
X023247Y007371D01*
X023360Y007484D01*
X023421Y007631D01*
X023421Y008310D01*
X023360Y008457D01*
X023247Y008569D01*
X023100Y008630D01*
X022941Y008630D01*
X022794Y008569D01*
X022682Y008457D01*
X022621Y008310D01*
X022621Y007631D01*
X022682Y007484D01*
X022794Y007371D01*
X022941Y007310D01*
X023136Y007325D02*
X023906Y007325D01*
X023941Y007310D02*
X024100Y007310D01*
X024247Y007371D01*
X024360Y007484D01*
X024421Y007631D01*
X024421Y008310D01*
X024360Y008457D01*
X024247Y008569D01*
X024231Y008576D01*
X024231Y008827D01*
X024289Y008851D01*
X024420Y008982D01*
X024491Y009153D01*
X024491Y009338D01*
X024420Y009509D01*
X024289Y009639D01*
X024118Y009710D01*
X023933Y009710D01*
X023763Y009639D01*
X023632Y009509D01*
X023561Y009338D01*
X023561Y009153D01*
X023632Y008982D01*
X023763Y008851D01*
X023811Y008831D01*
X023811Y008576D01*
X023794Y008569D01*
X023682Y008457D01*
X023621Y008310D01*
X023621Y007631D01*
X023682Y007484D01*
X023794Y007371D01*
X023941Y007310D01*
X024136Y007325D02*
X024726Y007325D01*
X024726Y007483D02*
X024360Y007483D01*
X024421Y007642D02*
X024726Y007642D01*
X024726Y007800D02*
X024421Y007800D01*
X024421Y007959D02*
X024726Y007959D01*
X024726Y008118D02*
X024421Y008118D01*
X024421Y008276D02*
X024726Y008276D01*
X024726Y008435D02*
X024369Y008435D01*
X024231Y008593D02*
X024726Y008593D01*
X024726Y008752D02*
X024231Y008752D01*
X024349Y008910D02*
X024726Y008910D01*
X024726Y009069D02*
X024456Y009069D01*
X024491Y009227D02*
X024726Y009227D01*
X024726Y009386D02*
X024471Y009386D01*
X024384Y009544D02*
X024726Y009544D01*
X024726Y009703D02*
X024136Y009703D01*
X023916Y009703D02*
X023136Y009703D01*
X023118Y009710D02*
X022933Y009710D01*
X022763Y009639D01*
X022632Y009509D01*
X022561Y009338D01*
X022561Y009153D01*
X022632Y008982D01*
X022763Y008851D01*
X022933Y008780D01*
X023118Y008780D01*
X023289Y008851D01*
X023420Y008982D01*
X023491Y009153D01*
X023491Y009338D01*
X023420Y009509D01*
X023289Y009639D01*
X023118Y009710D01*
X022916Y009703D02*
X022231Y009703D01*
X022231Y009861D02*
X024726Y009861D01*
X024726Y010020D02*
X023658Y010020D01*
X023692Y010054D02*
X023568Y009930D01*
X023406Y009863D01*
X022631Y009863D01*
X022469Y009930D01*
X022346Y010054D01*
X022279Y010215D01*
X022279Y010390D01*
X022346Y010552D01*
X022469Y010676D01*
X022631Y010743D01*
X023406Y010743D01*
X023568Y010676D01*
X023692Y010552D01*
X023759Y010390D01*
X023759Y010215D01*
X023692Y010054D01*
X023743Y010179D02*
X024726Y010179D01*
X024726Y010337D02*
X023759Y010337D01*
X023715Y010496D02*
X024726Y010496D01*
X024726Y010654D02*
X023589Y010654D01*
X023609Y010971D02*
X024726Y010971D01*
X024726Y010813D02*
X022231Y010813D01*
X022231Y010654D02*
X022448Y010654D01*
X022322Y010496D02*
X022231Y010496D01*
X022231Y010337D02*
X022279Y010337D01*
X022294Y010179D02*
X022231Y010179D01*
X022231Y010020D02*
X022379Y010020D01*
X022231Y009544D02*
X022668Y009544D01*
X022581Y009386D02*
X022231Y009386D01*
X022231Y009227D02*
X022561Y009227D01*
X022596Y009069D02*
X022231Y009069D01*
X022231Y008910D02*
X022703Y008910D01*
X022231Y008752D02*
X023811Y008752D01*
X023811Y008593D02*
X023190Y008593D01*
X023369Y008435D02*
X023673Y008435D01*
X023621Y008276D02*
X023421Y008276D01*
X023421Y008118D02*
X023621Y008118D01*
X023621Y007959D02*
X023421Y007959D01*
X023421Y007800D02*
X023621Y007800D01*
X023621Y007642D02*
X023421Y007642D01*
X023360Y007483D02*
X023682Y007483D01*
X023249Y007008D02*
X024726Y007008D01*
X024726Y007166D02*
X020182Y007166D01*
X020288Y007008D02*
X020774Y007008D01*
X021248Y007008D02*
X021784Y007008D01*
X021654Y006849D02*
X021271Y006849D01*
X021169Y006691D02*
X021481Y006691D01*
X021757Y006374D02*
X022217Y006374D01*
X022376Y006532D02*
X021930Y006532D01*
X022179Y006691D02*
X022534Y006691D01*
X022693Y006849D02*
X022281Y006849D01*
X022258Y007008D02*
X022792Y007008D01*
X023281Y006849D02*
X024726Y006849D01*
X024726Y006691D02*
X023199Y006691D01*
X022970Y006532D02*
X024726Y006532D01*
X024726Y006374D02*
X022811Y006374D01*
X022653Y006215D02*
X024726Y006215D01*
X024726Y006056D02*
X022494Y006056D01*
X022336Y005898D02*
X024726Y005898D01*
X022682Y007483D02*
X022360Y007483D01*
X022421Y007642D02*
X022621Y007642D01*
X022621Y007800D02*
X022421Y007800D01*
X022421Y007959D02*
X022621Y007959D01*
X022621Y008118D02*
X022421Y008118D01*
X022421Y008276D02*
X022621Y008276D01*
X022673Y008435D02*
X022369Y008435D01*
X022231Y008593D02*
X022852Y008593D01*
X023349Y008910D02*
X023703Y008910D01*
X023596Y009069D02*
X023456Y009069D01*
X023491Y009227D02*
X023561Y009227D01*
X023581Y009386D02*
X023471Y009386D01*
X023384Y009544D02*
X023668Y009544D01*
X022428Y010971D02*
X022339Y010971D01*
X021811Y010813D02*
X020925Y010813D01*
X021084Y010654D02*
X021811Y010654D01*
X021811Y010496D02*
X021151Y010496D01*
X021151Y010337D02*
X021811Y010337D01*
X021811Y010179D02*
X021133Y010179D01*
X020974Y010020D02*
X021811Y010020D01*
X021811Y008593D02*
X021190Y008593D01*
X021369Y008435D02*
X021673Y008435D01*
X021621Y008276D02*
X021421Y008276D01*
X021421Y008118D02*
X021621Y008118D01*
X021621Y007959D02*
X021421Y007959D01*
X021421Y007800D02*
X021621Y007800D01*
X021621Y007642D02*
X021421Y007642D01*
X021360Y007483D02*
X021682Y007483D01*
X020682Y007483D02*
X020360Y007483D01*
X020421Y007642D02*
X020621Y007642D01*
X020621Y007800D02*
X020421Y007800D01*
X020421Y007959D02*
X020621Y007959D01*
X020621Y008118D02*
X020421Y008118D01*
X020421Y008276D02*
X020621Y008276D01*
X020673Y008435D02*
X020369Y008435D01*
X020190Y008593D02*
X020852Y008593D01*
X023723Y011130D02*
X024726Y011130D01*
X024726Y011288D02*
X023759Y011288D01*
X023735Y011447D02*
X024726Y011447D01*
X024726Y011605D02*
X023638Y011605D01*
X022367Y013032D02*
X019574Y013032D01*
X019733Y013191D02*
X022289Y013191D01*
X022279Y013349D02*
X019746Y013349D01*
X019746Y013508D02*
X022327Y013508D01*
X022460Y013667D02*
X019706Y013667D01*
X020938Y013984D02*
X022416Y013984D01*
X022469Y013930D02*
X022631Y013863D01*
X023406Y013863D01*
X023568Y013930D01*
X023692Y014054D01*
X023759Y014215D01*
X023759Y014390D01*
X023692Y014552D01*
X023568Y014676D01*
X023406Y014743D01*
X022631Y014743D01*
X022469Y014676D01*
X022346Y014552D01*
X022279Y014390D01*
X022279Y014215D01*
X022346Y014054D01*
X022469Y013930D01*
X022309Y014142D02*
X021097Y014142D01*
X021151Y014301D02*
X022279Y014301D01*
X022307Y014459D02*
X021151Y014459D01*
X021120Y014618D02*
X022411Y014618D01*
X022534Y014858D02*
X022467Y014892D01*
X022406Y014937D01*
X022353Y014990D01*
X022308Y015051D01*
X022274Y015119D01*
X022250Y015190D01*
X022239Y015265D01*
X022239Y015283D01*
X022998Y015283D01*
X022998Y015323D01*
X022239Y015323D01*
X022239Y015341D01*
X022250Y015415D01*
X022274Y015487D01*
X022308Y015554D01*
X022353Y015616D01*
X022406Y015669D01*
X022467Y015713D01*
X022534Y015748D01*
X022606Y015771D01*
X022681Y015783D01*
X022999Y015783D01*
X022999Y015323D01*
X023039Y015323D01*
X023799Y015323D01*
X023799Y015341D01*
X023787Y015415D01*
X023763Y015487D01*
X023729Y015554D01*
X023685Y015616D01*
X023631Y015669D01*
X023570Y015713D01*
X023503Y015748D01*
X023431Y015771D01*
X023356Y015783D01*
X023039Y015783D01*
X023039Y015323D01*
X023039Y015283D01*
X023799Y015283D01*
X023799Y015265D01*
X023787Y015190D01*
X023763Y015119D01*
X023729Y015051D01*
X023685Y014990D01*
X023631Y014937D01*
X023570Y014892D01*
X023503Y014858D01*
X023431Y014835D01*
X023356Y014823D01*
X023039Y014823D01*
X023039Y015283D01*
X022999Y015283D01*
X022999Y014823D01*
X022681Y014823D01*
X022606Y014835D01*
X022534Y014858D01*
X022408Y014935D02*
X018482Y014935D01*
X018324Y014776D02*
X018932Y014776D01*
X018641Y015093D02*
X022287Y015093D01*
X022241Y015252D02*
X018800Y015252D01*
X018958Y015411D02*
X022250Y015411D01*
X022319Y015569D02*
X019117Y015569D01*
X019275Y015728D02*
X022495Y015728D01*
X022999Y015728D02*
X023039Y015728D01*
X023039Y015569D02*
X022999Y015569D01*
X022999Y015411D02*
X023039Y015411D01*
X023039Y015252D02*
X022999Y015252D01*
X022999Y015093D02*
X023039Y015093D01*
X023039Y014935D02*
X022999Y014935D01*
X023629Y014935D02*
X024726Y014935D01*
X024726Y015093D02*
X023751Y015093D01*
X023797Y015252D02*
X024726Y015252D01*
X024726Y015411D02*
X023788Y015411D01*
X023719Y015569D02*
X024726Y015569D01*
X024726Y015728D02*
X023542Y015728D01*
X023649Y016045D02*
X019592Y016045D01*
X019434Y015886D02*
X024726Y015886D01*
X024726Y016045D02*
X023953Y016045D01*
X024059Y016203D02*
X024726Y016203D01*
X024726Y016362D02*
X024040Y016362D01*
X024216Y016996D02*
X024726Y016996D01*
X024726Y017154D02*
X024453Y017154D01*
X024601Y017313D02*
X024726Y017313D01*
X024726Y017472D02*
X024704Y017472D01*
X024726Y016837D02*
X018161Y016837D01*
X018161Y016679D02*
X024726Y016679D01*
X024726Y016520D02*
X018161Y016520D01*
X018161Y016362D02*
X019315Y016362D01*
X019157Y016203D02*
X018161Y016203D01*
X018161Y016045D02*
X018998Y016045D01*
X018840Y015886D02*
X018161Y015886D01*
X018161Y015728D02*
X018681Y015728D01*
X018523Y015569D02*
X018161Y015569D01*
X018207Y015411D02*
X018364Y015411D01*
X018206Y015252D02*
X018191Y015252D01*
X018047Y015093D02*
X018010Y015093D01*
X017891Y015093D02*
X016417Y015093D01*
X016575Y015252D02*
X017710Y015252D01*
X017694Y015411D02*
X016734Y015411D01*
X017076Y015569D02*
X017741Y015569D01*
X017741Y015728D02*
X017174Y015728D01*
X017195Y015886D02*
X017741Y015886D01*
X017741Y016045D02*
X017154Y016045D01*
X017027Y016203D02*
X017741Y016203D01*
X017741Y016362D02*
X017126Y016362D01*
X017235Y016520D02*
X017741Y016520D01*
X017741Y016679D02*
X017235Y016679D01*
X017235Y016837D02*
X017741Y016837D01*
X017668Y016996D02*
X017091Y016996D01*
X017509Y017154D02*
X014527Y017154D01*
X014685Y016996D02*
X016459Y016996D01*
X016315Y016837D02*
X014844Y016837D01*
X015254Y016679D02*
X016315Y016679D01*
X016315Y016520D02*
X015347Y016520D01*
X015362Y016362D02*
X016424Y016362D01*
X016523Y016203D02*
X015362Y016203D01*
X015362Y016045D02*
X016396Y016045D01*
X016355Y015886D02*
X015362Y015886D01*
X015329Y015728D02*
X016231Y015728D01*
X016072Y015569D02*
X015210Y015569D01*
X014111Y015050D02*
X012921Y015050D01*
X012921Y015447D01*
X012927Y015446D01*
X012961Y015446D01*
X012961Y016146D01*
X012962Y016146D01*
X012962Y016146D01*
X013402Y016146D01*
X013402Y015851D01*
X013391Y015783D01*
X013369Y015717D01*
X013338Y015656D01*
X013297Y015599D01*
X013248Y015551D01*
X013192Y015510D01*
X013130Y015478D01*
X013065Y015457D01*
X012996Y015446D01*
X012962Y015446D01*
X012962Y016146D01*
X013402Y016146D01*
X013402Y016441D01*
X013391Y016509D01*
X013369Y016575D01*
X013338Y016637D01*
X013299Y016690D01*
X013680Y016690D01*
X013622Y016633D01*
X013562Y016486D01*
X013562Y015807D01*
X013622Y015660D01*
X013672Y015610D01*
X013672Y015552D01*
X013716Y015445D01*
X013797Y015364D01*
X014111Y015050D01*
X014067Y015093D02*
X012921Y015093D01*
X012811Y015093D02*
X005401Y015093D01*
X005401Y014935D02*
X008735Y014935D01*
X008568Y014776D02*
X005401Y014776D01*
X005401Y014618D02*
X008515Y014618D01*
X008525Y014459D02*
X005401Y014459D01*
X005401Y014301D02*
X008607Y014301D01*
X008825Y016045D02*
X011316Y016045D01*
X011351Y016010D02*
X011542Y015931D01*
X011749Y015931D01*
X011940Y016010D01*
X012086Y016156D01*
X012165Y016347D01*
X012165Y016554D01*
X012086Y016745D01*
X011940Y016892D01*
X011749Y016971D01*
X011542Y016971D01*
X011351Y016892D01*
X011204Y016745D01*
X011125Y016554D01*
X011125Y016347D01*
X011204Y016156D01*
X011351Y016010D01*
X011185Y016203D02*
X008956Y016203D01*
X009016Y016362D02*
X011125Y016362D01*
X011125Y016520D02*
X009016Y016520D01*
X009134Y016679D02*
X011177Y016679D01*
X011297Y016837D02*
X009292Y016837D01*
X009451Y016996D02*
X012514Y016996D01*
X012356Y017154D02*
X009609Y017154D01*
X009768Y017313D02*
X012197Y017313D01*
X011883Y017472D02*
X009927Y017472D01*
X009582Y017947D02*
X008491Y017947D01*
X008491Y017995D02*
X008256Y018230D01*
X008101Y018230D01*
X007511Y018820D01*
X007511Y019348D01*
X007594Y019431D01*
X007661Y019593D01*
X007661Y020368D01*
X007594Y020529D01*
X007470Y020653D01*
X007308Y020720D01*
X007133Y020720D01*
X006972Y020653D01*
X006848Y020529D01*
X006781Y020368D01*
X006781Y019593D01*
X006848Y019431D01*
X006931Y019348D01*
X006931Y018642D01*
X006975Y018535D01*
X007056Y018454D01*
X007681Y017830D01*
X007096Y017246D01*
X007096Y017436D01*
X006827Y017706D01*
X006637Y017706D01*
X006637Y017246D01*
X007096Y017246D01*
X007096Y017246D01*
X006637Y017246D01*
X006637Y017246D01*
X006636Y017246D01*
X006636Y017246D01*
X006177Y017246D01*
X006177Y017436D01*
X006446Y017706D01*
X006636Y017706D01*
X006636Y017246D01*
X006177Y017246D01*
X006177Y017055D01*
X006421Y016811D01*
X006399Y016802D01*
X006280Y016684D01*
X006217Y016529D01*
X006217Y016362D01*
X005401Y016362D01*
X005401Y016520D02*
X006217Y016520D01*
X006217Y016362D02*
X006280Y016208D01*
X006399Y016090D01*
X006553Y016026D01*
X006720Y016026D01*
X006874Y016090D01*
X006993Y016208D01*
X007056Y016362D01*
X007976Y016362D01*
X007976Y016520D02*
X007191Y016520D01*
X007056Y016385D02*
X008101Y017430D01*
X008256Y017430D01*
X008491Y017664D01*
X008491Y017995D01*
X008380Y018106D02*
X009783Y018106D01*
X009423Y017789D02*
X008491Y017789D01*
X008457Y017630D02*
X009265Y017630D01*
X009106Y017472D02*
X008298Y017472D01*
X007984Y017313D02*
X008948Y017313D01*
X008789Y017154D02*
X007826Y017154D01*
X007667Y016996D02*
X008631Y016996D01*
X008147Y016837D02*
X007509Y016837D01*
X007350Y016679D02*
X008027Y016679D01*
X008035Y016203D02*
X006988Y016203D01*
X007056Y016362D02*
X007056Y016385D01*
X006766Y016045D02*
X008166Y016045D01*
X007164Y017313D02*
X007096Y017313D01*
X007061Y017472D02*
X007323Y017472D01*
X007481Y017630D02*
X006903Y017630D01*
X006637Y017630D02*
X006636Y017630D01*
X006636Y017472D02*
X006637Y017472D01*
X006636Y017313D02*
X006637Y017313D01*
X006370Y017630D02*
X005401Y017630D01*
X005401Y017472D02*
X006212Y017472D01*
X006177Y017313D02*
X005401Y017313D01*
X005401Y017154D02*
X006177Y017154D01*
X006236Y016996D02*
X005401Y016996D01*
X005401Y016837D02*
X006394Y016837D01*
X006279Y016679D02*
X005401Y016679D01*
X005401Y016203D02*
X006285Y016203D01*
X006507Y016045D02*
X005401Y016045D01*
X005401Y015886D02*
X012522Y015886D01*
X012522Y016045D02*
X011975Y016045D01*
X012106Y016203D02*
X012522Y016203D01*
X012522Y016146D02*
X012811Y016146D01*
X012522Y016146D01*
X012522Y016362D02*
X012165Y016362D01*
X012165Y016520D02*
X012536Y016520D01*
X012616Y016679D02*
X012114Y016679D01*
X011994Y016837D02*
X012673Y016837D01*
X013017Y017313D02*
X017304Y017313D01*
X017281Y017472D02*
X012921Y017472D01*
X012921Y017630D02*
X017383Y017630D01*
X017437Y017789D02*
X018826Y017789D01*
X018884Y017699D02*
X018766Y017581D01*
X018702Y017427D01*
X018702Y017259D01*
X018766Y017105D01*
X018884Y016987D01*
X019038Y016923D01*
X019205Y016923D01*
X019360Y016987D01*
X019478Y017105D01*
X019542Y017259D01*
X019542Y017427D01*
X019478Y017581D01*
X019360Y017699D01*
X019338Y017708D01*
X019582Y017952D01*
X019582Y018143D01*
X019582Y018334D01*
X019312Y018603D01*
X019122Y018603D01*
X019122Y018143D01*
X019582Y018143D01*
X019122Y018143D01*
X019122Y018143D01*
X019122Y018143D01*
X019122Y018603D01*
X018931Y018603D01*
X018662Y018334D01*
X018662Y018143D01*
X019121Y018143D01*
X019121Y018143D01*
X018662Y018143D01*
X018662Y017952D01*
X018906Y017708D01*
X018884Y017699D01*
X018815Y017630D02*
X017698Y017630D01*
X017801Y017472D02*
X018721Y017472D01*
X018702Y017313D02*
X017945Y017313D01*
X018103Y017154D02*
X018745Y017154D01*
X018875Y016996D02*
X018161Y016996D01*
X019369Y016996D02*
X020959Y016996D01*
X020700Y017154D02*
X019498Y017154D01*
X019542Y017313D02*
X020541Y017313D01*
X020441Y017472D02*
X019523Y017472D01*
X019429Y017630D02*
X020364Y017630D01*
X020321Y017789D02*
X019418Y017789D01*
X019577Y017947D02*
X020303Y017947D01*
X020303Y018106D02*
X019582Y018106D01*
X019582Y018264D02*
X020335Y018264D01*
X020379Y018423D02*
X019493Y018423D01*
X019334Y018581D02*
X020397Y018581D01*
X020239Y018740D02*
X018331Y018740D01*
X018331Y018581D02*
X018910Y018581D01*
X019122Y018581D02*
X019122Y018581D01*
X019122Y018423D02*
X019122Y018423D01*
X019122Y018264D02*
X019122Y018264D01*
X018751Y018423D02*
X018331Y018423D01*
X018235Y018264D02*
X018662Y018264D01*
X018662Y018106D02*
X018076Y018106D01*
X017918Y017947D02*
X018667Y017947D01*
X017751Y018600D02*
X017584Y018434D01*
X017502Y018434D01*
X017423Y018513D01*
X017263Y018579D01*
X017246Y018579D01*
X017288Y018586D01*
X017359Y018609D01*
X017426Y018643D01*
X017486Y018687D01*
X017539Y018740D01*
X017583Y018800D01*
X017617Y018867D01*
X017640Y018938D01*
X017652Y019012D01*
X017652Y019036D01*
X017191Y019036D01*
X017191Y019063D01*
X017652Y019063D01*
X017652Y019087D01*
X017640Y019161D01*
X017617Y019232D01*
X017583Y019298D01*
X017539Y019359D01*
X017486Y019412D01*
X017426Y019456D01*
X017359Y019490D01*
X017288Y019513D01*
X017246Y019520D01*
X017263Y019520D01*
X017423Y019586D01*
X017546Y019708D01*
X017612Y019868D01*
X017612Y020041D01*
X017546Y020201D01*
X017423Y020324D01*
X017263Y020390D01*
X017090Y020390D01*
X016930Y020324D01*
X016808Y020201D01*
X016742Y020041D01*
X016742Y019868D01*
X016808Y019708D01*
X016930Y019586D01*
X017090Y019520D01*
X017108Y019520D01*
X017066Y019513D01*
X016994Y019490D01*
X016928Y019456D01*
X016867Y019412D01*
X016814Y019359D01*
X016770Y019298D01*
X016736Y019232D01*
X016713Y019161D01*
X016702Y019087D01*
X016702Y019063D01*
X017163Y019063D01*
X017163Y019036D01*
X016702Y019036D01*
X016702Y019012D01*
X016713Y018938D01*
X016736Y018867D01*
X016770Y018800D01*
X016814Y018740D01*
X016171Y018740D01*
X016013Y018898D02*
X016726Y018898D01*
X016814Y018740D02*
X016867Y018687D01*
X016928Y018643D01*
X016994Y018609D01*
X017066Y018586D01*
X017108Y018579D01*
X017090Y018579D01*
X016930Y018513D01*
X016851Y018434D01*
X016477Y018434D01*
X015805Y019106D01*
X015698Y019150D01*
X015583Y019150D01*
X012921Y019150D01*
X012921Y020805D01*
X021973Y020805D01*
X021917Y020770D01*
X021818Y020691D01*
X021729Y020602D01*
X021650Y020503D01*
X021583Y020396D01*
X021528Y020282D01*
X021486Y020163D01*
X021458Y020040D01*
X021446Y019931D01*
X022489Y019931D01*
X022489Y019771D01*
X021446Y019771D01*
X021458Y019663D01*
X021486Y019539D01*
X021528Y019420D01*
X021583Y019306D01*
X021650Y019199D01*
X021729Y019101D01*
X021818Y019011D01*
X021846Y018989D01*
X021806Y019012D01*
X021531Y019086D01*
X021245Y019086D01*
X020969Y019012D01*
X020854Y018945D01*
X020483Y019316D01*
X020376Y019360D01*
X020261Y019360D01*
X020002Y019360D01*
X020011Y019369D01*
X020058Y019433D01*
X020094Y019504D01*
X020118Y019579D01*
X020131Y019658D01*
X020131Y019697D01*
X019626Y019697D01*
X019626Y019698D01*
X019626Y019698D01*
X019626Y020203D01*
X019666Y020203D01*
X019744Y020190D01*
X019820Y020166D01*
X019890Y020130D01*
X019955Y020083D01*
X020011Y020027D01*
X020058Y019962D01*
X020094Y019891D01*
X020118Y019816D01*
X020131Y019737D01*
X020131Y019698D01*
X019626Y019698D01*
X019626Y020203D01*
X019586Y020203D01*
X019508Y020190D01*
X019432Y020166D01*
X019361Y020130D01*
X019297Y020083D01*
X019241Y020027D01*
X019194Y019962D01*
X019158Y019891D01*
X019133Y019816D01*
X019121Y019737D01*
X019121Y019698D01*
X019625Y019698D01*
X019625Y019697D01*
X019121Y019697D01*
X019121Y019658D01*
X019133Y019579D01*
X019158Y019504D01*
X019194Y019433D01*
X019241Y019369D01*
X019249Y019360D01*
X019231Y019360D01*
X019060Y019531D01*
X019091Y019605D01*
X019091Y019790D01*
X019020Y019961D01*
X018889Y020092D01*
X018718Y020163D01*
X018533Y020163D01*
X018362Y020092D01*
X018232Y019961D01*
X018161Y019790D01*
X018161Y019605D01*
X018192Y019531D01*
X017876Y019216D01*
X017623Y019216D01*
X017524Y019374D02*
X018035Y019374D01*
X018191Y019533D02*
X017295Y019533D01*
X017059Y019533D02*
X012921Y019533D01*
X012811Y019533D02*
X011636Y019533D01*
X011661Y019593D02*
X011661Y020368D01*
X011594Y020529D01*
X011470Y020653D01*
X011308Y020720D01*
X011133Y020720D01*
X010972Y020653D01*
X010848Y020529D01*
X010781Y020368D01*
X010781Y019593D01*
X010848Y019431D01*
X010972Y019307D01*
X011133Y019240D01*
X011308Y019240D01*
X011470Y019307D01*
X011594Y019431D01*
X011661Y019593D01*
X011661Y019691D02*
X012811Y019691D01*
X012921Y019691D02*
X016825Y019691D01*
X016749Y019850D02*
X012921Y019850D01*
X012811Y019850D02*
X011661Y019850D01*
X011661Y020008D02*
X012811Y020008D01*
X012921Y020008D02*
X016742Y020008D01*
X016794Y020167D02*
X012921Y020167D01*
X012811Y020167D02*
X011661Y020167D01*
X011661Y020325D02*
X012811Y020325D01*
X012921Y020325D02*
X016934Y020325D01*
X017420Y020325D02*
X021549Y020325D01*
X021487Y020167D02*
X019816Y020167D01*
X019626Y020167D02*
X019626Y020167D01*
X019626Y020008D02*
X019626Y020008D01*
X019626Y019850D02*
X019626Y019850D01*
X020024Y020008D02*
X021455Y020008D01*
X021455Y019691D02*
X020131Y019691D01*
X020107Y019850D02*
X022489Y019850D01*
X022489Y019691D02*
X022649Y019691D01*
X022649Y019533D02*
X022489Y019533D01*
X022489Y019374D02*
X022649Y019374D01*
X022649Y019216D02*
X022489Y019216D01*
X022489Y019057D02*
X022649Y019057D01*
X022649Y018898D02*
X022489Y018898D01*
X022489Y018740D02*
X022649Y018740D01*
X022752Y018740D02*
X022861Y018740D01*
X022747Y018581D02*
X022305Y018581D01*
X022385Y018740D02*
X022183Y018740D01*
X022397Y018423D02*
X022666Y018423D01*
X022617Y018264D02*
X022440Y018264D01*
X022473Y018106D02*
X022590Y018106D01*
X022473Y017947D02*
X023630Y017947D01*
X023631Y017789D02*
X023790Y017789D01*
X023790Y017630D02*
X023631Y017630D01*
X023631Y017472D02*
X023790Y017472D01*
X023790Y017313D02*
X023631Y017313D01*
X023631Y017154D02*
X023790Y017154D01*
X023790Y016996D02*
X023631Y016996D01*
X023205Y016996D02*
X021817Y016996D01*
X022076Y017154D02*
X022968Y017154D01*
X022820Y017313D02*
X022234Y017313D01*
X022335Y017472D02*
X022717Y017472D01*
X022648Y017630D02*
X022411Y017630D01*
X022454Y017789D02*
X022605Y017789D01*
X023631Y018106D02*
X023790Y018106D01*
X023790Y018264D02*
X023631Y018264D01*
X023631Y018423D02*
X023790Y018423D01*
X023790Y018581D02*
X023631Y018581D01*
X023631Y018740D02*
X023790Y018740D01*
X023790Y018898D02*
X023631Y018898D01*
X023631Y019057D02*
X023790Y019057D01*
X024098Y019057D02*
X024726Y019057D01*
X024726Y019216D02*
X023498Y019216D01*
X023588Y019374D02*
X024726Y019374D01*
X024726Y019533D02*
X023649Y019533D01*
X023683Y019691D02*
X024726Y019691D01*
X024726Y019850D02*
X022649Y019850D01*
X023650Y020167D02*
X024726Y020167D01*
X024726Y020325D02*
X023589Y020325D01*
X023500Y020484D02*
X024726Y020484D01*
X024726Y020642D02*
X023368Y020642D01*
X023171Y020801D02*
X024726Y020801D01*
X024726Y020008D02*
X023683Y020008D01*
X024389Y018898D02*
X024726Y018898D01*
X024726Y018740D02*
X024560Y018740D01*
X024674Y018581D02*
X024726Y018581D01*
X021772Y019057D02*
X021638Y019057D01*
X021640Y019216D02*
X020583Y019216D01*
X020742Y019057D02*
X021138Y019057D01*
X021550Y019374D02*
X020015Y019374D01*
X020103Y019533D02*
X021489Y019533D01*
X021638Y020484D02*
X012921Y020484D01*
X012811Y020484D02*
X011613Y020484D01*
X011481Y020642D02*
X012811Y020642D01*
X012921Y020642D02*
X021769Y020642D01*
X021966Y020801D02*
X012921Y020801D01*
X012811Y020801D02*
X005401Y020801D01*
X005401Y020642D02*
X005961Y020642D01*
X005972Y020653D02*
X005848Y020529D01*
X005781Y020368D01*
X005781Y019593D01*
X005848Y019431D01*
X005972Y019307D01*
X006133Y019240D01*
X006308Y019240D01*
X006470Y019307D01*
X006594Y019431D01*
X006661Y019593D01*
X006661Y020368D01*
X006594Y020529D01*
X006470Y020653D01*
X006308Y020720D01*
X006133Y020720D01*
X005972Y020653D01*
X005829Y020484D02*
X005401Y020484D01*
X005401Y020325D02*
X005781Y020325D01*
X005781Y020167D02*
X005401Y020167D01*
X005401Y020008D02*
X005781Y020008D01*
X005781Y019850D02*
X005401Y019850D01*
X005401Y019691D02*
X005781Y019691D01*
X005806Y019533D02*
X005401Y019533D01*
X005401Y019374D02*
X005905Y019374D01*
X005401Y019216D02*
X006931Y019216D01*
X006931Y019057D02*
X005401Y019057D01*
X005401Y018898D02*
X006931Y018898D01*
X006931Y018740D02*
X005401Y018740D01*
X005401Y018581D02*
X006956Y018581D01*
X007087Y018423D02*
X005401Y018423D01*
X005401Y018264D02*
X007246Y018264D01*
X007404Y018106D02*
X005401Y018106D01*
X005401Y017947D02*
X007563Y017947D01*
X007640Y017789D02*
X005401Y017789D01*
X006537Y019374D02*
X006905Y019374D01*
X006806Y019533D02*
X006636Y019533D01*
X006661Y019691D02*
X006781Y019691D01*
X006781Y019850D02*
X006661Y019850D01*
X006661Y020008D02*
X006781Y020008D01*
X006781Y020167D02*
X006661Y020167D01*
X006661Y020325D02*
X006781Y020325D01*
X006829Y020484D02*
X006613Y020484D01*
X006481Y020642D02*
X006961Y020642D01*
X007481Y020642D02*
X007961Y020642D01*
X007829Y020484D02*
X007613Y020484D01*
X007661Y020325D02*
X007781Y020325D01*
X007781Y020167D02*
X007661Y020167D01*
X007661Y020008D02*
X007781Y020008D01*
X007781Y019850D02*
X007661Y019850D01*
X007661Y019691D02*
X007781Y019691D01*
X007806Y019533D02*
X007636Y019533D01*
X007537Y019374D02*
X007905Y019374D01*
X007931Y019216D02*
X007511Y019216D01*
X007511Y019057D02*
X007984Y019057D01*
X008142Y018898D02*
X007511Y018898D01*
X007591Y018740D02*
X008301Y018740D01*
X008506Y018581D02*
X007749Y018581D01*
X007908Y018423D02*
X012811Y018423D01*
X012921Y018423D02*
X015668Y018423D01*
X015826Y018264D02*
X012921Y018264D01*
X012811Y018264D02*
X008066Y018264D01*
X008645Y019216D02*
X010097Y019216D01*
X010108Y019212D02*
X010183Y019200D01*
X010201Y019200D01*
X010201Y019960D01*
X010241Y019960D01*
X010241Y020000D01*
X010701Y020000D01*
X010701Y020318D01*
X010689Y020393D01*
X010666Y020464D01*
X010631Y020532D01*
X010587Y020593D01*
X010533Y020646D01*
X010472Y020691D01*
X010405Y020725D01*
X010333Y020748D01*
X010259Y020760D01*
X010241Y020760D01*
X010241Y020000D01*
X010201Y020000D01*
X010201Y019960D01*
X009741Y019960D01*
X009741Y019642D01*
X009753Y019568D01*
X009776Y019496D01*
X009810Y019429D01*
X009855Y019367D01*
X009908Y019314D01*
X009969Y019270D01*
X010036Y019235D01*
X010108Y019212D01*
X010201Y019216D02*
X010241Y019216D01*
X010241Y019200D02*
X010259Y019200D01*
X010333Y019212D01*
X010405Y019235D01*
X010472Y019270D01*
X010533Y019314D01*
X010587Y019367D01*
X010631Y019429D01*
X010666Y019496D01*
X010689Y019568D01*
X010701Y019642D01*
X010701Y019960D01*
X010241Y019960D01*
X010241Y019200D01*
X010344Y019216D02*
X012811Y019216D01*
X012921Y019216D02*
X016731Y019216D01*
X016829Y019374D02*
X012921Y019374D01*
X012811Y019374D02*
X011537Y019374D01*
X010905Y019374D02*
X010592Y019374D01*
X010678Y019533D02*
X010806Y019533D01*
X010781Y019691D02*
X010701Y019691D01*
X010701Y019850D02*
X010781Y019850D01*
X010781Y020008D02*
X010701Y020008D01*
X010701Y020167D02*
X010781Y020167D01*
X010781Y020325D02*
X010700Y020325D01*
X010656Y020484D02*
X010829Y020484D01*
X010961Y020642D02*
X010537Y020642D01*
X010241Y020642D02*
X010201Y020642D01*
X010201Y020760D02*
X010183Y020760D01*
X010108Y020748D01*
X010036Y020725D01*
X009969Y020691D01*
X009908Y020646D01*
X009855Y020593D01*
X009810Y020532D01*
X009776Y020464D01*
X009753Y020393D01*
X009741Y020318D01*
X009741Y020000D01*
X010201Y020000D01*
X010201Y020760D01*
X010201Y020484D02*
X010241Y020484D01*
X010241Y020325D02*
X010201Y020325D01*
X010201Y020167D02*
X010241Y020167D01*
X010241Y020008D02*
X010201Y020008D01*
X010201Y019850D02*
X010241Y019850D01*
X010241Y019691D02*
X010201Y019691D01*
X010201Y019533D02*
X010241Y019533D01*
X010241Y019374D02*
X010201Y019374D01*
X009850Y019374D02*
X009537Y019374D01*
X009594Y019431D02*
X009470Y019307D01*
X009308Y019240D01*
X009133Y019240D01*
X008972Y019307D01*
X008848Y019431D01*
X008781Y019593D01*
X008781Y020368D01*
X008848Y020529D01*
X008972Y020653D01*
X009133Y020720D01*
X009308Y020720D01*
X009470Y020653D01*
X009594Y020529D01*
X009661Y020368D01*
X009661Y019593D01*
X009594Y019431D01*
X009636Y019533D02*
X009764Y019533D01*
X009741Y019691D02*
X009661Y019691D01*
X009661Y019850D02*
X009741Y019850D01*
X009741Y020008D02*
X009661Y020008D01*
X009661Y020167D02*
X009741Y020167D01*
X009742Y020325D02*
X009661Y020325D01*
X009613Y020484D02*
X009786Y020484D01*
X009904Y020642D02*
X009481Y020642D01*
X008961Y020642D02*
X008481Y020642D01*
X008613Y020484D02*
X008829Y020484D01*
X008781Y020325D02*
X008661Y020325D01*
X008661Y020167D02*
X008781Y020167D01*
X008781Y020008D02*
X008661Y020008D01*
X008661Y019850D02*
X008781Y019850D01*
X008781Y019691D02*
X008661Y019691D01*
X008636Y019533D02*
X008806Y019533D01*
X008905Y019374D02*
X008537Y019374D01*
X012380Y018106D02*
X012811Y018106D01*
X012921Y018106D02*
X015985Y018106D01*
X016144Y017947D02*
X012921Y017947D01*
X012811Y017947D02*
X012491Y017947D01*
X012542Y017789D02*
X012811Y017789D01*
X012921Y017789D02*
X016916Y017789D01*
X016775Y016996D02*
X016775Y016996D01*
X016775Y016837D02*
X016775Y016837D01*
X016775Y016679D02*
X016775Y016679D01*
X017093Y018581D02*
X016330Y018581D01*
X015854Y019057D02*
X017163Y019057D01*
X017191Y019057D02*
X017763Y019057D01*
X017751Y019028D02*
X017751Y018600D01*
X017732Y018581D02*
X017260Y018581D01*
X017539Y018740D02*
X017751Y018740D01*
X017751Y018898D02*
X017628Y018898D01*
X017751Y019028D02*
X017795Y019134D01*
X017876Y019216D01*
X018379Y018898D02*
X018872Y018898D01*
X018714Y019057D02*
X018538Y019057D01*
X019061Y019533D02*
X019148Y019533D01*
X019121Y019691D02*
X019091Y019691D01*
X019066Y019850D02*
X019144Y019850D01*
X019227Y020008D02*
X018973Y020008D01*
X019436Y020167D02*
X017560Y020167D01*
X017612Y020008D02*
X018279Y020008D01*
X018186Y019850D02*
X017604Y019850D01*
X017529Y019691D02*
X018161Y019691D01*
X019217Y019374D02*
X019237Y019374D01*
X013909Y015252D02*
X012921Y015252D01*
X012811Y015252D02*
X005401Y015252D01*
X005401Y015411D02*
X012811Y015411D01*
X012921Y015411D02*
X013750Y015411D01*
X013672Y015569D02*
X013267Y015569D01*
X013373Y015728D02*
X013594Y015728D01*
X013562Y015886D02*
X013402Y015886D01*
X013402Y016045D02*
X013562Y016045D01*
X013562Y016203D02*
X013402Y016203D01*
X013402Y016362D02*
X013562Y016362D01*
X013576Y016520D02*
X013387Y016520D01*
X013307Y016679D02*
X013669Y016679D01*
X012962Y016045D02*
X012961Y016045D01*
X012961Y015886D02*
X012962Y015886D01*
X012961Y015728D02*
X012962Y015728D01*
X012961Y015569D02*
X012962Y015569D01*
X012656Y015569D02*
X005401Y015569D01*
X005401Y015728D02*
X012550Y015728D01*
X012811Y016146D02*
X012811Y016146D01*
X012811Y017630D02*
X012700Y017630D01*
X019540Y014776D02*
X020401Y014776D01*
X020961Y014776D02*
X024726Y014776D01*
X024726Y014618D02*
X023626Y014618D01*
X023730Y014459D02*
X024726Y014459D01*
X024726Y014301D02*
X023759Y014301D01*
X023728Y014142D02*
X024726Y014142D01*
X024726Y013984D02*
X023622Y013984D01*
X014621Y008240D02*
X014621Y007631D01*
X014679Y007490D01*
X014363Y007490D01*
X014421Y007631D01*
X014421Y008240D01*
X014621Y008240D01*
X014621Y008118D02*
X014421Y008118D01*
X014421Y007959D02*
X014621Y007959D01*
X014621Y007800D02*
X014421Y007800D01*
X014421Y007642D02*
X014621Y007642D01*
X013679Y007490D02*
X013363Y007490D01*
X013421Y007631D01*
X013421Y008240D01*
X013621Y008240D01*
X013621Y007631D01*
X013679Y007490D01*
X013621Y007642D02*
X013421Y007642D01*
X013421Y007800D02*
X013621Y007800D01*
X013621Y007959D02*
X013421Y007959D01*
X013421Y008118D02*
X013621Y008118D01*
X012811Y008593D02*
X012190Y008593D01*
X012369Y008435D02*
X012673Y008435D01*
X012621Y008276D02*
X012421Y008276D01*
X012421Y008118D02*
X012621Y008118D01*
X012621Y007959D02*
X012421Y007959D01*
X012421Y007800D02*
X012621Y007800D01*
X012621Y007642D02*
X012421Y007642D01*
X011621Y007642D02*
X011421Y007642D01*
X011421Y007800D02*
X011621Y007800D01*
X011621Y007959D02*
X011421Y007959D01*
X011421Y008118D02*
X011621Y008118D01*
X011621Y008276D02*
X011421Y008276D01*
X011369Y008435D02*
X011673Y008435D01*
X011852Y008593D02*
X011190Y008593D01*
X010621Y007800D02*
X007585Y007800D01*
X007645Y007740D02*
X007515Y007870D01*
X007346Y007940D01*
X007163Y007940D01*
X006994Y007870D01*
X006865Y007740D01*
X006795Y007571D01*
X006795Y007388D01*
X006865Y007219D01*
X006994Y007090D01*
X007163Y007020D01*
X007346Y007020D01*
X007515Y007090D01*
X007645Y007219D01*
X007715Y007388D01*
X007715Y007571D01*
X007645Y007740D01*
X007686Y007642D02*
X010621Y007642D01*
X008856Y007483D02*
X007715Y007483D01*
X007688Y007325D02*
X008761Y007325D01*
X008637Y007166D02*
X007592Y007166D01*
X007536Y006849D02*
X008362Y006849D01*
X008261Y006691D02*
X007665Y006691D01*
X007715Y006532D02*
X008035Y006532D01*
X007961Y006374D02*
X007709Y006374D01*
X007748Y006215D02*
X007640Y006215D01*
X007661Y006056D02*
X007434Y006056D01*
X007530Y005898D02*
X007690Y005898D01*
X007684Y005739D02*
X010321Y005739D01*
X010349Y005581D02*
X007745Y005581D01*
X007752Y005422D02*
X010667Y005422D01*
X010621Y005264D02*
X007706Y005264D01*
X007587Y005105D02*
X010621Y005105D01*
X010621Y004947D02*
X006971Y004947D01*
X006971Y004788D02*
X010621Y004788D01*
X010621Y004630D02*
X007024Y004630D01*
X006551Y004643D02*
X006542Y004633D01*
X006546Y004600D01*
X006459Y004600D01*
X006364Y004561D01*
X006290Y004487D01*
X006251Y004392D01*
X006251Y004288D01*
X006290Y004193D01*
X006364Y004120D01*
X006459Y004080D01*
X006484Y004080D01*
X006534Y004030D01*
X006348Y004030D01*
X005841Y004537D01*
X005841Y005277D01*
X005865Y005219D01*
X005994Y005090D01*
X006163Y005020D01*
X006346Y005020D01*
X006515Y005090D01*
X006551Y005126D01*
X006551Y004643D01*
X006543Y004630D02*
X005841Y004630D01*
X005841Y004788D02*
X006551Y004788D01*
X006551Y004947D02*
X005841Y004947D01*
X005841Y005105D02*
X005979Y005105D01*
X005846Y005264D02*
X005841Y005264D01*
X005847Y005739D02*
X005864Y005739D01*
X006005Y005898D02*
X006062Y005898D01*
X006448Y005898D02*
X006551Y005898D01*
X006551Y006056D02*
X006434Y006056D01*
X006640Y006215D02*
X006693Y006215D01*
X006709Y006374D02*
X006801Y006374D01*
X006795Y006532D02*
X006715Y006532D01*
X006665Y006691D02*
X006844Y006691D01*
X006973Y006849D02*
X006536Y006849D01*
X006592Y007166D02*
X006918Y007166D01*
X006821Y007325D02*
X006688Y007325D01*
X006715Y007483D02*
X006795Y007483D01*
X006824Y007642D02*
X006686Y007642D01*
X006585Y007800D02*
X006925Y007800D01*
X005401Y007008D02*
X008517Y007008D01*
X007263Y005898D02*
X007246Y005898D01*
X007246Y005739D02*
X007263Y005739D01*
X007246Y005581D02*
X007263Y005581D01*
X007246Y005422D02*
X007263Y005422D01*
X007246Y005264D02*
X007263Y005264D01*
X007246Y005105D02*
X007263Y005105D01*
X006551Y005105D02*
X006530Y005105D01*
X006284Y004471D02*
X005907Y004471D01*
X006065Y004312D02*
X006251Y004312D01*
X006224Y004154D02*
X006329Y004154D01*
X006971Y005898D02*
X006979Y005898D01*
X006718Y009703D02*
X005401Y009703D01*
X005401Y009861D02*
X006538Y009861D01*
X006473Y010020D02*
X005401Y010020D01*
X005401Y010179D02*
X006461Y010179D01*
X006496Y010337D02*
X005401Y010337D01*
X005401Y010496D02*
X006595Y010496D01*
X006855Y010654D02*
X005401Y010654D01*
X005401Y010813D02*
X012811Y010813D01*
X012811Y010971D02*
X005401Y010971D01*
X005401Y011130D02*
X012811Y011130D01*
X012811Y011288D02*
X005401Y011288D01*
X013391Y011288D02*
X014111Y011288D01*
X014072Y011447D02*
X013391Y011447D01*
X013391Y011605D02*
X014089Y011605D01*
X014171Y011764D02*
X013391Y011764D01*
X013391Y011130D02*
X014223Y011130D01*
X005410Y001617D02*
X005401Y001617D01*
D27*
X006101Y003450D03*
X006511Y004340D03*
X006091Y004780D03*
X007921Y006020D03*
X008221Y006350D03*
X008521Y006640D03*
X008771Y006940D03*
X009021Y007280D03*
X008651Y007780D03*
X011034Y009201D03*
X011799Y009165D03*
X012574Y009202D03*
X013761Y009550D03*
X013741Y010300D03*
X013741Y011120D03*
X013741Y011980D03*
X013741Y012800D03*
X011991Y012540D03*
X011351Y011770D03*
X008231Y010740D03*
X006681Y013540D03*
X006701Y014780D03*
X013001Y019590D03*
X013001Y020370D03*
X015901Y019710D03*
X017541Y017420D03*
X017951Y015350D03*
X017511Y014300D03*
X017241Y012870D03*
X017281Y011990D03*
X017281Y011220D03*
X017281Y010440D03*
X017281Y009560D03*
X015471Y009400D03*
X015471Y010450D03*
X015471Y011250D03*
X015471Y012050D03*
X015481Y012830D03*
X018591Y012560D03*
X018591Y011440D03*
X019181Y009870D03*
X021021Y009130D03*
X019021Y007220D03*
X018541Y007820D03*
X017531Y007650D03*
X016501Y007630D03*
X015521Y007650D03*
X014511Y007640D03*
X013521Y007640D03*
X014001Y005730D03*
X015511Y005670D03*
X016531Y005330D03*
X020031Y006950D03*
X021011Y006900D03*
X022021Y006900D03*
X023021Y006880D03*
X023611Y007030D03*
X023631Y005990D03*
X023561Y004410D03*
X022521Y004400D03*
X021511Y004390D03*
X020541Y004430D03*
X012151Y003390D03*
X011221Y003550D03*
X010221Y003550D03*
X009981Y003300D03*
X009321Y003050D03*
X010151Y005080D03*
X010581Y005700D03*
X020671Y013350D03*
X021371Y013760D03*
X020671Y015080D03*
X021831Y015880D03*
X022481Y016920D03*
X023801Y016260D03*
X024451Y014310D03*
X024451Y011310D03*
X021041Y020350D03*
D28*
X020318Y019070D02*
X021388Y018001D01*
X020318Y019070D02*
X019111Y019070D01*
X018626Y019555D01*
X018041Y018970D01*
X018041Y018480D01*
X017704Y018144D01*
X017177Y018144D01*
X016357Y018144D01*
X015641Y018860D01*
X008591Y018860D01*
X008221Y019230D01*
X008221Y019980D01*
X007221Y019980D02*
X007221Y018700D01*
X008091Y017830D01*
X006707Y016446D01*
X006637Y016446D01*
X008496Y016451D02*
X009875Y017830D01*
X012091Y017830D01*
X012940Y016980D01*
X014291Y016980D01*
X014962Y016309D01*
X014962Y016146D01*
X013962Y016146D02*
X013962Y015609D01*
X014331Y015240D01*
X016154Y015240D01*
X016775Y015862D01*
X018626Y019555D02*
X018626Y019698D01*
D29*
X017541Y017420D02*
X017951Y017010D01*
X017951Y015350D01*
X018091Y014840D02*
X012291Y014840D01*
X011331Y013880D01*
X011331Y012270D01*
X010991Y011930D01*
X009531Y011930D01*
X009021Y007280D02*
X019021Y007280D01*
X019021Y007220D01*
X018541Y007820D02*
X018541Y008460D01*
X019091Y009010D01*
X019091Y009780D01*
X019181Y009870D01*
X022021Y010950D02*
X022021Y007970D01*
X022021Y006900D02*
X021421Y006350D01*
X008221Y006350D01*
X007921Y006020D02*
X022161Y006020D01*
X023021Y006880D01*
X024021Y007970D02*
X024021Y009240D01*
X024026Y009245D01*
X022021Y010950D02*
X022381Y011310D01*
X023011Y011310D01*
X023019Y011303D01*
X020681Y014392D02*
X020658Y014415D01*
X019236Y014415D01*
X018091Y014840D02*
X019511Y016260D01*
X023801Y016260D01*
X021011Y006900D02*
X020751Y006640D01*
X008521Y006640D01*
X008771Y006940D02*
X009271Y006950D01*
X020031Y006950D01*
X020021Y004970D02*
X020021Y003800D01*
X020571Y003250D01*
X020571Y002300D01*
X021571Y002300D02*
X021581Y002310D01*
X021581Y003120D01*
X021021Y003680D01*
X021021Y004970D01*
X022021Y004970D02*
X022021Y003900D01*
X022561Y003360D01*
X022561Y002310D01*
X022571Y002300D01*
X023571Y002300D02*
X023571Y003270D01*
X023021Y003820D01*
X023021Y004970D01*
X024021Y004970D02*
X024021Y003590D01*
X024511Y003100D01*
X024511Y002305D01*
X024506Y002300D01*
X019571Y002300D02*
X019561Y002310D01*
X019561Y003270D01*
X019021Y003810D01*
X019021Y004970D01*
X015021Y004970D02*
X013871Y003820D01*
X006261Y003820D01*
X005631Y004450D01*
X005631Y005820D01*
X006255Y006444D01*
X006255Y006480D01*
X006761Y005986D02*
X007255Y006480D01*
X006761Y005986D02*
X006761Y004570D01*
X007101Y004300D01*
X012251Y004300D01*
X012991Y004970D01*
X013021Y004970D01*
X013161Y004050D02*
X014021Y004970D01*
X014001Y005730D02*
X010611Y005730D01*
X010581Y005700D01*
X013161Y004050D02*
X006811Y004050D01*
X006521Y004340D01*
X006511Y004340D01*
X009321Y003050D02*
X012761Y003050D01*
X013571Y002300D01*
X012131Y003300D02*
X012151Y003390D01*
X012131Y003300D02*
X009981Y003300D01*
X010221Y003550D02*
X011221Y003550D01*
M02*
