G75*
G70*
%OFA0B0*%
%FSLAX24Y24*%
%IPPOS*%
%LPD*%
%AMOC8*
5,1,8,0,0,1.08239X$1,22.5*
%
%ADD10C,0.0000*%
%ADD11C,0.0520*%
%ADD12C,0.0650*%
%ADD13OC8,0.0660*%
%ADD14C,0.0591*%
%ADD15R,0.1575X0.2126*%
%ADD16OC8,0.0560*%
%ADD17C,0.0560*%
%ADD18C,0.1890*%
%ADD19OC8,0.0520*%
%ADD20C,0.0760*%
%ADD21R,0.0554X0.0554*%
%ADD22C,0.0554*%
%ADD23C,0.0520*%
%ADD24C,0.0640*%
%ADD25C,0.0600*%
%ADD26C,0.0740*%
%ADD27C,0.0160*%
%ADD28C,0.0200*%
%ADD29C,0.0240*%
%ADD30C,0.0300*%
%ADD31C,0.0140*%
D10*
X005221Y001300D02*
X005221Y020985D01*
X024906Y020985D01*
X024906Y001300D01*
X005221Y001300D01*
D11*
X011021Y004710D02*
X011021Y005230D01*
X012021Y005230D02*
X012021Y004710D01*
X013021Y004710D02*
X013021Y005230D01*
X014021Y005230D02*
X014021Y004710D01*
X015021Y004710D02*
X015021Y005230D01*
X016021Y005230D02*
X016021Y004710D01*
X017021Y004710D02*
X017021Y005230D01*
X018021Y005230D02*
X018021Y004710D01*
X019021Y004710D02*
X019021Y005230D01*
X020021Y005230D02*
X020021Y004710D01*
X021021Y004710D02*
X021021Y005230D01*
X022021Y005230D02*
X022021Y004710D01*
X023021Y004710D02*
X023021Y005230D01*
X024021Y005230D02*
X024021Y004710D01*
X024021Y007710D02*
X024021Y008230D01*
X023021Y008230D02*
X023021Y007710D01*
X022021Y007710D02*
X022021Y008230D01*
X021021Y008230D02*
X021021Y007710D01*
X020021Y007710D02*
X020021Y008230D01*
X019021Y008230D02*
X019021Y007710D01*
X018021Y007710D02*
X018021Y008230D01*
X017021Y008230D02*
X017021Y007710D01*
X016021Y007710D02*
X016021Y008230D01*
X015021Y008230D02*
X015021Y007710D01*
X014021Y007710D02*
X014021Y008230D01*
X013021Y008230D02*
X013021Y007710D01*
X012021Y007710D02*
X012021Y008230D01*
X011021Y008230D02*
X011021Y007710D01*
X012962Y015886D02*
X012962Y016406D01*
X013962Y016406D02*
X013962Y015886D01*
X014962Y015886D02*
X014962Y016406D01*
D12*
X018626Y019698D03*
X019626Y019698D03*
X016462Y012488D03*
X016462Y011488D03*
X014537Y011473D03*
X014537Y012473D03*
X018531Y010172D03*
X018531Y009172D03*
X023026Y009245D03*
X024026Y009245D03*
X018503Y004066D03*
X017503Y004066D03*
D13*
X010251Y009013D03*
X006251Y009013D03*
X019236Y013415D03*
X019236Y014415D03*
X020681Y014392D03*
X020681Y010392D03*
D14*
X017177Y018144D03*
X017177Y019049D03*
X017177Y019955D03*
D15*
X014421Y019049D03*
D16*
X016775Y016662D03*
X019122Y018143D03*
X006637Y017246D03*
D17*
X006637Y016446D03*
X016775Y015862D03*
X019122Y017343D03*
D18*
X021388Y018001D03*
X022569Y019851D03*
X023711Y018001D03*
D19*
X012091Y017830D03*
X008091Y017830D03*
D20*
X008496Y016451D03*
X011645Y016451D03*
D21*
X008932Y013581D03*
D22*
X008932Y014565D03*
D23*
X014548Y009910D03*
X016448Y009910D03*
D24*
X007255Y007480D03*
X007255Y006480D03*
X006255Y006480D03*
X006255Y007480D03*
X006255Y005480D03*
X007255Y005480D03*
D25*
X007571Y002600D02*
X007571Y002000D01*
X008571Y002000D02*
X008571Y002600D01*
X009571Y002600D02*
X009571Y002000D01*
X010571Y002000D02*
X010571Y002600D01*
X011571Y002600D02*
X011571Y002000D01*
X012571Y002000D02*
X012571Y002600D01*
X013571Y002600D02*
X013571Y002000D01*
X014571Y002000D02*
X014571Y002600D01*
X015571Y002600D02*
X015571Y002000D01*
X016571Y002000D02*
X016571Y002600D01*
X017571Y002600D02*
X017571Y002000D01*
X018571Y002000D02*
X018571Y002600D01*
X019571Y002600D02*
X019571Y002000D01*
X020571Y002000D02*
X020571Y002600D01*
X021571Y002600D02*
X021571Y002000D01*
X022571Y002000D02*
X022571Y002600D01*
X023571Y002600D02*
X023571Y002000D01*
X024506Y002000D02*
X024506Y002600D01*
X023319Y010303D02*
X022719Y010303D01*
X022719Y011303D02*
X023319Y011303D01*
X023319Y012303D02*
X022719Y012303D01*
X022719Y013303D02*
X023319Y013303D01*
X023319Y014303D02*
X022719Y014303D01*
X022719Y015303D02*
X023319Y015303D01*
X011221Y019680D02*
X011221Y020280D01*
X010221Y020280D02*
X010221Y019680D01*
X009221Y019680D02*
X009221Y020280D01*
X008221Y020280D02*
X008221Y019680D01*
X007221Y019680D02*
X007221Y020280D01*
X006221Y020280D02*
X006221Y019680D01*
X006571Y002600D02*
X006571Y002000D01*
X005636Y002000D02*
X005636Y002600D01*
D26*
X006971Y010150D03*
X009531Y010150D03*
X009531Y011930D03*
X006971Y011930D03*
D27*
X007481Y011923D02*
X009021Y011923D01*
X009021Y011829D02*
X009053Y011750D01*
X008624Y011320D01*
X006724Y011320D01*
X006601Y011197D01*
X006311Y010907D01*
X006041Y011177D01*
X006041Y017883D01*
X006431Y018273D01*
X006431Y018447D01*
X006431Y019291D01*
X006470Y019307D01*
X006594Y019431D01*
X006661Y019593D01*
X006661Y020368D01*
X006594Y020529D01*
X006470Y020653D01*
X006308Y020720D01*
X006133Y020720D01*
X005972Y020653D01*
X005848Y020529D01*
X005781Y020368D01*
X005781Y019593D01*
X005848Y019431D01*
X005972Y019307D01*
X006011Y019291D01*
X006011Y018447D01*
X005744Y018180D01*
X005744Y018180D01*
X005621Y018057D01*
X005621Y011177D01*
X005621Y011003D01*
X006101Y010523D01*
X006101Y009483D01*
X006056Y009483D01*
X005781Y009207D01*
X005781Y008977D01*
X005461Y008657D01*
X005461Y008483D01*
X005461Y005977D01*
X005584Y005854D01*
X005816Y005622D01*
X005795Y005571D01*
X005795Y005388D01*
X005865Y005219D01*
X005994Y005090D01*
X006163Y005020D01*
X006346Y005020D01*
X006515Y005090D01*
X006561Y005136D01*
X006561Y004687D01*
X006474Y004600D01*
X006459Y004600D01*
X006364Y004561D01*
X006290Y004487D01*
X006251Y004392D01*
X006251Y004288D01*
X006290Y004193D01*
X006364Y004120D01*
X006459Y004080D01*
X006562Y004080D01*
X006658Y004120D01*
X006731Y004193D01*
X006771Y004288D01*
X006771Y004303D01*
X006858Y004390D01*
X006981Y004513D01*
X006981Y005061D01*
X006993Y005052D01*
X007063Y005017D01*
X007138Y004992D01*
X007215Y004980D01*
X007246Y004980D01*
X007246Y005471D01*
X007263Y005471D01*
X007263Y004980D01*
X007294Y004980D01*
X007372Y004992D01*
X007447Y005017D01*
X007517Y005052D01*
X007580Y005099D01*
X007636Y005154D01*
X007682Y005218D01*
X007711Y005274D01*
X007711Y004672D01*
X005948Y002910D01*
X005885Y002973D01*
X005723Y003040D01*
X005548Y003040D01*
X005401Y002979D01*
X005401Y020805D01*
X012821Y020805D01*
X012821Y018397D01*
X012551Y018667D01*
X012551Y019593D01*
X012551Y019767D01*
X012251Y020067D01*
X012128Y020190D01*
X011661Y020190D01*
X011661Y020368D01*
X011594Y020529D01*
X011470Y020653D01*
X011308Y020720D01*
X011133Y020720D01*
X010972Y020653D01*
X010848Y020529D01*
X010781Y020368D01*
X010781Y019593D01*
X010848Y019431D01*
X010972Y019307D01*
X011133Y019240D01*
X011308Y019240D01*
X011470Y019307D01*
X011594Y019431D01*
X011661Y019593D01*
X011661Y019770D01*
X011954Y019770D01*
X012131Y019593D01*
X012131Y018493D01*
X012254Y018370D01*
X012821Y017803D01*
X012821Y017310D01*
X012157Y017310D01*
X012050Y017266D01*
X011969Y017184D01*
X011753Y016969D01*
X011749Y016971D01*
X011542Y016971D01*
X011537Y016969D01*
X009511Y018995D01*
X009511Y019348D01*
X009594Y019431D01*
X009661Y019593D01*
X009661Y020368D01*
X009594Y020529D01*
X009470Y020653D01*
X009308Y020720D01*
X009133Y020720D01*
X008972Y020653D01*
X008848Y020529D01*
X008781Y020368D01*
X008781Y019593D01*
X008848Y019431D01*
X008931Y019348D01*
X008931Y018933D01*
X008931Y018818D01*
X008975Y018711D01*
X011127Y016559D01*
X011125Y016554D01*
X011125Y016347D01*
X011204Y016156D01*
X011341Y016020D01*
X011341Y015440D01*
X010005Y014105D01*
X009961Y013998D01*
X009961Y013883D01*
X009961Y012221D01*
X009820Y012362D01*
X009632Y012440D01*
X009429Y012440D01*
X009242Y012362D01*
X009098Y012219D01*
X009021Y012032D01*
X009021Y011829D01*
X009048Y011764D02*
X007454Y011764D01*
X007481Y011829D02*
X007403Y011641D01*
X007260Y011498D01*
X007072Y011420D01*
X006869Y011420D01*
X006682Y011498D01*
X006538Y011641D01*
X006461Y011829D01*
X006461Y012032D01*
X006538Y012219D01*
X006682Y012362D01*
X006869Y012440D01*
X007072Y012440D01*
X007260Y012362D01*
X007403Y012219D01*
X007481Y012032D01*
X007481Y011829D01*
X007367Y011605D02*
X008909Y011605D01*
X008751Y011447D02*
X007137Y011447D01*
X006805Y011447D02*
X006041Y011447D01*
X006041Y011605D02*
X006574Y011605D01*
X006488Y011764D02*
X006041Y011764D01*
X006041Y011923D02*
X006461Y011923D01*
X006481Y012081D02*
X006041Y012081D01*
X006041Y012240D02*
X006559Y012240D01*
X006768Y012398D02*
X006041Y012398D01*
X006041Y012557D02*
X009961Y012557D01*
X009961Y012715D02*
X006041Y012715D01*
X006041Y012874D02*
X009961Y012874D01*
X009961Y013032D02*
X006041Y013032D01*
X006041Y013191D02*
X008513Y013191D01*
X008511Y013193D02*
X008545Y013160D01*
X008586Y013136D01*
X008631Y013124D01*
X008924Y013124D01*
X008924Y013572D01*
X008941Y013572D01*
X008941Y013124D01*
X009233Y013124D01*
X009279Y013136D01*
X009320Y013160D01*
X009353Y013193D01*
X009377Y013234D01*
X009389Y013280D01*
X009389Y013572D01*
X008941Y013572D01*
X008941Y013590D01*
X008924Y013590D01*
X008924Y014038D01*
X008631Y014038D01*
X008586Y014026D01*
X008545Y014002D01*
X008511Y013969D01*
X008487Y013928D01*
X008475Y013882D01*
X008475Y013590D01*
X008923Y013590D01*
X008923Y013572D01*
X008475Y013572D01*
X008475Y013280D01*
X008487Y013234D01*
X008511Y013193D01*
X008475Y013349D02*
X006041Y013349D01*
X006041Y013508D02*
X008475Y013508D01*
X008475Y013667D02*
X006041Y013667D01*
X006041Y013825D02*
X008475Y013825D01*
X008526Y013984D02*
X006041Y013984D01*
X006041Y014142D02*
X010043Y014142D01*
X009961Y013984D02*
X009338Y013984D01*
X009353Y013969D02*
X009320Y014002D01*
X009279Y014026D01*
X009233Y014038D01*
X008941Y014038D01*
X008941Y013590D01*
X009389Y013590D01*
X009389Y013882D01*
X009377Y013928D01*
X009353Y013969D01*
X009389Y013825D02*
X009961Y013825D01*
X009961Y013667D02*
X009389Y013667D01*
X009389Y013508D02*
X009961Y013508D01*
X009961Y013349D02*
X009389Y013349D01*
X009351Y013191D02*
X009961Y013191D01*
X010541Y013191D02*
X012821Y013191D01*
X012821Y013349D02*
X010541Y013349D01*
X010541Y013508D02*
X012821Y013508D01*
X012821Y013667D02*
X010541Y013667D01*
X010541Y013820D02*
X011795Y015074D01*
X011877Y015156D01*
X011921Y015262D01*
X011921Y016002D01*
X011940Y016010D01*
X012086Y016156D01*
X012165Y016347D01*
X012165Y016554D01*
X012163Y016559D01*
X012335Y016730D01*
X012663Y016730D01*
X012626Y016693D01*
X012585Y016637D01*
X012554Y016575D01*
X012532Y016509D01*
X012522Y016441D01*
X012522Y016146D01*
X012522Y015851D01*
X012532Y015783D01*
X012554Y015717D01*
X012585Y015656D01*
X012626Y015599D01*
X012675Y015551D01*
X012731Y015510D01*
X012793Y015478D01*
X012821Y015469D01*
X012821Y008580D01*
X012794Y008569D01*
X012682Y008457D01*
X012621Y008310D01*
X012621Y007947D01*
X012421Y007747D01*
X012421Y008310D01*
X012360Y008457D01*
X012247Y008569D01*
X012100Y008630D01*
X011941Y008630D01*
X011794Y008569D01*
X011682Y008457D01*
X011621Y008310D01*
X011621Y007857D01*
X011421Y007657D01*
X011421Y008310D01*
X011360Y008457D01*
X011247Y008569D01*
X011100Y008630D01*
X010941Y008630D01*
X010794Y008569D01*
X010682Y008457D01*
X010621Y008310D01*
X010621Y008180D01*
X009878Y008180D01*
X009704Y008180D01*
X009204Y007680D01*
X009081Y007557D01*
X009081Y007537D01*
X009072Y007540D01*
X008969Y007540D01*
X008874Y007501D01*
X008800Y007427D01*
X008761Y007332D01*
X008761Y007228D01*
X008773Y007200D01*
X008719Y007200D01*
X008624Y007161D01*
X008550Y007087D01*
X008511Y006992D01*
X008511Y006900D01*
X008469Y006900D01*
X008374Y006861D01*
X008300Y006787D01*
X008261Y006692D01*
X008261Y006610D01*
X008169Y006610D01*
X008074Y006571D01*
X008000Y006497D01*
X007961Y006402D01*
X007961Y006298D01*
X007968Y006280D01*
X007869Y006280D01*
X007774Y006241D01*
X007700Y006167D01*
X007661Y006072D01*
X007661Y005968D01*
X007700Y005873D01*
X007711Y005862D01*
X007711Y005686D01*
X007682Y005742D01*
X007636Y005806D01*
X007580Y005861D01*
X007517Y005908D01*
X007447Y005943D01*
X007372Y005968D01*
X007294Y005980D01*
X007263Y005980D01*
X007263Y005489D01*
X007246Y005489D01*
X007246Y005980D01*
X007215Y005980D01*
X007138Y005968D01*
X007063Y005943D01*
X006993Y005908D01*
X006981Y005899D01*
X006981Y006103D01*
X006994Y006090D01*
X007163Y006020D01*
X007346Y006020D01*
X007515Y006090D01*
X007645Y006219D01*
X007715Y006388D01*
X007715Y006571D01*
X007645Y006740D01*
X007515Y006870D01*
X007346Y006940D01*
X007163Y006940D01*
X006994Y006870D01*
X006981Y006856D01*
X006981Y006933D01*
X006981Y007103D01*
X006994Y007090D01*
X007163Y007020D01*
X007346Y007020D01*
X007515Y007090D01*
X007615Y007190D01*
X007628Y007190D01*
X007735Y007234D01*
X009231Y008730D01*
X009869Y008730D01*
X010056Y008543D01*
X010446Y008543D01*
X010721Y008818D01*
X010721Y009207D01*
X010541Y009387D01*
X010541Y013820D01*
X010546Y013825D02*
X012821Y013825D01*
X012851Y013900D02*
X012851Y015459D01*
X012859Y015457D01*
X012927Y015446D01*
X012961Y015446D01*
X012961Y016146D01*
X012962Y016146D01*
X012962Y016146D01*
X013402Y016146D01*
X013402Y015851D01*
X013391Y015783D01*
X013369Y015717D01*
X013338Y015656D01*
X013297Y015599D01*
X013248Y015551D01*
X013192Y015510D01*
X013130Y015478D01*
X013065Y015457D01*
X012996Y015446D01*
X012962Y015446D01*
X012962Y016146D01*
X013402Y016146D01*
X013402Y016441D01*
X013391Y016509D01*
X013369Y016575D01*
X013338Y016637D01*
X013297Y016693D01*
X013260Y016730D01*
X013481Y016730D01*
X013609Y016601D01*
X013562Y016486D01*
X013562Y015807D01*
X013622Y015660D01*
X013735Y015547D01*
X013882Y015486D01*
X014041Y015486D01*
X014188Y015547D01*
X014301Y015660D01*
X014362Y015807D01*
X014362Y016486D01*
X014301Y016633D01*
X014261Y016673D01*
X014261Y016708D01*
X014217Y016814D01*
X014135Y016896D01*
X013821Y017210D01*
X017383Y017210D01*
X017394Y017200D01*
X017489Y017160D01*
X017592Y017160D01*
X017688Y017200D01*
X017761Y017273D01*
X017801Y017368D01*
X017801Y017472D01*
X017761Y017567D01*
X017688Y017641D01*
X017592Y017680D01*
X017489Y017680D01*
X017394Y017641D01*
X017383Y017630D01*
X013588Y017630D01*
X012851Y018367D01*
X012851Y020805D01*
X021973Y020805D01*
X021917Y020770D01*
X021818Y020691D01*
X021729Y020602D01*
X021650Y020503D01*
X021583Y020396D01*
X021528Y020282D01*
X021486Y020163D01*
X021458Y020040D01*
X021446Y019931D01*
X022489Y019931D01*
X022489Y019771D01*
X022649Y019771D01*
X022649Y018728D01*
X022758Y018741D01*
X022881Y018769D01*
X022891Y018772D01*
X022870Y018752D01*
X022792Y018653D01*
X022724Y018546D01*
X022670Y018432D01*
X022628Y018313D01*
X022600Y018190D01*
X022588Y018081D01*
X023630Y018081D01*
X023630Y017921D01*
X022588Y017921D01*
X022600Y017812D01*
X022628Y017689D01*
X022670Y017570D01*
X022724Y017456D01*
X022792Y017349D01*
X022870Y017250D01*
X022960Y017161D01*
X023059Y017082D01*
X023166Y017015D01*
X023279Y016960D01*
X023399Y016918D01*
X023522Y016890D01*
X023631Y016878D01*
X023631Y017921D01*
X023790Y017921D01*
X023790Y016878D01*
X023899Y016890D01*
X024022Y016918D01*
X024142Y016960D01*
X024256Y017015D01*
X024362Y017082D01*
X024461Y017161D01*
X024551Y017250D01*
X024629Y017349D01*
X024697Y017456D01*
X024726Y017517D01*
X024726Y002985D01*
X024593Y003040D01*
X024418Y003040D01*
X024257Y002973D01*
X024133Y002849D01*
X024066Y002688D01*
X024066Y001913D01*
X024133Y001751D01*
X024257Y001627D01*
X024418Y001560D01*
X024593Y001560D01*
X024726Y001615D01*
X024726Y001480D01*
X005401Y001480D01*
X005401Y001621D01*
X005548Y001560D01*
X005723Y001560D01*
X005885Y001627D01*
X006009Y001751D01*
X006076Y001913D01*
X006076Y002443D01*
X006131Y002498D01*
X006131Y001913D01*
X006198Y001751D01*
X006322Y001627D01*
X006483Y001560D01*
X006658Y001560D01*
X006820Y001627D01*
X006944Y001751D01*
X007011Y001913D01*
X007011Y002443D01*
X007131Y002563D01*
X007131Y001913D01*
X007198Y001751D01*
X007322Y001627D01*
X007483Y001560D01*
X007658Y001560D01*
X007820Y001627D01*
X007944Y001751D01*
X008011Y001913D01*
X008011Y002443D01*
X008131Y002563D01*
X008131Y001913D01*
X008198Y001751D01*
X008322Y001627D01*
X008483Y001560D01*
X008658Y001560D01*
X008820Y001627D01*
X008944Y001751D01*
X009011Y001913D01*
X009011Y002563D01*
X009131Y002443D01*
X009131Y001913D01*
X009198Y001751D01*
X009322Y001627D01*
X009483Y001560D01*
X009658Y001560D01*
X009820Y001627D01*
X009944Y001751D01*
X010011Y001913D01*
X010011Y002688D01*
X009944Y002849D01*
X009820Y002973D01*
X009658Y003040D01*
X009581Y003040D01*
X009581Y003102D01*
X009566Y003138D01*
X009614Y003090D01*
X009823Y003090D01*
X009834Y003080D01*
X009929Y003040D01*
X010032Y003040D01*
X010128Y003080D01*
X010201Y003153D01*
X010241Y003248D01*
X010241Y003290D01*
X010272Y003290D01*
X010368Y003330D01*
X010371Y003333D01*
X010371Y002994D01*
X010322Y002973D01*
X010198Y002849D01*
X010131Y002688D01*
X010131Y001913D01*
X010198Y001751D01*
X010322Y001627D01*
X010483Y001560D01*
X010658Y001560D01*
X010820Y001627D01*
X010944Y001751D01*
X011011Y001913D01*
X011011Y002688D01*
X010944Y002849D01*
X010820Y002973D01*
X010791Y002985D01*
X010791Y004375D01*
X010794Y004371D01*
X010941Y004310D01*
X011100Y004310D01*
X011247Y004371D01*
X011285Y004409D01*
X012060Y003634D01*
X012004Y003611D01*
X011930Y003537D01*
X011891Y003442D01*
X011891Y003338D01*
X011930Y003243D01*
X011941Y003232D01*
X011941Y002852D01*
X011820Y002973D01*
X011791Y002985D01*
X011791Y003103D01*
X011791Y003277D01*
X011481Y003587D01*
X011481Y003602D01*
X011441Y003697D01*
X011368Y003771D01*
X011272Y003810D01*
X011169Y003810D01*
X011074Y003771D01*
X011000Y003697D01*
X010961Y003602D01*
X010961Y003498D01*
X011000Y003403D01*
X011074Y003330D01*
X011169Y003290D01*
X011184Y003290D01*
X011371Y003103D01*
X011371Y002994D01*
X011322Y002973D01*
X011198Y002849D01*
X011131Y002688D01*
X011131Y001913D01*
X011198Y001751D01*
X011322Y001627D01*
X011483Y001560D01*
X011658Y001560D01*
X011820Y001627D01*
X011944Y001751D01*
X012011Y001913D01*
X012011Y002563D01*
X012131Y002443D01*
X012131Y001913D01*
X012198Y001751D01*
X012322Y001627D01*
X012483Y001560D01*
X012658Y001560D01*
X012820Y001627D01*
X012944Y001751D01*
X013011Y001913D01*
X013011Y002688D01*
X012944Y002849D01*
X012893Y002900D01*
X013249Y002900D01*
X013198Y002849D01*
X013131Y002688D01*
X013131Y001913D01*
X013198Y001751D01*
X013322Y001627D01*
X013483Y001560D01*
X013658Y001560D01*
X013820Y001627D01*
X013944Y001751D01*
X014011Y001913D01*
X014011Y002688D01*
X013944Y002849D01*
X013893Y002900D01*
X014249Y002900D01*
X014198Y002849D01*
X014131Y002688D01*
X014131Y001913D01*
X014198Y001751D01*
X014322Y001627D01*
X014483Y001560D01*
X014658Y001560D01*
X014820Y001627D01*
X014944Y001751D01*
X015011Y001913D01*
X015011Y002688D01*
X014944Y002849D01*
X014820Y002973D01*
X014781Y002989D01*
X014781Y003160D01*
X015294Y003160D01*
X015361Y003093D01*
X015361Y002989D01*
X015322Y002973D01*
X015198Y002849D01*
X015131Y002688D01*
X015131Y001913D01*
X015198Y001751D01*
X015322Y001627D01*
X015483Y001560D01*
X015658Y001560D01*
X015820Y001627D01*
X015944Y001751D01*
X016011Y001913D01*
X016011Y002688D01*
X015944Y002849D01*
X015820Y002973D01*
X015781Y002989D01*
X015781Y003267D01*
X015658Y003390D01*
X015638Y003410D01*
X016074Y003410D01*
X016361Y003123D01*
X016361Y002989D01*
X016322Y002973D01*
X016198Y002849D01*
X016131Y002688D01*
X016131Y001913D01*
X016198Y001751D01*
X016322Y001627D01*
X016483Y001560D01*
X016658Y001560D01*
X016820Y001627D01*
X016944Y001751D01*
X017011Y001913D01*
X017011Y002688D01*
X016944Y002849D01*
X016820Y002973D01*
X016781Y002989D01*
X016781Y003133D01*
X017159Y002755D01*
X017131Y002688D01*
X017131Y001913D01*
X017198Y001751D01*
X017322Y001627D01*
X017483Y001560D01*
X017658Y001560D01*
X017820Y001627D01*
X017944Y001751D01*
X018011Y001913D01*
X018011Y002688D01*
X017944Y002849D01*
X017820Y002973D01*
X017658Y003040D01*
X017483Y003040D01*
X017472Y003036D01*
X017438Y003070D01*
X018044Y003070D01*
X018231Y002883D01*
X018198Y002849D01*
X018131Y002688D01*
X018131Y001913D01*
X018198Y001751D01*
X018322Y001627D01*
X018483Y001560D01*
X018658Y001560D01*
X018820Y001627D01*
X018944Y001751D01*
X019011Y001913D01*
X019011Y002688D01*
X018944Y002849D01*
X018855Y002938D01*
X019741Y003823D01*
X019741Y003997D01*
X019741Y004425D01*
X019794Y004371D01*
X019941Y004310D01*
X020100Y004310D01*
X020247Y004371D01*
X020360Y004484D01*
X020421Y004631D01*
X020421Y005310D01*
X020360Y005457D01*
X020247Y005569D01*
X020100Y005630D01*
X019941Y005630D01*
X019794Y005569D01*
X019741Y005516D01*
X019741Y007425D01*
X019794Y007371D01*
X019811Y007364D01*
X019811Y007098D01*
X019810Y007097D01*
X019771Y007002D01*
X019771Y006898D01*
X019810Y006803D01*
X019884Y006730D01*
X019884Y006729D01*
X019885Y006728D01*
X019894Y006725D01*
X019919Y006715D01*
X019934Y006700D01*
X019955Y006700D01*
X019979Y006690D01*
X020035Y006690D01*
X020054Y006685D01*
X020062Y006690D01*
X020082Y006690D01*
X020107Y006700D01*
X020108Y006700D01*
X020109Y006701D01*
X020178Y006730D01*
X020251Y006803D01*
X020291Y006898D01*
X020291Y007002D01*
X020251Y007097D01*
X020231Y007118D01*
X020231Y007364D01*
X020247Y007371D01*
X020360Y007484D01*
X020421Y007631D01*
X020421Y008310D01*
X020360Y008457D01*
X020247Y008569D01*
X020100Y008630D01*
X019941Y008630D01*
X019794Y008569D01*
X019741Y008516D01*
X019741Y008733D01*
X020891Y009884D01*
X020891Y009937D01*
X021151Y010197D01*
X021151Y010586D01*
X020876Y010862D01*
X020487Y010862D01*
X020211Y010586D01*
X020211Y010197D01*
X020411Y009997D01*
X019929Y009515D01*
X019961Y009592D01*
X019961Y011800D01*
X020231Y012070D01*
X020918Y012070D01*
X021025Y012114D01*
X021107Y012196D01*
X021251Y012340D01*
X021251Y012213D01*
X021251Y009683D01*
X021374Y009560D01*
X022622Y008312D01*
X022621Y008310D01*
X022621Y007631D01*
X022682Y007484D01*
X022794Y007371D01*
X022811Y007364D01*
X022811Y007038D01*
X022800Y007027D01*
X022761Y006932D01*
X022761Y006828D01*
X022800Y006733D01*
X022874Y006660D01*
X022969Y006620D01*
X023072Y006620D01*
X023168Y006660D01*
X023241Y006733D01*
X023281Y006828D01*
X023281Y006932D01*
X023241Y007027D01*
X023231Y007038D01*
X023231Y007364D01*
X023247Y007371D01*
X023360Y007484D01*
X023421Y007631D01*
X023421Y008310D01*
X023360Y008457D01*
X023247Y008569D01*
X023100Y008630D01*
X022941Y008630D01*
X022910Y008617D01*
X021671Y009857D01*
X021671Y012090D01*
X022331Y012090D01*
X022346Y012054D01*
X022469Y011930D01*
X022631Y011863D01*
X023406Y011863D01*
X023568Y011930D01*
X023692Y012054D01*
X023759Y012215D01*
X023759Y012390D01*
X023692Y012552D01*
X023568Y012676D01*
X023406Y012743D01*
X022631Y012743D01*
X022469Y012676D01*
X022346Y012552D01*
X022328Y012510D01*
X021421Y012510D01*
X021924Y013013D01*
X022386Y013013D01*
X022469Y012930D01*
X022631Y012863D01*
X023406Y012863D01*
X023568Y012930D01*
X023692Y013054D01*
X023759Y013215D01*
X023759Y013390D01*
X023692Y013552D01*
X023568Y013676D01*
X023406Y013743D01*
X022631Y013743D01*
X022469Y013676D01*
X022386Y013593D01*
X022111Y013593D01*
X022111Y015042D01*
X022111Y015158D01*
X022067Y015264D01*
X021657Y015674D01*
X021657Y015674D01*
X021575Y015756D01*
X021468Y015800D01*
X019561Y015800D01*
X019412Y015949D01*
X019412Y017039D01*
X019478Y017105D01*
X019542Y017259D01*
X019542Y017427D01*
X019478Y017581D01*
X019360Y017699D01*
X019338Y017708D01*
X019582Y017952D01*
X019582Y018143D01*
X019582Y018334D01*
X019312Y018603D01*
X019122Y018603D01*
X019122Y018143D01*
X019582Y018143D01*
X019122Y018143D01*
X019122Y018143D01*
X019122Y018143D01*
X019122Y018603D01*
X018931Y018603D01*
X018662Y018334D01*
X018662Y018143D01*
X019121Y018143D01*
X019121Y018143D01*
X018662Y018143D01*
X018662Y017952D01*
X018906Y017708D01*
X018884Y017699D01*
X018848Y017663D01*
X018621Y017890D01*
X018621Y018859D01*
X018577Y018965D01*
X018495Y019047D01*
X017612Y019930D01*
X017612Y020041D01*
X017546Y020201D01*
X017423Y020324D01*
X017263Y020390D01*
X017090Y020390D01*
X016930Y020324D01*
X016808Y020201D01*
X016742Y020041D01*
X016742Y019868D01*
X016808Y019708D01*
X016930Y019586D01*
X017090Y019520D01*
X017108Y019520D01*
X017066Y019513D01*
X016994Y019490D01*
X016928Y019456D01*
X016867Y019412D01*
X016814Y019359D01*
X016770Y019298D01*
X016736Y019232D01*
X016713Y019161D01*
X016702Y019087D01*
X016702Y019063D01*
X017163Y019063D01*
X017163Y019036D01*
X016702Y019036D01*
X016702Y019012D01*
X016713Y018938D01*
X016736Y018867D01*
X016770Y018800D01*
X016814Y018740D01*
X015388Y018740D01*
X015388Y018898D02*
X016726Y018898D01*
X016814Y018740D02*
X016867Y018687D01*
X016928Y018643D01*
X016994Y018609D01*
X017066Y018586D01*
X017108Y018579D01*
X017090Y018579D01*
X016930Y018513D01*
X016808Y018390D01*
X016742Y018230D01*
X016742Y018057D01*
X016808Y017897D01*
X016930Y017775D01*
X017090Y017709D01*
X017263Y017709D01*
X017423Y017775D01*
X017546Y017897D01*
X017612Y018057D01*
X017612Y018230D01*
X017546Y018390D01*
X017423Y018513D01*
X017263Y018579D01*
X017246Y018579D01*
X017288Y018586D01*
X017359Y018609D01*
X017426Y018643D01*
X017486Y018687D01*
X017539Y018740D01*
X017583Y018800D01*
X017617Y018867D01*
X017640Y018938D01*
X017652Y019012D01*
X017652Y019036D01*
X017191Y019036D01*
X017191Y019063D01*
X017652Y019063D01*
X017652Y019070D01*
X018041Y018681D01*
X018041Y017828D01*
X018041Y017712D01*
X018085Y017606D01*
X018512Y017179D01*
X018594Y017097D01*
X018700Y017053D01*
X018818Y017053D01*
X018832Y017039D01*
X018832Y016152D01*
X017079Y016152D01*
X017013Y016218D01*
X016991Y016227D01*
X017235Y016471D01*
X017235Y016661D01*
X016775Y016661D01*
X016775Y016662D01*
X016775Y016662D01*
X016775Y017122D01*
X016965Y017122D01*
X017235Y016852D01*
X017235Y016662D01*
X016775Y016662D01*
X016775Y017122D01*
X016584Y017122D01*
X016315Y016852D01*
X016315Y016662D01*
X016775Y016662D01*
X016775Y016661D01*
X016315Y016661D01*
X016315Y016471D01*
X016559Y016227D01*
X016537Y016218D01*
X016419Y016099D01*
X016355Y015945D01*
X016355Y015778D01*
X016419Y015624D01*
X016537Y015506D01*
X016691Y015442D01*
X016859Y015442D01*
X017013Y015506D01*
X017079Y015572D01*
X017806Y015572D01*
X017804Y015571D01*
X017730Y015497D01*
X017691Y015402D01*
X017691Y015298D01*
X017730Y015203D01*
X017804Y015130D01*
X017899Y015090D01*
X017914Y015090D01*
X018184Y014820D01*
X018358Y014820D01*
X018976Y014820D01*
X018766Y014610D01*
X018766Y014221D01*
X019041Y013945D01*
X019431Y013945D01*
X019706Y014221D01*
X019706Y014508D01*
X019751Y014463D01*
X019751Y013147D01*
X018971Y012367D01*
X018971Y012193D01*
X018971Y010422D01*
X018963Y010437D01*
X018917Y010501D01*
X018860Y010557D01*
X018796Y010604D01*
X018725Y010640D01*
X018650Y010665D01*
X018571Y010677D01*
X018532Y010677D01*
X018532Y010173D01*
X018531Y010173D01*
X018531Y010677D01*
X018492Y010677D01*
X018413Y010665D01*
X018338Y010640D01*
X018267Y010604D01*
X018202Y010557D01*
X018146Y010501D01*
X018100Y010437D01*
X018064Y010366D01*
X018061Y010357D01*
X018061Y013900D01*
X012851Y013900D01*
X012851Y013984D02*
X019003Y013984D01*
X019025Y013925D02*
X018726Y013627D01*
X018726Y013416D01*
X019236Y013416D01*
X019236Y013416D01*
X019236Y013925D01*
X019447Y013925D01*
X019746Y013627D01*
X019746Y013416D01*
X019236Y013416D01*
X019236Y013925D01*
X019025Y013925D01*
X018924Y013825D02*
X018061Y013825D01*
X018061Y013667D02*
X018766Y013667D01*
X018726Y013508D02*
X018061Y013508D01*
X018061Y013349D02*
X018726Y013349D01*
X018726Y013415D02*
X018726Y013204D01*
X019025Y012905D01*
X019236Y012905D01*
X019447Y012905D01*
X019746Y013204D01*
X019746Y013415D01*
X019236Y013415D01*
X019236Y012905D01*
X019236Y013415D01*
X019236Y013415D01*
X019236Y013416D01*
X019236Y013415D01*
X018726Y013415D01*
X018739Y013191D02*
X018061Y013191D01*
X018061Y013032D02*
X018898Y013032D01*
X019236Y013032D02*
X019236Y013032D01*
X019236Y013191D02*
X019236Y013191D01*
X019236Y013349D02*
X019236Y013349D01*
X019236Y013508D02*
X019236Y013508D01*
X019236Y013667D02*
X019236Y013667D01*
X019236Y013825D02*
X019236Y013825D01*
X019469Y013984D02*
X019751Y013984D01*
X019751Y014142D02*
X019627Y014142D01*
X019706Y014301D02*
X019751Y014301D01*
X019751Y014459D02*
X019706Y014459D01*
X020032Y014776D02*
X020401Y014776D01*
X020487Y014862D02*
X020211Y014586D01*
X020211Y014197D01*
X020487Y013922D01*
X020876Y013922D01*
X021151Y014197D01*
X021151Y014586D01*
X020876Y014862D01*
X020487Y014862D01*
X020243Y014618D02*
X020171Y014618D01*
X020171Y014637D02*
X019691Y015117D01*
X019588Y015220D01*
X021291Y015220D01*
X021531Y014980D01*
X021531Y013440D01*
X020741Y012650D01*
X020053Y012650D01*
X019946Y012606D01*
X019865Y012524D01*
X019425Y012084D01*
X019391Y012002D01*
X019391Y012193D01*
X020048Y012850D01*
X020171Y012973D01*
X020171Y014463D01*
X020171Y014637D01*
X020171Y014459D02*
X020211Y014459D01*
X020211Y014301D02*
X020171Y014301D01*
X020171Y014142D02*
X020266Y014142D01*
X020171Y013984D02*
X020425Y013984D01*
X020171Y013825D02*
X021531Y013825D01*
X021531Y013667D02*
X020171Y013667D01*
X020171Y013508D02*
X021531Y013508D01*
X021440Y013349D02*
X020171Y013349D01*
X020171Y013191D02*
X021281Y013191D01*
X021123Y013032D02*
X020171Y013032D01*
X020071Y012874D02*
X020964Y012874D01*
X020806Y012715D02*
X019913Y012715D01*
X019897Y012557D02*
X019754Y012557D01*
X019739Y012398D02*
X019596Y012398D01*
X019580Y012240D02*
X019437Y012240D01*
X019424Y012081D02*
X019391Y012081D01*
X018971Y012081D02*
X018061Y012081D01*
X018061Y011923D02*
X018971Y011923D01*
X018971Y011764D02*
X018061Y011764D01*
X018061Y011605D02*
X018971Y011605D01*
X018971Y011447D02*
X018061Y011447D01*
X018061Y011288D02*
X018971Y011288D01*
X018971Y011130D02*
X018061Y011130D01*
X018061Y010971D02*
X018971Y010971D01*
X018971Y010813D02*
X018061Y010813D01*
X018061Y010654D02*
X018381Y010654D01*
X018531Y010654D02*
X018532Y010654D01*
X018682Y010654D02*
X018971Y010654D01*
X018971Y010496D02*
X018921Y010496D01*
X018532Y010496D02*
X018531Y010496D01*
X018531Y010337D02*
X018532Y010337D01*
X018531Y010179D02*
X018532Y010179D01*
X018532Y010172D02*
X018532Y009667D01*
X018571Y009667D01*
X018650Y009680D01*
X018725Y009704D01*
X018796Y009740D01*
X018860Y009787D01*
X018917Y009843D01*
X018921Y009849D01*
X018921Y009818D01*
X018960Y009723D01*
X019034Y009650D01*
X019129Y009610D01*
X019221Y009610D01*
X019073Y009462D01*
X018899Y009462D01*
X018795Y009566D01*
X018624Y009637D01*
X018439Y009637D01*
X018268Y009566D01*
X018137Y009436D01*
X018066Y009265D01*
X018066Y009080D01*
X018137Y008909D01*
X018241Y008805D01*
X018241Y008601D01*
X018221Y008580D01*
X018100Y008630D01*
X018061Y008630D01*
X018061Y009987D01*
X018064Y009978D01*
X018100Y009907D01*
X018146Y009843D01*
X018202Y009787D01*
X018267Y009740D01*
X018338Y009704D01*
X018413Y009680D01*
X018492Y009667D01*
X018531Y009667D01*
X018531Y010172D01*
X018532Y010172D01*
X018531Y010020D02*
X018532Y010020D01*
X018531Y009861D02*
X018532Y009861D01*
X018531Y009703D02*
X018532Y009703D01*
X018722Y009703D02*
X018980Y009703D01*
X018817Y009544D02*
X019155Y009544D01*
X018341Y009703D02*
X018061Y009703D01*
X018061Y009861D02*
X018133Y009861D01*
X018061Y009544D02*
X018246Y009544D01*
X018117Y009386D02*
X018061Y009386D01*
X018061Y009227D02*
X018066Y009227D01*
X018061Y009069D02*
X018071Y009069D01*
X018061Y008910D02*
X018137Y008910D01*
X018061Y008752D02*
X018241Y008752D01*
X018234Y008593D02*
X018190Y008593D01*
X017621Y008240D02*
X017621Y007631D01*
X017682Y007484D01*
X017708Y007457D01*
X015838Y005587D01*
X015794Y005569D01*
X015682Y005457D01*
X015621Y005310D01*
X015621Y004667D01*
X015421Y004867D01*
X015421Y005310D01*
X015360Y005457D01*
X015247Y005569D01*
X015100Y005630D01*
X014941Y005630D01*
X014794Y005569D01*
X014682Y005457D01*
X014621Y005310D01*
X014621Y004667D01*
X014421Y004867D01*
X014421Y005310D01*
X014360Y005457D01*
X014247Y005569D01*
X014219Y005581D01*
X014221Y005583D01*
X014261Y005678D01*
X014261Y005782D01*
X014231Y005854D01*
X014231Y007364D01*
X014247Y007371D01*
X014360Y007484D01*
X014421Y007631D01*
X014421Y008240D01*
X014621Y008240D01*
X014621Y007631D01*
X014682Y007484D01*
X014794Y007371D01*
X014941Y007310D01*
X015100Y007310D01*
X015247Y007371D01*
X015360Y007484D01*
X015421Y007631D01*
X015421Y008240D01*
X015621Y008240D01*
X015621Y007631D01*
X015682Y007484D01*
X015794Y007371D01*
X015941Y007310D01*
X016100Y007310D01*
X016247Y007371D01*
X016360Y007484D01*
X016421Y007631D01*
X016421Y008240D01*
X016581Y008240D01*
X016581Y007970D01*
X016581Y007676D01*
X016592Y007607D01*
X016613Y007541D01*
X016644Y007480D01*
X016685Y007424D01*
X016734Y007375D01*
X016790Y007334D01*
X016852Y007302D01*
X016918Y007281D01*
X016986Y007270D01*
X017021Y007270D01*
X017055Y007270D01*
X017124Y007281D01*
X017190Y007302D01*
X017251Y007334D01*
X017307Y007375D01*
X017356Y007424D01*
X017397Y007480D01*
X017429Y007541D01*
X017450Y007607D01*
X017461Y007676D01*
X017461Y007970D01*
X017021Y007970D01*
X017021Y007970D01*
X017021Y007270D01*
X017021Y007970D01*
X017021Y007970D01*
X017461Y007970D01*
X017461Y008240D01*
X017621Y008240D01*
X017621Y008118D02*
X017461Y008118D01*
X017461Y007959D02*
X017621Y007959D01*
X017621Y007800D02*
X017461Y007800D01*
X017455Y007642D02*
X017621Y007642D01*
X017682Y007483D02*
X017399Y007483D01*
X017234Y007325D02*
X017575Y007325D01*
X017417Y007166D02*
X014231Y007166D01*
X014231Y007008D02*
X017258Y007008D01*
X017100Y006849D02*
X014231Y006849D01*
X014231Y006691D02*
X016941Y006691D01*
X016783Y006532D02*
X014231Y006532D01*
X014231Y006374D02*
X016624Y006374D01*
X016466Y006215D02*
X014231Y006215D01*
X014231Y006056D02*
X016307Y006056D01*
X016148Y005898D02*
X014231Y005898D01*
X014261Y005739D02*
X015990Y005739D01*
X015822Y005581D02*
X015219Y005581D01*
X015374Y005422D02*
X015667Y005422D01*
X015621Y005264D02*
X015421Y005264D01*
X015421Y005105D02*
X015621Y005105D01*
X015621Y004947D02*
X015421Y004947D01*
X015500Y004788D02*
X015621Y004788D01*
X016266Y004390D02*
X016360Y004484D01*
X016421Y004631D01*
X016421Y005310D01*
X016409Y005338D01*
X016811Y005740D01*
X016811Y005603D01*
X016811Y005576D01*
X016794Y005569D01*
X016682Y005457D01*
X016621Y005310D01*
X016621Y004631D01*
X016682Y004484D01*
X016794Y004371D01*
X016941Y004310D01*
X017100Y004310D01*
X017101Y004310D01*
X017038Y004158D01*
X017038Y003973D01*
X017047Y003950D01*
X016608Y004390D01*
X016434Y004390D01*
X016266Y004390D01*
X016347Y004471D02*
X016694Y004471D01*
X016685Y004312D02*
X016936Y004312D01*
X016844Y004154D02*
X017038Y004154D01*
X017038Y003995D02*
X017002Y003995D01*
X017181Y003730D02*
X017239Y003672D01*
X017410Y003601D01*
X017595Y003601D01*
X017766Y003672D01*
X017897Y003802D01*
X017968Y003973D01*
X017968Y004158D01*
X017917Y004281D01*
X017918Y004281D01*
X017986Y004270D01*
X018021Y004270D01*
X018040Y004270D01*
X018035Y004260D01*
X018010Y004184D01*
X017998Y004105D01*
X017998Y004066D01*
X018502Y004066D01*
X018502Y004066D01*
X017998Y004066D01*
X017998Y004026D01*
X018010Y003947D01*
X018035Y003872D01*
X018071Y003801D01*
X018118Y003737D01*
X018174Y003681D01*
X018238Y003634D01*
X018309Y003598D01*
X018385Y003573D01*
X018463Y003561D01*
X018503Y003561D01*
X018543Y003561D01*
X018621Y003573D01*
X018697Y003598D01*
X018768Y003634D01*
X018832Y003681D01*
X018888Y003737D01*
X018935Y003801D01*
X018971Y003872D01*
X018995Y003947D01*
X019008Y004026D01*
X019008Y004066D01*
X019008Y004105D01*
X018995Y004184D01*
X018971Y004260D01*
X018945Y004310D01*
X019100Y004310D01*
X019247Y004371D01*
X019321Y004445D01*
X019321Y003997D01*
X018516Y003192D01*
X018218Y003490D01*
X018044Y003490D01*
X017388Y003490D01*
X017181Y003697D01*
X017181Y003730D01*
X017200Y003678D02*
X017233Y003678D01*
X017358Y003520D02*
X018843Y003520D01*
X018829Y003678D02*
X019002Y003678D01*
X018953Y003837D02*
X019161Y003837D01*
X019003Y003995D02*
X019319Y003995D01*
X019321Y004154D02*
X019000Y004154D01*
X019008Y004066D02*
X018503Y004066D01*
X018503Y004066D01*
X018503Y004571D01*
X018543Y004571D01*
X018621Y004558D01*
X018655Y004547D01*
X018621Y004631D01*
X018621Y005310D01*
X018682Y005457D01*
X018794Y005569D01*
X018941Y005630D01*
X019100Y005630D01*
X019247Y005569D01*
X019321Y005496D01*
X019321Y007445D01*
X019247Y007371D01*
X019240Y007368D01*
X019241Y007367D01*
X019281Y007272D01*
X019281Y007168D01*
X019241Y007073D01*
X019168Y007000D01*
X019072Y006960D01*
X018969Y006960D01*
X018874Y007000D01*
X018800Y007073D01*
X018761Y007168D01*
X018761Y007272D01*
X018800Y007367D01*
X018801Y007368D01*
X018794Y007371D01*
X018751Y007415D01*
X018751Y007123D01*
X018628Y007000D01*
X017231Y005603D01*
X017231Y005576D01*
X017247Y005569D01*
X017360Y005457D01*
X017421Y005310D01*
X017421Y004867D01*
X017581Y004707D01*
X017581Y004970D01*
X018020Y004970D01*
X018020Y004970D01*
X017581Y004970D01*
X017581Y005265D01*
X017592Y005333D01*
X017613Y005399D01*
X017644Y005461D01*
X017685Y005517D01*
X017734Y005566D01*
X017790Y005606D01*
X017852Y005638D01*
X017918Y005659D01*
X017986Y005670D01*
X018021Y005670D01*
X018021Y004971D01*
X018021Y004971D01*
X018021Y005670D01*
X018055Y005670D01*
X018124Y005659D01*
X018190Y005638D01*
X018251Y005606D01*
X018307Y005566D01*
X018356Y005517D01*
X018397Y005461D01*
X018429Y005399D01*
X018450Y005333D01*
X018461Y005265D01*
X018461Y004970D01*
X018021Y004970D01*
X018021Y004970D01*
X018021Y004270D01*
X018021Y004970D01*
X018021Y004970D01*
X018461Y004970D01*
X018461Y004676D01*
X018450Y004607D01*
X018437Y004566D01*
X018463Y004571D01*
X018503Y004571D01*
X018503Y004066D01*
X018503Y004066D01*
X019008Y004066D01*
X019106Y004312D02*
X019321Y004312D01*
X019741Y004312D02*
X019936Y004312D01*
X020106Y004312D02*
X020936Y004312D01*
X020941Y004310D02*
X021100Y004310D01*
X021247Y004371D01*
X021360Y004484D01*
X021421Y004631D01*
X021421Y005310D01*
X021360Y005457D01*
X021247Y005569D01*
X021100Y005630D01*
X020941Y005630D01*
X020794Y005569D01*
X020682Y005457D01*
X020621Y005310D01*
X020621Y004631D01*
X020682Y004484D01*
X020794Y004371D01*
X020941Y004310D01*
X021106Y004312D02*
X021936Y004312D01*
X021941Y004310D02*
X022100Y004310D01*
X022247Y004371D01*
X022360Y004484D01*
X022421Y004631D01*
X022421Y005310D01*
X022360Y005457D01*
X022247Y005569D01*
X022100Y005630D01*
X021941Y005630D01*
X021794Y005569D01*
X021682Y005457D01*
X021621Y005310D01*
X021621Y004631D01*
X021682Y004484D01*
X021794Y004371D01*
X021941Y004310D01*
X022106Y004312D02*
X022936Y004312D01*
X022941Y004310D02*
X023100Y004310D01*
X023247Y004371D01*
X023360Y004484D01*
X023421Y004631D01*
X023421Y005310D01*
X023360Y005457D01*
X023247Y005569D01*
X023100Y005630D01*
X022941Y005630D01*
X022794Y005569D01*
X022682Y005457D01*
X022621Y005310D01*
X022621Y004631D01*
X022682Y004484D01*
X022794Y004371D01*
X022941Y004310D01*
X023106Y004312D02*
X023936Y004312D01*
X023941Y004310D02*
X024100Y004310D01*
X024247Y004371D01*
X024360Y004484D01*
X024421Y004631D01*
X024421Y005310D01*
X024360Y005457D01*
X024247Y005569D01*
X024100Y005630D01*
X023941Y005630D01*
X023794Y005569D01*
X023682Y005457D01*
X023621Y005310D01*
X023621Y004631D01*
X023682Y004484D01*
X023794Y004371D01*
X023941Y004310D01*
X024106Y004312D02*
X024726Y004312D01*
X024726Y004154D02*
X019741Y004154D01*
X019741Y003995D02*
X024726Y003995D01*
X024726Y003837D02*
X019741Y003837D01*
X019596Y003678D02*
X024726Y003678D01*
X024726Y003520D02*
X019437Y003520D01*
X019279Y003361D02*
X024726Y003361D01*
X024726Y003203D02*
X019120Y003203D01*
X018962Y003044D02*
X024726Y003044D01*
X024169Y002886D02*
X023908Y002886D01*
X023944Y002849D02*
X023820Y002973D01*
X023658Y003040D01*
X023483Y003040D01*
X023322Y002973D01*
X023198Y002849D01*
X023131Y002688D01*
X023131Y001913D01*
X023198Y001751D01*
X023322Y001627D01*
X023483Y001560D01*
X023658Y001560D01*
X023820Y001627D01*
X023944Y001751D01*
X024011Y001913D01*
X024011Y002688D01*
X023944Y002849D01*
X023994Y002727D02*
X024082Y002727D01*
X024066Y002569D02*
X024011Y002569D01*
X024011Y002410D02*
X024066Y002410D01*
X024066Y002251D02*
X024011Y002251D01*
X024011Y002093D02*
X024066Y002093D01*
X024066Y001934D02*
X024011Y001934D01*
X023954Y001776D02*
X024122Y001776D01*
X024280Y001617D02*
X023796Y001617D01*
X023345Y001617D02*
X022796Y001617D01*
X022820Y001627D02*
X022944Y001751D01*
X023011Y001913D01*
X023011Y002688D01*
X022944Y002849D01*
X022820Y002973D01*
X022658Y003040D01*
X022483Y003040D01*
X022322Y002973D01*
X022198Y002849D01*
X022131Y002688D01*
X022131Y001913D01*
X022198Y001751D01*
X022322Y001627D01*
X022483Y001560D01*
X022658Y001560D01*
X022820Y001627D01*
X022954Y001776D02*
X023187Y001776D01*
X023131Y001934D02*
X023011Y001934D01*
X023011Y002093D02*
X023131Y002093D01*
X023131Y002251D02*
X023011Y002251D01*
X023011Y002410D02*
X023131Y002410D01*
X023131Y002569D02*
X023011Y002569D01*
X022994Y002727D02*
X023147Y002727D01*
X023234Y002886D02*
X022908Y002886D01*
X022234Y002886D02*
X021908Y002886D01*
X021944Y002849D02*
X021820Y002973D01*
X021658Y003040D01*
X021483Y003040D01*
X021322Y002973D01*
X021198Y002849D01*
X021131Y002688D01*
X021131Y001913D01*
X021198Y001751D01*
X021322Y001627D01*
X021483Y001560D01*
X021658Y001560D01*
X021820Y001627D01*
X021944Y001751D01*
X022011Y001913D01*
X022011Y002688D01*
X021944Y002849D01*
X021994Y002727D02*
X022147Y002727D01*
X022131Y002569D02*
X022011Y002569D01*
X022011Y002410D02*
X022131Y002410D01*
X022131Y002251D02*
X022011Y002251D01*
X022011Y002093D02*
X022131Y002093D01*
X022131Y001934D02*
X022011Y001934D01*
X021954Y001776D02*
X022187Y001776D01*
X022345Y001617D02*
X021796Y001617D01*
X021345Y001617D02*
X020796Y001617D01*
X020820Y001627D02*
X020944Y001751D01*
X021011Y001913D01*
X021011Y002688D01*
X020944Y002849D01*
X020820Y002973D01*
X020658Y003040D01*
X020483Y003040D01*
X020322Y002973D01*
X020198Y002849D01*
X020131Y002688D01*
X020131Y001913D01*
X020198Y001751D01*
X020322Y001627D01*
X020483Y001560D01*
X020658Y001560D01*
X020820Y001627D01*
X020954Y001776D02*
X021187Y001776D01*
X021131Y001934D02*
X021011Y001934D01*
X021011Y002093D02*
X021131Y002093D01*
X021131Y002251D02*
X021011Y002251D01*
X021011Y002410D02*
X021131Y002410D01*
X021131Y002569D02*
X021011Y002569D01*
X020994Y002727D02*
X021147Y002727D01*
X021234Y002886D02*
X020908Y002886D01*
X020234Y002886D02*
X019908Y002886D01*
X019944Y002849D02*
X019820Y002973D01*
X019658Y003040D01*
X019483Y003040D01*
X019322Y002973D01*
X019198Y002849D01*
X019131Y002688D01*
X019131Y001913D01*
X019198Y001751D01*
X019322Y001627D01*
X019483Y001560D01*
X019658Y001560D01*
X019820Y001627D01*
X019944Y001751D01*
X020011Y001913D01*
X020011Y002688D01*
X019944Y002849D01*
X019994Y002727D02*
X020147Y002727D01*
X020131Y002569D02*
X020011Y002569D01*
X020011Y002410D02*
X020131Y002410D01*
X020131Y002251D02*
X020011Y002251D01*
X020011Y002093D02*
X020131Y002093D01*
X020131Y001934D02*
X020011Y001934D01*
X019954Y001776D02*
X020187Y001776D01*
X020345Y001617D02*
X019796Y001617D01*
X019345Y001617D02*
X018796Y001617D01*
X018954Y001776D02*
X019187Y001776D01*
X019131Y001934D02*
X019011Y001934D01*
X019011Y002093D02*
X019131Y002093D01*
X019131Y002251D02*
X019011Y002251D01*
X019011Y002410D02*
X019131Y002410D01*
X019131Y002569D02*
X019011Y002569D01*
X018994Y002727D02*
X019147Y002727D01*
X019234Y002886D02*
X018908Y002886D01*
X018526Y003203D02*
X018505Y003203D01*
X018347Y003361D02*
X018685Y003361D01*
X018503Y003561D02*
X018503Y004065D01*
X018503Y004065D01*
X018503Y003561D01*
X018503Y003678D02*
X018503Y003678D01*
X018503Y003837D02*
X018503Y003837D01*
X018503Y003995D02*
X018503Y003995D01*
X018503Y004154D02*
X018503Y004154D01*
X018503Y004312D02*
X018503Y004312D01*
X018503Y004471D02*
X018503Y004471D01*
X018453Y004630D02*
X018621Y004630D01*
X018621Y004788D02*
X018461Y004788D01*
X018461Y004947D02*
X018621Y004947D01*
X018621Y005105D02*
X018461Y005105D01*
X018461Y005264D02*
X018621Y005264D01*
X018667Y005422D02*
X018417Y005422D01*
X018287Y005581D02*
X018822Y005581D01*
X019219Y005581D02*
X019321Y005581D01*
X019321Y005739D02*
X017367Y005739D01*
X017231Y005581D02*
X017755Y005581D01*
X017625Y005422D02*
X017374Y005422D01*
X017421Y005264D02*
X017581Y005264D01*
X017581Y005105D02*
X017421Y005105D01*
X017421Y004947D02*
X017581Y004947D01*
X017581Y004788D02*
X017500Y004788D01*
X018021Y004788D02*
X018021Y004788D01*
X018021Y004630D02*
X018021Y004630D01*
X018021Y004471D02*
X018021Y004471D01*
X018021Y004312D02*
X018021Y004312D01*
X018006Y004154D02*
X017968Y004154D01*
X017968Y003995D02*
X018003Y003995D01*
X018053Y003837D02*
X017911Y003837D01*
X017773Y003678D02*
X018177Y003678D01*
X018070Y003044D02*
X017464Y003044D01*
X017147Y002727D02*
X016994Y002727D01*
X017011Y002569D02*
X017131Y002569D01*
X017131Y002410D02*
X017011Y002410D01*
X017011Y002251D02*
X017131Y002251D01*
X017131Y002093D02*
X017011Y002093D01*
X017011Y001934D02*
X017131Y001934D01*
X017187Y001776D02*
X016954Y001776D01*
X016796Y001617D02*
X017345Y001617D01*
X017796Y001617D02*
X018345Y001617D01*
X018187Y001776D02*
X017954Y001776D01*
X018011Y001934D02*
X018131Y001934D01*
X018131Y002093D02*
X018011Y002093D01*
X018011Y002251D02*
X018131Y002251D01*
X018131Y002410D02*
X018011Y002410D01*
X018011Y002569D02*
X018131Y002569D01*
X018147Y002727D02*
X017994Y002727D01*
X017908Y002886D02*
X018228Y002886D01*
X017028Y002886D02*
X016908Y002886D01*
X016870Y003044D02*
X016781Y003044D01*
X016361Y003044D02*
X015781Y003044D01*
X015781Y003203D02*
X016281Y003203D01*
X016123Y003361D02*
X015687Y003361D01*
X015361Y003044D02*
X014781Y003044D01*
X014908Y002886D02*
X015234Y002886D01*
X015147Y002727D02*
X014994Y002727D01*
X015011Y002569D02*
X015131Y002569D01*
X015131Y002410D02*
X015011Y002410D01*
X015011Y002251D02*
X015131Y002251D01*
X015131Y002093D02*
X015011Y002093D01*
X015011Y001934D02*
X015131Y001934D01*
X015187Y001776D02*
X014954Y001776D01*
X014796Y001617D02*
X015345Y001617D01*
X015796Y001617D02*
X016345Y001617D01*
X016187Y001776D02*
X015954Y001776D01*
X016011Y001934D02*
X016131Y001934D01*
X016131Y002093D02*
X016011Y002093D01*
X016011Y002251D02*
X016131Y002251D01*
X016131Y002410D02*
X016011Y002410D01*
X016011Y002569D02*
X016131Y002569D01*
X016147Y002727D02*
X015994Y002727D01*
X015908Y002886D02*
X016234Y002886D01*
X016420Y004630D02*
X016621Y004630D01*
X016621Y004788D02*
X016421Y004788D01*
X016421Y004947D02*
X016621Y004947D01*
X016621Y005105D02*
X016421Y005105D01*
X016421Y005264D02*
X016621Y005264D01*
X016667Y005422D02*
X016493Y005422D01*
X016652Y005581D02*
X016811Y005581D01*
X016810Y005739D02*
X016811Y005739D01*
X017526Y005898D02*
X019321Y005898D01*
X019321Y006056D02*
X017684Y006056D01*
X017843Y006215D02*
X019321Y006215D01*
X019321Y006374D02*
X018001Y006374D01*
X018160Y006532D02*
X019321Y006532D01*
X019321Y006691D02*
X018318Y006691D01*
X018477Y006849D02*
X019321Y006849D01*
X019321Y007008D02*
X019176Y007008D01*
X019280Y007166D02*
X019321Y007166D01*
X019321Y007325D02*
X019259Y007325D01*
X019741Y007325D02*
X019811Y007325D01*
X019811Y007166D02*
X019741Y007166D01*
X019741Y007008D02*
X019773Y007008D01*
X019791Y006849D02*
X019741Y006849D01*
X019741Y006691D02*
X019978Y006691D01*
X020084Y006691D02*
X020853Y006691D01*
X020864Y006680D02*
X020959Y006640D01*
X021062Y006640D01*
X021158Y006680D01*
X021231Y006753D01*
X021271Y006848D01*
X021271Y006952D01*
X021231Y007047D01*
X021221Y007058D01*
X021221Y007360D01*
X021247Y007371D01*
X021360Y007484D01*
X021421Y007631D01*
X021421Y008310D01*
X021360Y008457D01*
X021247Y008569D01*
X021100Y008630D01*
X020941Y008630D01*
X020794Y008569D01*
X020682Y008457D01*
X020621Y008310D01*
X020621Y007631D01*
X020682Y007484D01*
X020794Y007371D01*
X020801Y007368D01*
X020801Y007058D01*
X020790Y007047D01*
X020751Y006952D01*
X020751Y006848D01*
X020790Y006753D01*
X020864Y006680D01*
X020751Y006849D02*
X020270Y006849D01*
X020288Y007008D02*
X020774Y007008D01*
X020801Y007166D02*
X020231Y007166D01*
X020231Y007325D02*
X020801Y007325D01*
X020682Y007483D02*
X020360Y007483D01*
X020421Y007642D02*
X020621Y007642D01*
X020621Y007800D02*
X020421Y007800D01*
X020421Y007959D02*
X020621Y007959D01*
X020621Y008118D02*
X020421Y008118D01*
X020421Y008276D02*
X020621Y008276D01*
X020673Y008435D02*
X020369Y008435D01*
X020190Y008593D02*
X020852Y008593D01*
X021190Y008593D02*
X021852Y008593D01*
X021794Y008569D02*
X021682Y008457D01*
X021621Y008310D01*
X021621Y007631D01*
X021682Y007484D01*
X021794Y007371D01*
X021811Y007364D01*
X021811Y007058D01*
X021800Y007047D01*
X021761Y006952D01*
X021761Y006848D01*
X021800Y006753D01*
X021874Y006680D01*
X021969Y006640D01*
X022072Y006640D01*
X022168Y006680D01*
X022241Y006753D01*
X022281Y006848D01*
X022281Y006952D01*
X022241Y007047D01*
X022231Y007058D01*
X022231Y007364D01*
X022247Y007371D01*
X022360Y007484D01*
X022421Y007631D01*
X022421Y008310D01*
X022360Y008457D01*
X022247Y008569D01*
X022100Y008630D01*
X021941Y008630D01*
X021794Y008569D01*
X021673Y008435D02*
X021369Y008435D01*
X021421Y008276D02*
X021621Y008276D01*
X021621Y008118D02*
X021421Y008118D01*
X021421Y007959D02*
X021621Y007959D01*
X021621Y007800D02*
X021421Y007800D01*
X021421Y007642D02*
X021621Y007642D01*
X021682Y007483D02*
X021360Y007483D01*
X021221Y007325D02*
X021811Y007325D01*
X021811Y007166D02*
X021221Y007166D01*
X021248Y007008D02*
X021784Y007008D01*
X021761Y006849D02*
X021271Y006849D01*
X021169Y006691D02*
X021863Y006691D01*
X022179Y006691D02*
X022843Y006691D01*
X022761Y006849D02*
X022281Y006849D01*
X022258Y007008D02*
X022792Y007008D01*
X022811Y007166D02*
X022231Y007166D01*
X022231Y007325D02*
X022811Y007325D01*
X022682Y007483D02*
X022360Y007483D01*
X022421Y007642D02*
X022621Y007642D01*
X022621Y007800D02*
X022421Y007800D01*
X022421Y007959D02*
X022621Y007959D01*
X022621Y008118D02*
X022421Y008118D01*
X022421Y008276D02*
X022621Y008276D01*
X022499Y008435D02*
X022369Y008435D01*
X022341Y008593D02*
X022190Y008593D01*
X022182Y008752D02*
X019759Y008752D01*
X019741Y008593D02*
X019852Y008593D01*
X019918Y008910D02*
X022024Y008910D01*
X021865Y009069D02*
X020076Y009069D01*
X020235Y009227D02*
X021707Y009227D01*
X021548Y009386D02*
X020393Y009386D01*
X020552Y009544D02*
X021390Y009544D01*
X021251Y009703D02*
X020711Y009703D01*
X020869Y009861D02*
X021251Y009861D01*
X021251Y010020D02*
X020974Y010020D01*
X021133Y010179D02*
X021251Y010179D01*
X021251Y010337D02*
X021151Y010337D01*
X021151Y010496D02*
X021251Y010496D01*
X021251Y010654D02*
X021084Y010654D01*
X020925Y010813D02*
X021251Y010813D01*
X021251Y010971D02*
X019961Y010971D01*
X019961Y010813D02*
X020438Y010813D01*
X020279Y010654D02*
X019961Y010654D01*
X019961Y010496D02*
X020211Y010496D01*
X020211Y010337D02*
X019961Y010337D01*
X019961Y010179D02*
X020230Y010179D01*
X020389Y010020D02*
X019961Y010020D01*
X019961Y009861D02*
X020275Y009861D01*
X020117Y009703D02*
X019961Y009703D01*
X019958Y009544D02*
X019941Y009544D01*
X021671Y009861D02*
X022816Y009861D01*
X022816Y009863D02*
X022816Y009661D01*
X022763Y009639D01*
X022632Y009509D01*
X022561Y009338D01*
X022561Y009153D01*
X022632Y008982D01*
X022763Y008851D01*
X022933Y008780D01*
X023118Y008780D01*
X023289Y008851D01*
X023420Y008982D01*
X023491Y009153D01*
X023491Y009338D01*
X023420Y009509D01*
X023289Y009639D01*
X023236Y009661D01*
X023236Y009863D01*
X023406Y009863D01*
X023568Y009930D01*
X023692Y010054D01*
X023759Y010215D01*
X023759Y010390D01*
X023692Y010552D01*
X023568Y010676D01*
X023406Y010743D01*
X022631Y010743D01*
X022469Y010676D01*
X022346Y010552D01*
X022279Y010390D01*
X022279Y010215D01*
X022346Y010054D01*
X022469Y009930D01*
X022631Y009863D01*
X022816Y009863D01*
X022816Y009703D02*
X021825Y009703D01*
X021983Y009544D02*
X022668Y009544D01*
X022581Y009386D02*
X022142Y009386D01*
X022301Y009227D02*
X022561Y009227D01*
X022596Y009069D02*
X022459Y009069D01*
X022618Y008910D02*
X022703Y008910D01*
X022776Y008752D02*
X024726Y008752D01*
X024726Y008910D02*
X024349Y008910D01*
X024289Y008851D02*
X024420Y008982D01*
X024491Y009153D01*
X024491Y009338D01*
X024420Y009509D01*
X024289Y009639D01*
X024236Y009661D01*
X024236Y015948D01*
X024236Y016122D01*
X024061Y016297D01*
X024061Y016312D01*
X024021Y016407D01*
X023948Y016481D01*
X023852Y016520D01*
X023749Y016520D01*
X023654Y016481D01*
X023580Y016407D01*
X023541Y016312D01*
X023541Y016208D01*
X023580Y016113D01*
X023654Y016040D01*
X023749Y016000D01*
X023764Y016000D01*
X023816Y015948D01*
X023816Y009661D01*
X023763Y009639D01*
X023632Y009509D01*
X023561Y009338D01*
X023561Y009153D01*
X023632Y008982D01*
X023763Y008851D01*
X023933Y008780D01*
X024118Y008780D01*
X024289Y008851D01*
X024456Y009069D02*
X024726Y009069D01*
X024726Y009227D02*
X024491Y009227D01*
X024471Y009386D02*
X024726Y009386D01*
X024726Y009544D02*
X024384Y009544D01*
X024236Y009703D02*
X024726Y009703D01*
X024726Y009861D02*
X024236Y009861D01*
X024236Y010020D02*
X024726Y010020D01*
X024726Y010179D02*
X024236Y010179D01*
X024236Y010337D02*
X024726Y010337D01*
X024726Y010496D02*
X024236Y010496D01*
X024236Y010654D02*
X024726Y010654D01*
X024726Y010813D02*
X024236Y010813D01*
X024236Y010971D02*
X024726Y010971D01*
X024726Y011130D02*
X024236Y011130D01*
X024236Y011288D02*
X024726Y011288D01*
X024726Y011447D02*
X024236Y011447D01*
X024236Y011605D02*
X024726Y011605D01*
X024726Y011764D02*
X024236Y011764D01*
X024236Y011923D02*
X024726Y011923D01*
X024726Y012081D02*
X024236Y012081D01*
X024236Y012240D02*
X024726Y012240D01*
X024726Y012398D02*
X024236Y012398D01*
X024236Y012557D02*
X024726Y012557D01*
X024726Y012715D02*
X024236Y012715D01*
X024236Y012874D02*
X024726Y012874D01*
X024726Y013032D02*
X024236Y013032D01*
X024236Y013191D02*
X024726Y013191D01*
X024726Y013349D02*
X024236Y013349D01*
X024236Y013508D02*
X024726Y013508D01*
X024726Y013667D02*
X024236Y013667D01*
X024236Y013825D02*
X024726Y013825D01*
X024726Y013984D02*
X024236Y013984D01*
X024236Y014142D02*
X024726Y014142D01*
X024726Y014301D02*
X024236Y014301D01*
X024236Y014459D02*
X024726Y014459D01*
X024726Y014618D02*
X024236Y014618D01*
X024236Y014776D02*
X024726Y014776D01*
X024726Y014935D02*
X024236Y014935D01*
X024236Y015093D02*
X024726Y015093D01*
X024726Y015252D02*
X024236Y015252D01*
X024236Y015411D02*
X024726Y015411D01*
X024726Y015569D02*
X024236Y015569D01*
X024236Y015728D02*
X024726Y015728D01*
X024726Y015886D02*
X024236Y015886D01*
X024236Y016045D02*
X024726Y016045D01*
X024726Y016203D02*
X024155Y016203D01*
X024040Y016362D02*
X024726Y016362D01*
X024726Y016520D02*
X019412Y016520D01*
X019412Y016362D02*
X023561Y016362D01*
X023543Y016203D02*
X019412Y016203D01*
X019412Y016045D02*
X023649Y016045D01*
X023816Y015886D02*
X019475Y015886D01*
X018832Y016203D02*
X017027Y016203D01*
X017126Y016362D02*
X018832Y016362D01*
X018832Y016520D02*
X017235Y016520D01*
X017235Y016679D02*
X018832Y016679D01*
X018832Y016837D02*
X017235Y016837D01*
X017091Y016996D02*
X018832Y016996D01*
X018536Y017154D02*
X013877Y017154D01*
X014035Y016996D02*
X016459Y016996D01*
X016315Y016837D02*
X014194Y016837D01*
X014261Y016679D02*
X014669Y016679D01*
X014622Y016633D02*
X014562Y016486D01*
X014562Y015807D01*
X014622Y015660D01*
X014735Y015547D01*
X014882Y015486D01*
X015041Y015486D01*
X015188Y015547D01*
X015301Y015660D01*
X015362Y015807D01*
X015362Y016486D01*
X015301Y016633D01*
X015188Y016745D01*
X015041Y016806D01*
X014882Y016806D01*
X014735Y016745D01*
X014622Y016633D01*
X014576Y016520D02*
X014347Y016520D01*
X014362Y016362D02*
X014562Y016362D01*
X014562Y016203D02*
X014362Y016203D01*
X014362Y016045D02*
X014562Y016045D01*
X014562Y015886D02*
X014362Y015886D01*
X014329Y015728D02*
X014594Y015728D01*
X014713Y015569D02*
X014210Y015569D01*
X013713Y015569D02*
X013267Y015569D01*
X013373Y015728D02*
X013594Y015728D01*
X013562Y015886D02*
X013402Y015886D01*
X013402Y016045D02*
X013562Y016045D01*
X013562Y016203D02*
X013402Y016203D01*
X013402Y016362D02*
X013562Y016362D01*
X013576Y016520D02*
X013387Y016520D01*
X013307Y016679D02*
X013532Y016679D01*
X012962Y016045D02*
X012961Y016045D01*
X012961Y015886D02*
X012962Y015886D01*
X012961Y015728D02*
X012962Y015728D01*
X012961Y015569D02*
X012962Y015569D01*
X012851Y015411D02*
X017694Y015411D01*
X017710Y015252D02*
X012851Y015252D01*
X012821Y015252D02*
X011916Y015252D01*
X011921Y015411D02*
X012821Y015411D01*
X012656Y015569D02*
X011921Y015569D01*
X011921Y015728D02*
X012550Y015728D01*
X012522Y015886D02*
X011921Y015886D01*
X011975Y016045D02*
X012522Y016045D01*
X012522Y016146D02*
X012821Y016146D01*
X012821Y016146D01*
X012522Y016146D01*
X012522Y016203D02*
X012106Y016203D01*
X012165Y016362D02*
X012522Y016362D01*
X012536Y016520D02*
X012165Y016520D01*
X012283Y016679D02*
X012616Y016679D01*
X012821Y017313D02*
X011193Y017313D01*
X011035Y017472D02*
X011883Y017472D01*
X011925Y017430D02*
X011691Y017664D01*
X011691Y017995D01*
X011925Y018230D01*
X012256Y018230D01*
X012491Y017995D01*
X012491Y017664D01*
X012256Y017430D01*
X011925Y017430D01*
X011939Y017154D02*
X011352Y017154D01*
X011510Y016996D02*
X011780Y016996D01*
X011125Y016520D02*
X009016Y016520D01*
X009016Y016554D02*
X008936Y016745D01*
X008790Y016892D01*
X008599Y016971D01*
X008392Y016971D01*
X008201Y016892D01*
X008055Y016745D01*
X007976Y016554D01*
X007976Y016347D01*
X008055Y016156D01*
X008201Y016010D01*
X008392Y015931D01*
X008599Y015931D01*
X008790Y016010D01*
X008936Y016156D01*
X009016Y016347D01*
X009016Y016554D01*
X008964Y016679D02*
X011007Y016679D01*
X010849Y016837D02*
X008844Y016837D01*
X009016Y016362D02*
X011125Y016362D01*
X011185Y016203D02*
X008956Y016203D01*
X008825Y016045D02*
X011316Y016045D01*
X011341Y015886D02*
X007606Y015886D01*
X007448Y016045D02*
X008166Y016045D01*
X008035Y016203D02*
X007289Y016203D01*
X007131Y016362D02*
X007976Y016362D01*
X007976Y016520D02*
X007056Y016520D01*
X007056Y016529D02*
X006993Y016684D01*
X006874Y016802D01*
X006852Y016811D01*
X007096Y017055D01*
X007096Y017246D01*
X007096Y017436D01*
X006827Y017706D01*
X006637Y017706D01*
X006637Y017246D01*
X007096Y017246D01*
X006637Y017246D01*
X006637Y017246D01*
X006636Y017246D01*
X006636Y017246D01*
X006177Y017246D01*
X006177Y017436D01*
X006446Y017706D01*
X006636Y017706D01*
X006636Y017246D01*
X006177Y017246D01*
X006177Y017055D01*
X006421Y016811D01*
X006399Y016802D01*
X006280Y016684D01*
X006217Y016529D01*
X006217Y016362D01*
X006041Y016362D01*
X006041Y016520D02*
X006217Y016520D01*
X006217Y016362D02*
X006280Y016208D01*
X006399Y016090D01*
X006553Y016026D01*
X006646Y016026D01*
X008353Y014319D01*
X008459Y014275D01*
X008575Y014275D01*
X008632Y014275D01*
X008696Y014212D01*
X008849Y014148D01*
X009015Y014148D01*
X009169Y014212D01*
X009286Y014329D01*
X009349Y014482D01*
X009349Y014648D01*
X009286Y014801D01*
X009169Y014919D01*
X009015Y014982D01*
X008849Y014982D01*
X008696Y014919D01*
X008635Y014858D01*
X007056Y016436D01*
X007056Y016529D01*
X006995Y016679D02*
X008027Y016679D01*
X008147Y016837D02*
X006879Y016837D01*
X007037Y016996D02*
X010690Y016996D01*
X010531Y017154D02*
X007096Y017154D01*
X007096Y017313D02*
X010373Y017313D01*
X010214Y017472D02*
X008298Y017472D01*
X008256Y017430D02*
X007925Y017430D01*
X007691Y017664D01*
X007691Y017995D01*
X007925Y018230D01*
X008256Y018230D01*
X008491Y017995D01*
X008491Y017664D01*
X008256Y017430D01*
X008457Y017630D02*
X010056Y017630D01*
X009897Y017789D02*
X008491Y017789D01*
X008491Y017947D02*
X009739Y017947D01*
X009580Y018106D02*
X008380Y018106D01*
X007801Y018106D02*
X006263Y018106D01*
X006105Y017947D02*
X007691Y017947D01*
X007691Y017789D02*
X006041Y017789D01*
X006041Y017630D02*
X006370Y017630D01*
X006212Y017472D02*
X006041Y017472D01*
X006041Y017313D02*
X006177Y017313D01*
X006177Y017154D02*
X006041Y017154D01*
X006041Y016996D02*
X006236Y016996D01*
X006394Y016837D02*
X006041Y016837D01*
X006041Y016679D02*
X006279Y016679D01*
X006285Y016203D02*
X006041Y016203D01*
X006041Y016045D02*
X006507Y016045D01*
X006786Y015886D02*
X006041Y015886D01*
X006041Y015728D02*
X006945Y015728D01*
X007103Y015569D02*
X006041Y015569D01*
X006041Y015411D02*
X007262Y015411D01*
X007420Y015252D02*
X006041Y015252D01*
X006041Y015093D02*
X007579Y015093D01*
X007737Y014935D02*
X006041Y014935D01*
X006041Y014776D02*
X007896Y014776D01*
X008054Y014618D02*
X006041Y014618D01*
X006041Y014459D02*
X008213Y014459D01*
X008398Y014301D02*
X006041Y014301D01*
X005621Y014301D02*
X005401Y014301D01*
X005401Y014459D02*
X005621Y014459D01*
X005621Y014618D02*
X005401Y014618D01*
X005401Y014776D02*
X005621Y014776D01*
X005621Y014935D02*
X005401Y014935D01*
X005401Y015093D02*
X005621Y015093D01*
X005621Y015252D02*
X005401Y015252D01*
X005401Y015411D02*
X005621Y015411D01*
X005621Y015569D02*
X005401Y015569D01*
X005401Y015728D02*
X005621Y015728D01*
X005621Y015886D02*
X005401Y015886D01*
X005401Y016045D02*
X005621Y016045D01*
X005621Y016203D02*
X005401Y016203D01*
X005401Y016362D02*
X005621Y016362D01*
X005621Y016520D02*
X005401Y016520D01*
X005401Y016679D02*
X005621Y016679D01*
X005621Y016837D02*
X005401Y016837D01*
X005401Y016996D02*
X005621Y016996D01*
X005621Y017154D02*
X005401Y017154D01*
X005401Y017313D02*
X005621Y017313D01*
X005621Y017472D02*
X005401Y017472D01*
X005401Y017630D02*
X005621Y017630D01*
X005621Y017789D02*
X005401Y017789D01*
X005401Y017947D02*
X005621Y017947D01*
X005669Y018106D02*
X005401Y018106D01*
X005401Y018264D02*
X005828Y018264D01*
X005987Y018423D02*
X005401Y018423D01*
X005401Y018581D02*
X006011Y018581D01*
X006011Y018740D02*
X005401Y018740D01*
X005401Y018898D02*
X006011Y018898D01*
X006011Y019057D02*
X005401Y019057D01*
X005401Y019216D02*
X006011Y019216D01*
X005905Y019374D02*
X005401Y019374D01*
X005401Y019533D02*
X005806Y019533D01*
X005781Y019691D02*
X005401Y019691D01*
X005401Y019850D02*
X005781Y019850D01*
X005781Y020008D02*
X005401Y020008D01*
X005401Y020167D02*
X005781Y020167D01*
X005781Y020325D02*
X005401Y020325D01*
X005401Y020484D02*
X005829Y020484D01*
X005961Y020642D02*
X005401Y020642D01*
X005401Y020801D02*
X012821Y020801D01*
X012851Y020801D02*
X021966Y020801D01*
X021769Y020642D02*
X012851Y020642D01*
X012821Y020642D02*
X011481Y020642D01*
X011613Y020484D02*
X012821Y020484D01*
X012851Y020484D02*
X021638Y020484D01*
X021549Y020325D02*
X017420Y020325D01*
X017560Y020167D02*
X019436Y020167D01*
X019432Y020166D02*
X019361Y020130D01*
X019297Y020083D01*
X019241Y020027D01*
X019194Y019962D01*
X019158Y019891D01*
X019133Y019816D01*
X019121Y019737D01*
X019121Y019698D01*
X019625Y019698D01*
X019625Y019697D01*
X019121Y019697D01*
X019121Y019658D01*
X019133Y019579D01*
X019158Y019504D01*
X019194Y019433D01*
X019241Y019369D01*
X019297Y019312D01*
X019361Y019266D01*
X019432Y019230D01*
X019508Y019205D01*
X019586Y019193D01*
X019626Y019193D01*
X019666Y019193D01*
X019744Y019205D01*
X019820Y019230D01*
X019890Y019266D01*
X019955Y019312D01*
X020011Y019369D01*
X020058Y019433D01*
X020094Y019504D01*
X020118Y019579D01*
X020131Y019658D01*
X020131Y019697D01*
X019626Y019697D01*
X019626Y019193D01*
X019626Y019697D01*
X019626Y019697D01*
X019626Y019698D01*
X019626Y019698D01*
X019626Y020203D01*
X019666Y020203D01*
X019744Y020190D01*
X019820Y020166D01*
X019890Y020130D01*
X019955Y020083D01*
X020011Y020027D01*
X020058Y019962D01*
X020094Y019891D01*
X020118Y019816D01*
X020131Y019737D01*
X020131Y019698D01*
X019626Y019698D01*
X019626Y020203D01*
X019586Y020203D01*
X019508Y020190D01*
X019432Y020166D01*
X019626Y020167D02*
X019626Y020167D01*
X019626Y020008D02*
X019626Y020008D01*
X019626Y019850D02*
X019626Y019850D01*
X019626Y019691D02*
X019626Y019691D01*
X019626Y019533D02*
X019626Y019533D01*
X019626Y019374D02*
X019626Y019374D01*
X019626Y019216D02*
X019626Y019216D01*
X019776Y019216D02*
X021640Y019216D01*
X021650Y019199D02*
X021729Y019101D01*
X021818Y019011D01*
X021846Y018989D01*
X021806Y019012D01*
X021531Y019086D01*
X021245Y019086D01*
X020969Y019012D01*
X020722Y018869D01*
X020520Y018667D01*
X020377Y018420D01*
X020303Y018144D01*
X020303Y017858D01*
X020377Y017582D01*
X020520Y017335D01*
X020722Y017133D01*
X020969Y016990D01*
X021245Y016916D01*
X021531Y016916D01*
X021806Y016990D01*
X022054Y017133D01*
X022256Y017335D01*
X022399Y017582D01*
X022473Y017858D01*
X022473Y018144D01*
X022399Y018420D01*
X022256Y018667D01*
X022089Y018834D01*
X022138Y018810D01*
X022257Y018769D01*
X022380Y018741D01*
X022489Y018728D01*
X022489Y019771D01*
X021446Y019771D01*
X021458Y019663D01*
X021486Y019539D01*
X021528Y019420D01*
X021583Y019306D01*
X021650Y019199D01*
X021638Y019057D02*
X021772Y019057D01*
X021550Y019374D02*
X020015Y019374D01*
X020103Y019533D02*
X021489Y019533D01*
X021455Y019691D02*
X020131Y019691D01*
X020107Y019850D02*
X022489Y019850D01*
X022489Y019691D02*
X022649Y019691D01*
X022649Y019771D02*
X022649Y019931D01*
X023692Y019931D01*
X023680Y020040D01*
X023651Y020163D01*
X023610Y020282D01*
X023555Y020396D01*
X023488Y020503D01*
X023409Y020602D01*
X023320Y020691D01*
X023221Y020770D01*
X023165Y020805D01*
X024726Y020805D01*
X024726Y018485D01*
X024697Y018546D01*
X024629Y018653D01*
X024551Y018752D01*
X024461Y018841D01*
X024362Y018920D01*
X024256Y018987D01*
X024142Y019042D01*
X024022Y019083D01*
X023899Y019112D01*
X023790Y019124D01*
X023790Y018081D01*
X023631Y018081D01*
X023631Y019124D01*
X023522Y019112D01*
X023399Y019083D01*
X023388Y019080D01*
X023409Y019101D01*
X023488Y019199D01*
X023555Y019306D01*
X023610Y019420D01*
X023651Y019539D01*
X023680Y019663D01*
X023692Y019771D01*
X022649Y019771D01*
X022649Y019850D02*
X024726Y019850D01*
X024726Y020008D02*
X023683Y020008D01*
X023650Y020167D02*
X024726Y020167D01*
X024726Y020325D02*
X023589Y020325D01*
X023500Y020484D02*
X024726Y020484D01*
X024726Y020642D02*
X023368Y020642D01*
X023171Y020801D02*
X024726Y020801D01*
X024726Y019691D02*
X023683Y019691D01*
X023649Y019533D02*
X024726Y019533D01*
X024726Y019374D02*
X023588Y019374D01*
X023498Y019216D02*
X024726Y019216D01*
X024726Y019057D02*
X024098Y019057D01*
X023790Y019057D02*
X023631Y019057D01*
X023631Y018898D02*
X023790Y018898D01*
X023790Y018740D02*
X023631Y018740D01*
X023631Y018581D02*
X023790Y018581D01*
X023790Y018423D02*
X023631Y018423D01*
X023631Y018264D02*
X023790Y018264D01*
X023790Y018106D02*
X023631Y018106D01*
X023630Y017947D02*
X022473Y017947D01*
X022473Y018106D02*
X022590Y018106D01*
X022617Y018264D02*
X022440Y018264D01*
X022397Y018423D02*
X022666Y018423D01*
X022747Y018581D02*
X022305Y018581D01*
X022385Y018740D02*
X022183Y018740D01*
X022489Y018740D02*
X022649Y018740D01*
X022752Y018740D02*
X022861Y018740D01*
X022649Y018898D02*
X022489Y018898D01*
X022489Y019057D02*
X022649Y019057D01*
X022649Y019216D02*
X022489Y019216D01*
X022489Y019374D02*
X022649Y019374D01*
X022649Y019533D02*
X022489Y019533D01*
X021455Y020008D02*
X020024Y020008D01*
X019816Y020167D02*
X021487Y020167D01*
X021138Y019057D02*
X018485Y019057D01*
X018533Y019233D02*
X018718Y019233D01*
X018889Y019303D01*
X019020Y019434D01*
X019091Y019605D01*
X019091Y019790D01*
X019020Y019961D01*
X018889Y020092D01*
X018718Y020163D01*
X018533Y020163D01*
X018362Y020092D01*
X018232Y019961D01*
X018161Y019790D01*
X018161Y019605D01*
X018232Y019434D01*
X018362Y019303D01*
X018533Y019233D01*
X018326Y019216D02*
X019475Y019216D01*
X019237Y019374D02*
X018960Y019374D01*
X019061Y019533D02*
X019148Y019533D01*
X019121Y019691D02*
X019091Y019691D01*
X019066Y019850D02*
X019144Y019850D01*
X019227Y020008D02*
X018973Y020008D01*
X018279Y020008D02*
X017612Y020008D01*
X017692Y019850D02*
X018186Y019850D01*
X018161Y019691D02*
X017851Y019691D01*
X018009Y019533D02*
X018191Y019533D01*
X018168Y019374D02*
X018292Y019374D01*
X018604Y018898D02*
X020773Y018898D01*
X020593Y018740D02*
X018621Y018740D01*
X018621Y018581D02*
X018910Y018581D01*
X019122Y018581D02*
X019122Y018581D01*
X019122Y018423D02*
X019122Y018423D01*
X019122Y018264D02*
X019122Y018264D01*
X018751Y018423D02*
X018621Y018423D01*
X018621Y018264D02*
X018662Y018264D01*
X018662Y018106D02*
X018621Y018106D01*
X018621Y017947D02*
X018667Y017947D01*
X018722Y017789D02*
X018826Y017789D01*
X019418Y017789D02*
X020321Y017789D01*
X020303Y017947D02*
X019577Y017947D01*
X019582Y018106D02*
X020303Y018106D01*
X020335Y018264D02*
X019582Y018264D01*
X019493Y018423D02*
X020379Y018423D01*
X020470Y018581D02*
X019334Y018581D01*
X018041Y018581D02*
X017260Y018581D01*
X017093Y018581D02*
X015388Y018581D01*
X015388Y018423D02*
X016840Y018423D01*
X016756Y018264D02*
X015388Y018264D01*
X015388Y018106D02*
X016742Y018106D01*
X016787Y017947D02*
X015384Y017947D01*
X015388Y017963D02*
X015388Y018969D01*
X014501Y018969D01*
X014501Y017806D01*
X015232Y017806D01*
X015278Y017819D01*
X015319Y017842D01*
X015352Y017876D01*
X015376Y017917D01*
X015388Y017963D01*
X014501Y017947D02*
X014341Y017947D01*
X014341Y017806D02*
X014341Y018969D01*
X014501Y018969D01*
X014501Y019129D01*
X015388Y019129D01*
X015388Y020136D01*
X015376Y020182D01*
X015352Y020223D01*
X015319Y020256D01*
X015278Y020280D01*
X015232Y020292D01*
X014501Y020292D01*
X014501Y019129D01*
X014341Y019129D01*
X014341Y018969D01*
X013454Y018969D01*
X013454Y017963D01*
X013466Y017917D01*
X013489Y017876D01*
X013523Y017842D01*
X013564Y017819D01*
X013610Y017806D01*
X014341Y017806D01*
X014341Y018106D02*
X014501Y018106D01*
X014501Y018264D02*
X014341Y018264D01*
X014341Y018423D02*
X014501Y018423D01*
X014501Y018581D02*
X014341Y018581D01*
X014341Y018740D02*
X014501Y018740D01*
X014501Y018898D02*
X014341Y018898D01*
X014341Y019057D02*
X012851Y019057D01*
X012821Y019057D02*
X012551Y019057D01*
X012551Y019216D02*
X012821Y019216D01*
X012851Y019216D02*
X013454Y019216D01*
X013454Y019129D02*
X013454Y020136D01*
X013466Y020182D01*
X013489Y020223D01*
X013523Y020256D01*
X013564Y020280D01*
X013610Y020292D01*
X014341Y020292D01*
X014341Y019129D01*
X013454Y019129D01*
X013454Y018898D02*
X012851Y018898D01*
X012821Y018898D02*
X012551Y018898D01*
X012551Y018740D02*
X012821Y018740D01*
X012851Y018740D02*
X013454Y018740D01*
X013454Y018581D02*
X012851Y018581D01*
X012821Y018581D02*
X012636Y018581D01*
X012795Y018423D02*
X012821Y018423D01*
X012851Y018423D02*
X013454Y018423D01*
X013454Y018264D02*
X012954Y018264D01*
X013112Y018106D02*
X013454Y018106D01*
X013458Y017947D02*
X013271Y017947D01*
X013429Y017789D02*
X016916Y017789D01*
X017383Y017630D02*
X013588Y017630D01*
X012821Y017630D02*
X012457Y017630D01*
X012491Y017789D02*
X012821Y017789D01*
X012677Y017947D02*
X012491Y017947D01*
X012518Y018106D02*
X012380Y018106D01*
X012360Y018264D02*
X010242Y018264D01*
X010400Y018106D02*
X011801Y018106D01*
X011691Y017947D02*
X010559Y017947D01*
X010717Y017789D02*
X011691Y017789D01*
X011725Y017630D02*
X010876Y017630D01*
X010083Y018423D02*
X012201Y018423D01*
X012131Y018581D02*
X009925Y018581D01*
X009766Y018740D02*
X012131Y018740D01*
X012131Y018898D02*
X009608Y018898D01*
X009511Y019057D02*
X012131Y019057D01*
X012131Y019216D02*
X010344Y019216D01*
X010333Y019212D02*
X010405Y019235D01*
X010472Y019270D01*
X010533Y019314D01*
X010587Y019367D01*
X010631Y019429D01*
X010666Y019496D01*
X010689Y019568D01*
X010701Y019642D01*
X010701Y019960D01*
X010241Y019960D01*
X010241Y020000D01*
X010701Y020000D01*
X010701Y020318D01*
X010689Y020393D01*
X010666Y020464D01*
X010631Y020532D01*
X010587Y020593D01*
X010533Y020646D01*
X010472Y020691D01*
X010405Y020725D01*
X010333Y020748D01*
X010259Y020760D01*
X010241Y020760D01*
X010241Y020000D01*
X010201Y020000D01*
X010201Y019960D01*
X010241Y019960D01*
X010241Y019200D01*
X010259Y019200D01*
X010333Y019212D01*
X010241Y019216D02*
X010201Y019216D01*
X010201Y019200D02*
X010201Y019960D01*
X009741Y019960D01*
X009741Y019642D01*
X009753Y019568D01*
X009776Y019496D01*
X009810Y019429D01*
X009855Y019367D01*
X009908Y019314D01*
X009969Y019270D01*
X010036Y019235D01*
X010108Y019212D01*
X010183Y019200D01*
X010201Y019200D01*
X010097Y019216D02*
X009511Y019216D01*
X009537Y019374D02*
X009850Y019374D01*
X009764Y019533D02*
X009636Y019533D01*
X009661Y019691D02*
X009741Y019691D01*
X009741Y019850D02*
X009661Y019850D01*
X009661Y020008D02*
X009741Y020008D01*
X009741Y020000D02*
X010201Y020000D01*
X010201Y020760D01*
X010183Y020760D01*
X010108Y020748D01*
X010036Y020725D01*
X009969Y020691D01*
X009908Y020646D01*
X009855Y020593D01*
X009810Y020532D01*
X009776Y020464D01*
X009753Y020393D01*
X009741Y020318D01*
X009741Y020000D01*
X009741Y020167D02*
X009661Y020167D01*
X009661Y020325D02*
X009742Y020325D01*
X009786Y020484D02*
X009613Y020484D01*
X009481Y020642D02*
X009904Y020642D01*
X010201Y020642D02*
X010241Y020642D01*
X010241Y020484D02*
X010201Y020484D01*
X010201Y020325D02*
X010241Y020325D01*
X010241Y020167D02*
X010201Y020167D01*
X010201Y020008D02*
X010241Y020008D01*
X010241Y019850D02*
X010201Y019850D01*
X010201Y019691D02*
X010241Y019691D01*
X010241Y019533D02*
X010201Y019533D01*
X010201Y019374D02*
X010241Y019374D01*
X010592Y019374D02*
X010905Y019374D01*
X010806Y019533D02*
X010678Y019533D01*
X010701Y019691D02*
X010781Y019691D01*
X010781Y019850D02*
X010701Y019850D01*
X010701Y020008D02*
X010781Y020008D01*
X010781Y020167D02*
X010701Y020167D01*
X010700Y020325D02*
X010781Y020325D01*
X010829Y020484D02*
X010656Y020484D01*
X010537Y020642D02*
X010961Y020642D01*
X011661Y020325D02*
X012821Y020325D01*
X012851Y020325D02*
X016934Y020325D01*
X016794Y020167D02*
X015380Y020167D01*
X015388Y020008D02*
X016742Y020008D01*
X016749Y019850D02*
X015388Y019850D01*
X015388Y019691D02*
X016825Y019691D01*
X017059Y019533D02*
X015388Y019533D01*
X015388Y019374D02*
X016829Y019374D01*
X016731Y019216D02*
X015388Y019216D01*
X014501Y019216D02*
X014341Y019216D01*
X014341Y019374D02*
X014501Y019374D01*
X014501Y019533D02*
X014341Y019533D01*
X014341Y019691D02*
X014501Y019691D01*
X014501Y019850D02*
X014341Y019850D01*
X014341Y020008D02*
X014501Y020008D01*
X014501Y020167D02*
X014341Y020167D01*
X013462Y020167D02*
X012851Y020167D01*
X012821Y020167D02*
X012151Y020167D01*
X012310Y020008D02*
X012821Y020008D01*
X012851Y020008D02*
X013454Y020008D01*
X013454Y019850D02*
X012851Y019850D01*
X012821Y019850D02*
X012468Y019850D01*
X012551Y019691D02*
X012821Y019691D01*
X012851Y019691D02*
X013454Y019691D01*
X013454Y019533D02*
X012851Y019533D01*
X012821Y019533D02*
X012551Y019533D01*
X012551Y019374D02*
X012821Y019374D01*
X012851Y019374D02*
X013454Y019374D01*
X014501Y019057D02*
X017163Y019057D01*
X017191Y019057D02*
X017665Y019057D01*
X017628Y018898D02*
X017823Y018898D01*
X017982Y018740D02*
X017539Y018740D01*
X017513Y018423D02*
X018041Y018423D01*
X018041Y018264D02*
X017598Y018264D01*
X017612Y018106D02*
X018041Y018106D01*
X018041Y017947D02*
X017566Y017947D01*
X017437Y017789D02*
X018041Y017789D01*
X018075Y017630D02*
X017698Y017630D01*
X017801Y017472D02*
X018219Y017472D01*
X018378Y017313D02*
X017778Y017313D01*
X016775Y016996D02*
X016775Y016996D01*
X016775Y016837D02*
X016775Y016837D01*
X016775Y016679D02*
X016775Y016679D01*
X016315Y016679D02*
X015254Y016679D01*
X015347Y016520D02*
X016315Y016520D01*
X016424Y016362D02*
X015362Y016362D01*
X015362Y016203D02*
X016523Y016203D01*
X016396Y016045D02*
X015362Y016045D01*
X015362Y015886D02*
X016355Y015886D01*
X016376Y015728D02*
X015329Y015728D01*
X015210Y015569D02*
X016474Y015569D01*
X017076Y015569D02*
X017802Y015569D01*
X017891Y015093D02*
X012851Y015093D01*
X012821Y015093D02*
X011814Y015093D01*
X011656Y014935D02*
X012821Y014935D01*
X012851Y014935D02*
X018069Y014935D01*
X018774Y014618D02*
X012851Y014618D01*
X012821Y014618D02*
X011339Y014618D01*
X011497Y014776D02*
X012821Y014776D01*
X012851Y014776D02*
X018932Y014776D01*
X018766Y014459D02*
X012851Y014459D01*
X012821Y014459D02*
X011180Y014459D01*
X011021Y014301D02*
X012821Y014301D01*
X012851Y014301D02*
X018766Y014301D01*
X018844Y014142D02*
X012851Y014142D01*
X012821Y014142D02*
X010863Y014142D01*
X010704Y013984D02*
X012821Y013984D01*
X013391Y013170D02*
X017511Y013170D01*
X017511Y008950D01*
X016241Y008950D01*
X016241Y009392D01*
X016362Y009513D01*
X016368Y009510D01*
X016527Y009510D01*
X016674Y009571D01*
X016787Y009683D01*
X016848Y009830D01*
X016848Y009989D01*
X016787Y010136D01*
X016674Y010249D01*
X016668Y010252D01*
X016668Y011070D01*
X016725Y011093D01*
X016856Y011224D01*
X016927Y011395D01*
X016927Y011580D01*
X016856Y011751D01*
X016725Y011882D01*
X016555Y011953D01*
X016370Y011953D01*
X016199Y011882D01*
X016068Y011751D01*
X015997Y011580D01*
X015997Y011395D01*
X016068Y011224D01*
X016199Y011093D01*
X016228Y011081D01*
X016228Y010252D01*
X016221Y010249D01*
X016109Y010136D01*
X016048Y009989D01*
X016048Y009830D01*
X016051Y009824D01*
X015801Y009574D01*
X015801Y009392D01*
X015801Y008950D01*
X015241Y008950D01*
X015241Y009346D01*
X015241Y009528D01*
X014945Y009824D01*
X014948Y009830D01*
X014948Y009989D01*
X014887Y010136D01*
X014774Y010249D01*
X014768Y010252D01*
X014768Y011065D01*
X014801Y011079D01*
X014932Y011210D01*
X015002Y011381D01*
X015002Y011566D01*
X014932Y011737D01*
X014801Y011867D01*
X014630Y011938D01*
X014445Y011938D01*
X014274Y011867D01*
X014143Y011737D01*
X014072Y011566D01*
X014072Y011381D01*
X014143Y011210D01*
X014274Y011079D01*
X014328Y011057D01*
X014328Y010252D01*
X014321Y010249D01*
X014209Y010136D01*
X014148Y009989D01*
X014148Y009830D01*
X014209Y009683D01*
X014321Y009571D01*
X014468Y009510D01*
X014627Y009510D01*
X014634Y009513D01*
X014801Y009346D01*
X014801Y008950D01*
X013421Y008950D01*
X013391Y009010D01*
X013391Y013170D01*
X013391Y013032D02*
X017511Y013032D01*
X017511Y012874D02*
X016790Y012874D01*
X016791Y012873D02*
X016727Y012920D01*
X016656Y012956D01*
X016580Y012980D01*
X016502Y012993D01*
X016462Y012993D01*
X016422Y012993D01*
X016344Y012980D01*
X016268Y012956D01*
X016197Y012920D01*
X016133Y012873D01*
X016077Y012817D01*
X016030Y012752D01*
X015994Y012681D01*
X015969Y012606D01*
X015957Y012527D01*
X015957Y012488D01*
X016462Y012488D01*
X016462Y012993D01*
X016462Y012488D01*
X016462Y012488D01*
X016462Y012487D01*
X016462Y011983D01*
X016502Y011983D01*
X016580Y011995D01*
X016656Y012020D01*
X016727Y012056D01*
X016791Y012102D01*
X016847Y012159D01*
X016894Y012223D01*
X016930Y012294D01*
X016955Y012369D01*
X016967Y012448D01*
X016967Y012487D01*
X016462Y012487D01*
X016462Y012487D01*
X016462Y011983D01*
X016422Y011983D01*
X016344Y011995D01*
X016268Y012020D01*
X016197Y012056D01*
X016133Y012102D01*
X016077Y012159D01*
X016030Y012223D01*
X015994Y012294D01*
X015969Y012369D01*
X015957Y012448D01*
X015957Y012487D01*
X016462Y012487D01*
X016462Y012488D01*
X016967Y012488D01*
X016967Y012527D01*
X016955Y012606D01*
X016930Y012681D01*
X016894Y012752D01*
X016847Y012817D01*
X016791Y012873D01*
X016913Y012715D02*
X017511Y012715D01*
X017511Y012557D02*
X016962Y012557D01*
X016959Y012398D02*
X017511Y012398D01*
X017511Y012240D02*
X016902Y012240D01*
X016762Y012081D02*
X017511Y012081D01*
X017511Y011923D02*
X016627Y011923D01*
X016462Y012081D02*
X016462Y012081D01*
X016462Y012240D02*
X016462Y012240D01*
X016462Y012398D02*
X016462Y012398D01*
X016462Y012557D02*
X016462Y012557D01*
X016462Y012715D02*
X016462Y012715D01*
X016462Y012874D02*
X016462Y012874D01*
X016134Y012874D02*
X014845Y012874D01*
X014866Y012858D02*
X014802Y012905D01*
X014731Y012941D01*
X014656Y012966D01*
X014577Y012978D01*
X014538Y012978D01*
X014538Y012474D01*
X014537Y012474D01*
X014537Y012978D01*
X014498Y012978D01*
X014419Y012966D01*
X014344Y012941D01*
X014273Y012905D01*
X014208Y012858D01*
X014152Y012802D01*
X014105Y012738D01*
X014069Y012667D01*
X014045Y012592D01*
X014032Y012513D01*
X014032Y012473D01*
X014032Y012434D01*
X014045Y012355D01*
X014069Y012279D01*
X014105Y012209D01*
X014152Y012144D01*
X014208Y012088D01*
X014273Y012041D01*
X014344Y012005D01*
X014419Y011981D01*
X014498Y011968D01*
X014537Y011968D01*
X014537Y012473D01*
X014032Y012473D01*
X014537Y012473D01*
X014537Y012473D01*
X014538Y012473D01*
X014538Y012473D01*
X015042Y012473D01*
X015042Y012434D01*
X015030Y012355D01*
X015005Y012279D01*
X014969Y012209D01*
X014923Y012144D01*
X014866Y012088D01*
X014802Y012041D01*
X014731Y012005D01*
X014656Y011981D01*
X014577Y011968D01*
X014538Y011968D01*
X014538Y012473D01*
X015042Y012473D01*
X015042Y012513D01*
X015030Y012592D01*
X015005Y012667D01*
X014969Y012738D01*
X014923Y012802D01*
X014866Y012858D01*
X014981Y012715D02*
X016011Y012715D01*
X015962Y012557D02*
X015035Y012557D01*
X015037Y012398D02*
X015965Y012398D01*
X016022Y012240D02*
X014985Y012240D01*
X014857Y012081D02*
X016162Y012081D01*
X016297Y011923D02*
X014668Y011923D01*
X014538Y012081D02*
X014537Y012081D01*
X014537Y012240D02*
X014538Y012240D01*
X014537Y012398D02*
X014538Y012398D01*
X014537Y012557D02*
X014538Y012557D01*
X014537Y012715D02*
X014538Y012715D01*
X014537Y012874D02*
X014538Y012874D01*
X014230Y012874D02*
X013391Y012874D01*
X013391Y012715D02*
X014094Y012715D01*
X014039Y012557D02*
X013391Y012557D01*
X013391Y012398D02*
X014038Y012398D01*
X014090Y012240D02*
X013391Y012240D01*
X013391Y012081D02*
X014218Y012081D01*
X014407Y011923D02*
X013391Y011923D01*
X013391Y011764D02*
X014171Y011764D01*
X014089Y011605D02*
X013391Y011605D01*
X013391Y011447D02*
X014072Y011447D01*
X014111Y011288D02*
X013391Y011288D01*
X013391Y011130D02*
X014223Y011130D01*
X014328Y010971D02*
X013391Y010971D01*
X013391Y010813D02*
X014328Y010813D01*
X014328Y010654D02*
X013391Y010654D01*
X013391Y010496D02*
X014328Y010496D01*
X014328Y010337D02*
X013391Y010337D01*
X013391Y010179D02*
X014251Y010179D01*
X014161Y010020D02*
X013391Y010020D01*
X013391Y009861D02*
X014148Y009861D01*
X014201Y009703D02*
X013391Y009703D01*
X013391Y009544D02*
X014385Y009544D01*
X014548Y009910D02*
X014548Y011463D01*
X014537Y011473D01*
X014964Y011288D02*
X016041Y011288D01*
X015997Y011447D02*
X015002Y011447D01*
X014986Y011605D02*
X016008Y011605D01*
X016081Y011764D02*
X014904Y011764D01*
X014852Y011130D02*
X016162Y011130D01*
X016228Y010971D02*
X014768Y010971D01*
X014768Y010813D02*
X016228Y010813D01*
X016228Y010654D02*
X014768Y010654D01*
X014768Y010496D02*
X016228Y010496D01*
X016228Y010337D02*
X014768Y010337D01*
X014845Y010179D02*
X016151Y010179D01*
X016061Y010020D02*
X014935Y010020D01*
X014948Y009861D02*
X016048Y009861D01*
X015930Y009703D02*
X015066Y009703D01*
X015224Y009544D02*
X015801Y009544D01*
X015801Y009386D02*
X015241Y009386D01*
X015241Y009227D02*
X015801Y009227D01*
X015801Y009069D02*
X015241Y009069D01*
X015021Y009437D02*
X014548Y009910D01*
X014761Y009386D02*
X013391Y009386D01*
X013391Y009227D02*
X014801Y009227D01*
X014801Y009069D02*
X013391Y009069D01*
X012821Y009069D02*
X010721Y009069D01*
X010721Y008910D02*
X012821Y008910D01*
X012821Y008752D02*
X010655Y008752D01*
X010496Y008593D02*
X010852Y008593D01*
X010673Y008435D02*
X008935Y008435D01*
X009094Y008593D02*
X010006Y008593D01*
X009641Y008118D02*
X008618Y008118D01*
X008777Y008276D02*
X010621Y008276D01*
X011190Y008593D02*
X011852Y008593D01*
X011673Y008435D02*
X011369Y008435D01*
X011421Y008276D02*
X011621Y008276D01*
X011621Y008118D02*
X011421Y008118D01*
X011421Y007959D02*
X011621Y007959D01*
X011564Y007800D02*
X011421Y007800D01*
X012421Y007800D02*
X012474Y007800D01*
X012421Y007959D02*
X012621Y007959D01*
X012621Y008118D02*
X012421Y008118D01*
X012421Y008276D02*
X012621Y008276D01*
X012673Y008435D02*
X012369Y008435D01*
X012190Y008593D02*
X012821Y008593D01*
X013421Y008240D02*
X013621Y008240D01*
X013621Y007631D01*
X013682Y007484D01*
X013794Y007371D01*
X013811Y007364D01*
X013811Y005908D01*
X013780Y005877D01*
X013741Y005782D01*
X013741Y005678D01*
X013780Y005583D01*
X013794Y005569D01*
X013682Y005457D01*
X013621Y005310D01*
X013621Y004667D01*
X013421Y004867D01*
X013421Y005310D01*
X013360Y005457D01*
X013247Y005569D01*
X013100Y005630D01*
X012941Y005630D01*
X012794Y005569D01*
X012682Y005457D01*
X012621Y005310D01*
X012621Y004667D01*
X012421Y004867D01*
X012421Y005310D01*
X012360Y005457D01*
X012247Y005569D01*
X012100Y005630D01*
X011941Y005630D01*
X011794Y005569D01*
X011682Y005457D01*
X011621Y005310D01*
X011621Y004667D01*
X011421Y004867D01*
X011421Y005310D01*
X011360Y005457D01*
X011247Y005569D01*
X011100Y005630D01*
X010941Y005630D01*
X010811Y005576D01*
X010841Y005648D01*
X010841Y005752D01*
X010801Y005847D01*
X010728Y005921D01*
X010632Y005960D01*
X010529Y005960D01*
X010434Y005921D01*
X010360Y005847D01*
X010321Y005752D01*
X010321Y005648D01*
X010360Y005553D01*
X010371Y005542D01*
X010371Y003768D01*
X010368Y003771D01*
X010272Y003810D01*
X010169Y003810D01*
X010083Y003775D01*
X009931Y003927D01*
X009931Y006753D01*
X009948Y006770D01*
X012038Y006770D01*
X012161Y006893D01*
X012716Y007449D01*
X012794Y007371D01*
X012941Y007310D01*
X013100Y007310D01*
X013247Y007371D01*
X013360Y007484D01*
X013421Y007631D01*
X013421Y008240D01*
X013421Y008118D02*
X013621Y008118D01*
X013621Y007959D02*
X013421Y007959D01*
X013421Y007800D02*
X013621Y007800D01*
X013621Y007642D02*
X013421Y007642D01*
X013360Y007483D02*
X013682Y007483D01*
X013811Y007325D02*
X013136Y007325D01*
X012906Y007325D02*
X012592Y007325D01*
X012434Y007166D02*
X013811Y007166D01*
X013811Y007008D02*
X012275Y007008D01*
X012117Y006849D02*
X013811Y006849D01*
X013811Y006691D02*
X009931Y006691D01*
X009931Y006532D02*
X013811Y006532D01*
X013811Y006374D02*
X009931Y006374D01*
X009931Y006215D02*
X013811Y006215D01*
X013811Y006056D02*
X009931Y006056D01*
X009931Y005898D02*
X010411Y005898D01*
X010321Y005739D02*
X009931Y005739D01*
X009931Y005581D02*
X010349Y005581D01*
X010371Y005422D02*
X009931Y005422D01*
X009931Y005264D02*
X010371Y005264D01*
X010371Y005105D02*
X009931Y005105D01*
X009931Y004947D02*
X010371Y004947D01*
X010371Y004788D02*
X009931Y004788D01*
X009931Y004630D02*
X010371Y004630D01*
X010371Y004471D02*
X009931Y004471D01*
X009931Y004312D02*
X010371Y004312D01*
X010371Y004154D02*
X009931Y004154D01*
X009931Y003995D02*
X010371Y003995D01*
X010371Y003837D02*
X010021Y003837D01*
X010222Y003203D02*
X010371Y003203D01*
X010371Y003044D02*
X010042Y003044D01*
X009919Y003044D02*
X009581Y003044D01*
X009908Y002886D02*
X010234Y002886D01*
X010147Y002727D02*
X009994Y002727D01*
X010011Y002569D02*
X010131Y002569D01*
X010131Y002410D02*
X010011Y002410D01*
X010011Y002251D02*
X010131Y002251D01*
X010131Y002093D02*
X010011Y002093D01*
X010011Y001934D02*
X010131Y001934D01*
X010187Y001776D02*
X009954Y001776D01*
X009796Y001617D02*
X010345Y001617D01*
X010796Y001617D02*
X011345Y001617D01*
X011187Y001776D02*
X010954Y001776D01*
X011011Y001934D02*
X011131Y001934D01*
X011131Y002093D02*
X011011Y002093D01*
X011011Y002251D02*
X011131Y002251D01*
X011131Y002410D02*
X011011Y002410D01*
X011011Y002569D02*
X011131Y002569D01*
X011147Y002727D02*
X010994Y002727D01*
X010908Y002886D02*
X011234Y002886D01*
X011371Y003044D02*
X010791Y003044D01*
X010791Y003203D02*
X011271Y003203D01*
X011042Y003361D02*
X010791Y003361D01*
X010791Y003520D02*
X010961Y003520D01*
X010992Y003678D02*
X010791Y003678D01*
X010791Y003837D02*
X011857Y003837D01*
X011699Y003995D02*
X010791Y003995D01*
X010791Y004154D02*
X011540Y004154D01*
X011381Y004312D02*
X011106Y004312D01*
X010936Y004312D02*
X010791Y004312D01*
X011500Y004788D02*
X011621Y004788D01*
X011621Y004947D02*
X011421Y004947D01*
X011421Y005105D02*
X011621Y005105D01*
X011621Y005264D02*
X011421Y005264D01*
X011374Y005422D02*
X011667Y005422D01*
X011822Y005581D02*
X011219Y005581D01*
X010822Y005581D02*
X010813Y005581D01*
X010841Y005739D02*
X013741Y005739D01*
X013782Y005581D02*
X013219Y005581D01*
X013374Y005422D02*
X013667Y005422D01*
X013621Y005264D02*
X013421Y005264D01*
X013421Y005105D02*
X013621Y005105D01*
X013621Y004947D02*
X013421Y004947D01*
X013500Y004788D02*
X013621Y004788D01*
X014421Y004947D02*
X014621Y004947D01*
X014621Y005105D02*
X014421Y005105D01*
X014421Y005264D02*
X014621Y005264D01*
X014667Y005422D02*
X014374Y005422D01*
X014219Y005581D02*
X014822Y005581D01*
X013801Y005898D02*
X010751Y005898D01*
X012219Y005581D02*
X012822Y005581D01*
X012667Y005422D02*
X012374Y005422D01*
X012421Y005264D02*
X012621Y005264D01*
X012621Y005105D02*
X012421Y005105D01*
X012421Y004947D02*
X012621Y004947D01*
X012621Y004788D02*
X012500Y004788D01*
X012016Y003678D02*
X011449Y003678D01*
X011548Y003520D02*
X011923Y003520D01*
X011891Y003361D02*
X011707Y003361D01*
X011791Y003203D02*
X011941Y003203D01*
X011941Y003044D02*
X011791Y003044D01*
X011908Y002886D02*
X011941Y002886D01*
X012011Y002410D02*
X012131Y002410D01*
X012131Y002251D02*
X012011Y002251D01*
X012011Y002093D02*
X012131Y002093D01*
X012131Y001934D02*
X012011Y001934D01*
X011954Y001776D02*
X012187Y001776D01*
X012345Y001617D02*
X011796Y001617D01*
X012796Y001617D02*
X013345Y001617D01*
X013187Y001776D02*
X012954Y001776D01*
X013011Y001934D02*
X013131Y001934D01*
X013131Y002093D02*
X013011Y002093D01*
X013011Y002251D02*
X013131Y002251D01*
X013131Y002410D02*
X013011Y002410D01*
X013011Y002569D02*
X013131Y002569D01*
X013147Y002727D02*
X012994Y002727D01*
X012908Y002886D02*
X013234Y002886D01*
X013908Y002886D02*
X014234Y002886D01*
X014147Y002727D02*
X013994Y002727D01*
X014011Y002569D02*
X014131Y002569D01*
X014131Y002410D02*
X014011Y002410D01*
X014011Y002251D02*
X014131Y002251D01*
X014131Y002093D02*
X014011Y002093D01*
X014011Y001934D02*
X014131Y001934D01*
X014187Y001776D02*
X013954Y001776D01*
X013796Y001617D02*
X014345Y001617D01*
X014500Y004788D02*
X014621Y004788D01*
X014906Y007325D02*
X014231Y007325D01*
X014360Y007483D02*
X014682Y007483D01*
X014621Y007642D02*
X014421Y007642D01*
X014421Y007800D02*
X014621Y007800D01*
X014621Y007959D02*
X014421Y007959D01*
X014421Y008118D02*
X014621Y008118D01*
X015021Y007970D02*
X015021Y009437D01*
X016021Y009483D02*
X016448Y009910D01*
X016448Y011473D01*
X016462Y011488D01*
X016883Y011288D02*
X017511Y011288D01*
X017511Y011130D02*
X016762Y011130D01*
X016668Y010971D02*
X017511Y010971D01*
X017511Y010813D02*
X016668Y010813D01*
X016668Y010654D02*
X017511Y010654D01*
X017511Y010496D02*
X016668Y010496D01*
X016668Y010337D02*
X017511Y010337D01*
X017511Y010179D02*
X016745Y010179D01*
X016835Y010020D02*
X017511Y010020D01*
X017511Y009861D02*
X016848Y009861D01*
X016795Y009703D02*
X017511Y009703D01*
X017511Y009544D02*
X016611Y009544D01*
X016241Y009386D02*
X017511Y009386D01*
X017511Y009227D02*
X016241Y009227D01*
X016241Y009069D02*
X017511Y009069D01*
X017020Y007970D02*
X016581Y007970D01*
X017020Y007970D01*
X017020Y007970D01*
X017021Y007959D02*
X017021Y007959D01*
X017021Y007800D02*
X017021Y007800D01*
X017021Y007642D02*
X017021Y007642D01*
X017021Y007483D02*
X017021Y007483D01*
X017021Y007325D02*
X017021Y007325D01*
X016808Y007325D02*
X016136Y007325D01*
X015906Y007325D02*
X015136Y007325D01*
X015360Y007483D02*
X015682Y007483D01*
X015621Y007642D02*
X015421Y007642D01*
X015421Y007800D02*
X015621Y007800D01*
X015621Y007959D02*
X015421Y007959D01*
X015421Y008118D02*
X015621Y008118D01*
X016021Y007970D02*
X016021Y009483D01*
X016421Y008118D02*
X016581Y008118D01*
X016581Y007959D02*
X016421Y007959D01*
X016421Y007800D02*
X016581Y007800D01*
X016586Y007642D02*
X016421Y007642D01*
X016360Y007483D02*
X016642Y007483D01*
X018635Y007008D02*
X018866Y007008D01*
X018762Y007166D02*
X018751Y007166D01*
X018751Y007325D02*
X018783Y007325D01*
X019741Y006532D02*
X024726Y006532D01*
X024726Y006374D02*
X019741Y006374D01*
X019741Y006215D02*
X024726Y006215D01*
X024726Y006056D02*
X019741Y006056D01*
X019741Y005898D02*
X024726Y005898D01*
X024726Y005739D02*
X019741Y005739D01*
X019741Y005581D02*
X019822Y005581D01*
X020219Y005581D02*
X020822Y005581D01*
X020667Y005422D02*
X020374Y005422D01*
X020421Y005264D02*
X020621Y005264D01*
X020621Y005105D02*
X020421Y005105D01*
X020421Y004947D02*
X020621Y004947D01*
X020621Y004788D02*
X020421Y004788D01*
X020420Y004630D02*
X020621Y004630D01*
X020694Y004471D02*
X020347Y004471D01*
X021347Y004471D02*
X021694Y004471D01*
X021621Y004630D02*
X021420Y004630D01*
X021421Y004788D02*
X021621Y004788D01*
X021621Y004947D02*
X021421Y004947D01*
X021421Y005105D02*
X021621Y005105D01*
X021621Y005264D02*
X021421Y005264D01*
X021374Y005422D02*
X021667Y005422D01*
X021822Y005581D02*
X021219Y005581D01*
X022219Y005581D02*
X022822Y005581D01*
X022667Y005422D02*
X022374Y005422D01*
X022421Y005264D02*
X022621Y005264D01*
X022621Y005105D02*
X022421Y005105D01*
X022421Y004947D02*
X022621Y004947D01*
X022621Y004788D02*
X022421Y004788D01*
X022420Y004630D02*
X022621Y004630D01*
X022694Y004471D02*
X022347Y004471D01*
X023347Y004471D02*
X023694Y004471D01*
X023621Y004630D02*
X023420Y004630D01*
X023421Y004788D02*
X023621Y004788D01*
X023621Y004947D02*
X023421Y004947D01*
X023421Y005105D02*
X023621Y005105D01*
X023621Y005264D02*
X023421Y005264D01*
X023374Y005422D02*
X023667Y005422D01*
X023822Y005581D02*
X023219Y005581D01*
X024219Y005581D02*
X024726Y005581D01*
X024726Y005422D02*
X024374Y005422D01*
X024421Y005264D02*
X024726Y005264D01*
X024726Y005105D02*
X024421Y005105D01*
X024421Y004947D02*
X024726Y004947D01*
X024726Y004788D02*
X024421Y004788D01*
X024420Y004630D02*
X024726Y004630D01*
X024726Y004471D02*
X024347Y004471D01*
X024726Y006691D02*
X023199Y006691D01*
X023281Y006849D02*
X024726Y006849D01*
X024726Y007008D02*
X023249Y007008D01*
X023231Y007166D02*
X024726Y007166D01*
X024726Y007325D02*
X024136Y007325D01*
X024100Y007310D02*
X024247Y007371D01*
X024360Y007484D01*
X024421Y007631D01*
X024421Y008310D01*
X024360Y008457D01*
X024247Y008569D01*
X024100Y008630D01*
X023941Y008630D01*
X023794Y008569D01*
X023682Y008457D01*
X023621Y008310D01*
X023621Y007631D01*
X023682Y007484D01*
X023794Y007371D01*
X023941Y007310D01*
X024100Y007310D01*
X023906Y007325D02*
X023231Y007325D01*
X023360Y007483D02*
X023682Y007483D01*
X023621Y007642D02*
X023421Y007642D01*
X023421Y007800D02*
X023621Y007800D01*
X023621Y007959D02*
X023421Y007959D01*
X023421Y008118D02*
X023621Y008118D01*
X023621Y008276D02*
X023421Y008276D01*
X023369Y008435D02*
X023673Y008435D01*
X023852Y008593D02*
X023190Y008593D01*
X023349Y008910D02*
X023703Y008910D01*
X023596Y009069D02*
X023456Y009069D01*
X023491Y009227D02*
X023561Y009227D01*
X023581Y009386D02*
X023471Y009386D01*
X023384Y009544D02*
X023668Y009544D01*
X023816Y009703D02*
X023236Y009703D01*
X023236Y009861D02*
X023816Y009861D01*
X023816Y010020D02*
X023658Y010020D01*
X023743Y010179D02*
X023816Y010179D01*
X023816Y010337D02*
X023759Y010337D01*
X023715Y010496D02*
X023816Y010496D01*
X023816Y010654D02*
X023589Y010654D01*
X023568Y010930D02*
X023692Y011054D01*
X023759Y011215D01*
X023759Y011390D01*
X023692Y011552D01*
X023568Y011676D01*
X023406Y011743D01*
X022631Y011743D01*
X022469Y011676D01*
X022346Y011552D01*
X022279Y011390D01*
X022279Y011215D01*
X022346Y011054D01*
X022469Y010930D01*
X022631Y010863D01*
X023406Y010863D01*
X023568Y010930D01*
X023609Y010971D02*
X023816Y010971D01*
X023816Y010813D02*
X021671Y010813D01*
X021671Y010971D02*
X022428Y010971D01*
X022314Y011130D02*
X021671Y011130D01*
X021671Y011288D02*
X022279Y011288D01*
X022302Y011447D02*
X021671Y011447D01*
X021671Y011605D02*
X022399Y011605D01*
X022487Y011923D02*
X021671Y011923D01*
X021671Y012081D02*
X022334Y012081D01*
X022350Y012557D02*
X021467Y012557D01*
X021626Y012715D02*
X022565Y012715D01*
X022605Y012874D02*
X021785Y012874D01*
X021251Y012240D02*
X021150Y012240D01*
X021107Y012196D02*
X021107Y012196D01*
X021251Y012081D02*
X020945Y012081D01*
X021251Y011923D02*
X020083Y011923D01*
X019961Y011764D02*
X021251Y011764D01*
X021251Y011605D02*
X019961Y011605D01*
X019961Y011447D02*
X021251Y011447D01*
X021251Y011288D02*
X019961Y011288D01*
X019961Y011130D02*
X021251Y011130D01*
X021671Y010654D02*
X022448Y010654D01*
X022322Y010496D02*
X021671Y010496D01*
X021671Y010337D02*
X022279Y010337D01*
X022294Y010179D02*
X021671Y010179D01*
X021671Y010020D02*
X022379Y010020D01*
X023723Y011130D02*
X023816Y011130D01*
X023816Y011288D02*
X023759Y011288D01*
X023735Y011447D02*
X023816Y011447D01*
X023816Y011605D02*
X023638Y011605D01*
X023816Y011764D02*
X021671Y011764D01*
X023550Y011923D02*
X023816Y011923D01*
X023816Y012081D02*
X023703Y012081D01*
X023759Y012240D02*
X023816Y012240D01*
X023816Y012398D02*
X023755Y012398D01*
X023816Y012557D02*
X023687Y012557D01*
X023816Y012715D02*
X023473Y012715D01*
X023433Y012874D02*
X023816Y012874D01*
X023816Y013032D02*
X023670Y013032D01*
X023749Y013191D02*
X023816Y013191D01*
X023816Y013349D02*
X023759Y013349D01*
X023710Y013508D02*
X023816Y013508D01*
X023816Y013667D02*
X023577Y013667D01*
X023406Y013863D02*
X023568Y013930D01*
X023692Y014054D01*
X023759Y014215D01*
X023759Y014390D01*
X023692Y014552D01*
X023568Y014676D01*
X023406Y014743D01*
X022631Y014743D01*
X022469Y014676D01*
X022346Y014552D01*
X022279Y014390D01*
X022279Y014215D01*
X022346Y014054D01*
X022469Y013930D01*
X022631Y013863D01*
X023406Y013863D01*
X023622Y013984D02*
X023816Y013984D01*
X023816Y014142D02*
X023728Y014142D01*
X023759Y014301D02*
X023816Y014301D01*
X023816Y014459D02*
X023730Y014459D01*
X023816Y014618D02*
X023626Y014618D01*
X023816Y014776D02*
X022111Y014776D01*
X022111Y014618D02*
X022411Y014618D01*
X022307Y014459D02*
X022111Y014459D01*
X022111Y014301D02*
X022279Y014301D01*
X022309Y014142D02*
X022111Y014142D01*
X022111Y013984D02*
X022416Y013984D01*
X022111Y013825D02*
X023816Y013825D01*
X023503Y014858D02*
X023570Y014892D01*
X023631Y014937D01*
X023685Y014990D01*
X023729Y015051D01*
X023763Y015119D01*
X023787Y015190D01*
X023799Y015265D01*
X023799Y015283D01*
X023039Y015283D01*
X023039Y015323D01*
X023799Y015323D01*
X023799Y015341D01*
X023787Y015415D01*
X023763Y015487D01*
X023729Y015554D01*
X023685Y015616D01*
X023631Y015669D01*
X023570Y015713D01*
X023503Y015748D01*
X023431Y015771D01*
X023356Y015783D01*
X023039Y015783D01*
X023039Y015323D01*
X022999Y015323D01*
X022999Y015783D01*
X022681Y015783D01*
X022606Y015771D01*
X022534Y015748D01*
X022467Y015713D01*
X022406Y015669D01*
X022353Y015616D01*
X022308Y015554D01*
X022274Y015487D01*
X022250Y015415D01*
X022239Y015341D01*
X022239Y015323D01*
X022998Y015323D01*
X022998Y015283D01*
X022239Y015283D01*
X022239Y015265D01*
X022250Y015190D01*
X022274Y015119D01*
X022308Y015051D01*
X022353Y014990D01*
X022406Y014937D01*
X022467Y014892D01*
X022534Y014858D01*
X022606Y014835D01*
X022681Y014823D01*
X022999Y014823D01*
X022999Y015283D01*
X023039Y015283D01*
X023039Y014823D01*
X023356Y014823D01*
X023431Y014835D01*
X023503Y014858D01*
X023629Y014935D02*
X023816Y014935D01*
X023816Y015093D02*
X023751Y015093D01*
X023797Y015252D02*
X023816Y015252D01*
X023816Y015411D02*
X023788Y015411D01*
X023816Y015569D02*
X023719Y015569D01*
X023816Y015728D02*
X023542Y015728D01*
X023039Y015728D02*
X022999Y015728D01*
X022999Y015569D02*
X023039Y015569D01*
X023039Y015411D02*
X022999Y015411D01*
X022999Y015252D02*
X023039Y015252D01*
X023039Y015093D02*
X022999Y015093D01*
X022999Y014935D02*
X023039Y014935D01*
X022408Y014935D02*
X022111Y014935D01*
X022111Y015093D02*
X022287Y015093D01*
X022241Y015252D02*
X022072Y015252D01*
X021921Y015411D02*
X022250Y015411D01*
X022319Y015569D02*
X021762Y015569D01*
X021603Y015728D02*
X022495Y015728D01*
X021531Y014935D02*
X019873Y014935D01*
X019714Y015093D02*
X021417Y015093D01*
X021531Y014776D02*
X020961Y014776D01*
X021120Y014618D02*
X021531Y014618D01*
X021531Y014459D02*
X021151Y014459D01*
X021151Y014301D02*
X021531Y014301D01*
X021531Y014142D02*
X021097Y014142D01*
X020938Y013984D02*
X021531Y013984D01*
X022111Y013667D02*
X022460Y013667D01*
X019751Y013667D02*
X019706Y013667D01*
X019746Y013508D02*
X019751Y013508D01*
X019746Y013349D02*
X019751Y013349D01*
X019751Y013191D02*
X019733Y013191D01*
X019636Y013032D02*
X019574Y013032D01*
X019477Y012874D02*
X018061Y012874D01*
X018061Y012715D02*
X019319Y012715D01*
X019160Y012557D02*
X018061Y012557D01*
X018061Y012398D02*
X019002Y012398D01*
X018971Y012240D02*
X018061Y012240D01*
X017511Y011764D02*
X016843Y011764D01*
X016917Y011605D02*
X017511Y011605D01*
X017511Y011447D02*
X016927Y011447D01*
X018061Y010496D02*
X018142Y010496D01*
X019547Y013825D02*
X019751Y013825D01*
X019412Y016679D02*
X024726Y016679D01*
X024726Y016837D02*
X019412Y016837D01*
X019412Y016996D02*
X020959Y016996D01*
X020700Y017154D02*
X019498Y017154D01*
X019542Y017313D02*
X020541Y017313D01*
X020441Y017472D02*
X019523Y017472D01*
X019429Y017630D02*
X020364Y017630D01*
X021817Y016996D02*
X023205Y016996D01*
X022968Y017154D02*
X022076Y017154D01*
X022234Y017313D02*
X022820Y017313D01*
X022717Y017472D02*
X022335Y017472D01*
X022411Y017630D02*
X022648Y017630D01*
X022605Y017789D02*
X022454Y017789D01*
X023631Y017789D02*
X023790Y017789D01*
X023790Y017630D02*
X023631Y017630D01*
X023631Y017472D02*
X023790Y017472D01*
X023790Y017313D02*
X023631Y017313D01*
X023631Y017154D02*
X023790Y017154D01*
X023790Y016996D02*
X023631Y016996D01*
X024216Y016996D02*
X024726Y016996D01*
X024726Y017154D02*
X024453Y017154D01*
X024601Y017313D02*
X024726Y017313D01*
X024726Y017472D02*
X024704Y017472D01*
X024674Y018581D02*
X024726Y018581D01*
X024726Y018740D02*
X024560Y018740D01*
X024726Y018898D02*
X024389Y018898D01*
X012821Y017472D02*
X012298Y017472D01*
X012131Y019374D02*
X011537Y019374D01*
X011636Y019533D02*
X012131Y019533D01*
X012033Y019691D02*
X011661Y019691D01*
X009422Y018264D02*
X006422Y018264D01*
X006431Y018423D02*
X009263Y018423D01*
X009105Y018581D02*
X006431Y018581D01*
X006431Y018740D02*
X008963Y018740D01*
X008931Y018898D02*
X006431Y018898D01*
X006431Y019057D02*
X008931Y019057D01*
X008931Y019216D02*
X006431Y019216D01*
X006537Y019374D02*
X006905Y019374D01*
X006848Y019431D02*
X006972Y019307D01*
X007133Y019240D01*
X007308Y019240D01*
X007470Y019307D01*
X007594Y019431D01*
X007661Y019593D01*
X007661Y020368D01*
X007594Y020529D01*
X007470Y020653D01*
X007308Y020720D01*
X007133Y020720D01*
X006972Y020653D01*
X006848Y020529D01*
X006781Y020368D01*
X006781Y019593D01*
X006848Y019431D01*
X006806Y019533D02*
X006636Y019533D01*
X006661Y019691D02*
X006781Y019691D01*
X006781Y019850D02*
X006661Y019850D01*
X006661Y020008D02*
X006781Y020008D01*
X006781Y020167D02*
X006661Y020167D01*
X006661Y020325D02*
X006781Y020325D01*
X006829Y020484D02*
X006613Y020484D01*
X006481Y020642D02*
X006961Y020642D01*
X007481Y020642D02*
X007961Y020642D01*
X007972Y020653D02*
X007848Y020529D01*
X007781Y020368D01*
X007781Y019593D01*
X007848Y019431D01*
X007972Y019307D01*
X008133Y019240D01*
X008308Y019240D01*
X008470Y019307D01*
X008594Y019431D01*
X008661Y019593D01*
X008661Y020368D01*
X008594Y020529D01*
X008470Y020653D01*
X008308Y020720D01*
X008133Y020720D01*
X007972Y020653D01*
X007829Y020484D02*
X007613Y020484D01*
X007661Y020325D02*
X007781Y020325D01*
X007781Y020167D02*
X007661Y020167D01*
X007661Y020008D02*
X007781Y020008D01*
X007781Y019850D02*
X007661Y019850D01*
X007661Y019691D02*
X007781Y019691D01*
X007806Y019533D02*
X007636Y019533D01*
X007537Y019374D02*
X007905Y019374D01*
X008537Y019374D02*
X008905Y019374D01*
X008806Y019533D02*
X008636Y019533D01*
X008661Y019691D02*
X008781Y019691D01*
X008781Y019850D02*
X008661Y019850D01*
X008661Y020008D02*
X008781Y020008D01*
X008781Y020167D02*
X008661Y020167D01*
X008661Y020325D02*
X008781Y020325D01*
X008829Y020484D02*
X008613Y020484D01*
X008481Y020642D02*
X008961Y020642D01*
X007725Y017630D02*
X006903Y017630D01*
X007061Y017472D02*
X007883Y017472D01*
X006637Y017472D02*
X006636Y017472D01*
X006636Y017630D02*
X006637Y017630D01*
X006636Y017313D02*
X006637Y017313D01*
X007765Y015728D02*
X011341Y015728D01*
X011341Y015569D02*
X007923Y015569D01*
X008082Y015411D02*
X011311Y015411D01*
X011152Y015252D02*
X008240Y015252D01*
X008399Y015093D02*
X010994Y015093D01*
X010835Y014935D02*
X009130Y014935D01*
X009296Y014776D02*
X010677Y014776D01*
X010518Y014618D02*
X009349Y014618D01*
X009340Y014459D02*
X010360Y014459D01*
X010201Y014301D02*
X009258Y014301D01*
X008941Y013984D02*
X008924Y013984D01*
X008924Y013825D02*
X008941Y013825D01*
X008924Y013667D02*
X008941Y013667D01*
X008924Y013508D02*
X008941Y013508D01*
X008924Y013349D02*
X008941Y013349D01*
X008924Y013191D02*
X008941Y013191D01*
X009328Y012398D02*
X007173Y012398D01*
X007382Y012240D02*
X009119Y012240D01*
X009041Y012081D02*
X007460Y012081D01*
X006692Y011288D02*
X006041Y011288D01*
X006088Y011130D02*
X006534Y011130D01*
X006375Y010971D02*
X006247Y010971D01*
X005970Y010654D02*
X005401Y010654D01*
X005401Y010496D02*
X006101Y010496D01*
X006101Y010523D02*
X006101Y010523D01*
X006101Y010337D02*
X005401Y010337D01*
X005401Y010179D02*
X006101Y010179D01*
X006101Y010020D02*
X005401Y010020D01*
X005401Y009861D02*
X006101Y009861D01*
X006101Y009703D02*
X005401Y009703D01*
X005401Y009544D02*
X006101Y009544D01*
X005959Y009386D02*
X005401Y009386D01*
X005401Y009227D02*
X005801Y009227D01*
X005781Y009069D02*
X005401Y009069D01*
X005401Y008910D02*
X005714Y008910D01*
X005555Y008752D02*
X005401Y008752D01*
X005401Y008593D02*
X005461Y008593D01*
X005461Y008435D02*
X005401Y008435D01*
X005401Y008276D02*
X005461Y008276D01*
X005461Y008118D02*
X005401Y008118D01*
X005401Y007959D02*
X005461Y007959D01*
X005461Y007800D02*
X005401Y007800D01*
X005401Y007642D02*
X005461Y007642D01*
X005461Y007483D02*
X005401Y007483D01*
X005401Y007325D02*
X005461Y007325D01*
X005461Y007166D02*
X005401Y007166D01*
X005401Y007008D02*
X005461Y007008D01*
X005461Y006849D02*
X005401Y006849D01*
X005401Y006691D02*
X005461Y006691D01*
X005461Y006532D02*
X005401Y006532D01*
X005401Y006374D02*
X005461Y006374D01*
X005461Y006215D02*
X005401Y006215D01*
X005401Y006056D02*
X005461Y006056D01*
X005401Y005898D02*
X005540Y005898D01*
X005401Y005739D02*
X005698Y005739D01*
X005799Y005581D02*
X005401Y005581D01*
X005401Y005422D02*
X005795Y005422D01*
X005846Y005264D02*
X005401Y005264D01*
X005401Y005105D02*
X005979Y005105D01*
X005401Y004947D02*
X006561Y004947D01*
X006561Y005105D02*
X006530Y005105D01*
X006561Y004788D02*
X005401Y004788D01*
X005401Y004630D02*
X006503Y004630D01*
X006284Y004471D02*
X005401Y004471D01*
X005401Y004312D02*
X006251Y004312D01*
X006329Y004154D02*
X005401Y004154D01*
X005401Y003995D02*
X007034Y003995D01*
X006876Y003837D02*
X005401Y003837D01*
X005401Y003678D02*
X006717Y003678D01*
X006558Y003520D02*
X005401Y003520D01*
X005401Y003361D02*
X006400Y003361D01*
X006241Y003203D02*
X005401Y003203D01*
X005401Y003044D02*
X006083Y003044D01*
X006076Y002410D02*
X006131Y002410D01*
X006131Y002251D02*
X006076Y002251D01*
X006076Y002093D02*
X006131Y002093D01*
X006131Y001934D02*
X006076Y001934D01*
X006019Y001776D02*
X006187Y001776D01*
X006345Y001617D02*
X005861Y001617D01*
X005410Y001617D02*
X005401Y001617D01*
X006796Y001617D02*
X007345Y001617D01*
X007187Y001776D02*
X006954Y001776D01*
X007011Y001934D02*
X007131Y001934D01*
X007131Y002093D02*
X007011Y002093D01*
X007011Y002251D02*
X007131Y002251D01*
X007131Y002410D02*
X007011Y002410D01*
X008011Y002410D02*
X008131Y002410D01*
X008131Y002251D02*
X008011Y002251D01*
X008011Y002093D02*
X008131Y002093D01*
X008131Y001934D02*
X008011Y001934D01*
X007954Y001776D02*
X008187Y001776D01*
X008345Y001617D02*
X007796Y001617D01*
X008796Y001617D02*
X009345Y001617D01*
X009187Y001776D02*
X008954Y001776D01*
X009011Y001934D02*
X009131Y001934D01*
X009131Y002093D02*
X009011Y002093D01*
X009011Y002251D02*
X009131Y002251D01*
X009131Y002410D02*
X009011Y002410D01*
X007193Y004154D02*
X006692Y004154D01*
X006780Y004312D02*
X007351Y004312D01*
X007510Y004471D02*
X006939Y004471D01*
X006981Y004630D02*
X007668Y004630D01*
X007711Y004788D02*
X006981Y004788D01*
X006981Y004947D02*
X007711Y004947D01*
X007711Y005105D02*
X007587Y005105D01*
X007706Y005264D02*
X007711Y005264D01*
X007263Y005264D02*
X007246Y005264D01*
X007246Y005422D02*
X007263Y005422D01*
X007246Y005581D02*
X007263Y005581D01*
X007246Y005739D02*
X007263Y005739D01*
X007246Y005898D02*
X007263Y005898D01*
X007434Y006056D02*
X007661Y006056D01*
X007640Y006215D02*
X007748Y006215D01*
X007709Y006374D02*
X007961Y006374D01*
X008035Y006532D02*
X007715Y006532D01*
X007665Y006691D02*
X008261Y006691D01*
X008362Y006849D02*
X007536Y006849D01*
X007592Y007166D02*
X008637Y007166D01*
X008517Y007008D02*
X006981Y007008D01*
X006862Y007226D02*
X006710Y007378D01*
X006715Y007388D01*
X006715Y007571D01*
X006645Y007740D01*
X006515Y007870D01*
X006346Y007940D01*
X006163Y007940D01*
X005994Y007870D01*
X005881Y007756D01*
X005881Y008483D01*
X005998Y008601D01*
X006056Y008543D01*
X006446Y008543D01*
X006721Y008818D01*
X006721Y009207D01*
X006521Y009407D01*
X006521Y009904D01*
X006538Y009861D01*
X006682Y009718D01*
X006869Y009640D01*
X007072Y009640D01*
X007260Y009718D01*
X007403Y009861D01*
X007481Y010049D01*
X007481Y010252D01*
X007403Y010439D01*
X007260Y010582D01*
X007072Y010660D01*
X006869Y010660D01*
X006682Y010582D01*
X006538Y010439D01*
X006521Y010396D01*
X006521Y010523D01*
X006898Y010900D01*
X008624Y010900D01*
X008798Y010900D01*
X009350Y011453D01*
X009429Y011420D01*
X009632Y011420D01*
X009820Y011498D01*
X009961Y011639D01*
X009961Y010494D01*
X009950Y010508D01*
X009889Y010570D01*
X009819Y010621D01*
X009742Y010660D01*
X009660Y010687D01*
X009574Y010700D01*
X009551Y010700D01*
X009551Y010170D01*
X009511Y010170D01*
X009511Y010130D01*
X009551Y010130D01*
X009551Y009600D01*
X009574Y009600D01*
X009660Y009614D01*
X009742Y009640D01*
X009819Y009680D01*
X009889Y009731D01*
X009950Y009792D01*
X009961Y009807D01*
X009961Y009387D01*
X009884Y009310D01*
X009053Y009310D01*
X008946Y009266D01*
X008865Y009184D01*
X007533Y007852D01*
X007515Y007870D01*
X007346Y007940D01*
X007163Y007940D01*
X006994Y007870D01*
X006865Y007740D01*
X006795Y007571D01*
X006795Y007388D01*
X006862Y007226D01*
X006821Y007325D02*
X006763Y007325D01*
X006795Y007483D02*
X006715Y007483D01*
X006686Y007642D02*
X006824Y007642D01*
X006925Y007800D02*
X006585Y007800D01*
X005925Y007800D02*
X005881Y007800D01*
X005881Y007959D02*
X007640Y007959D01*
X007798Y008118D02*
X005881Y008118D01*
X005881Y008276D02*
X007957Y008276D01*
X008115Y008435D02*
X005881Y008435D01*
X005991Y008593D02*
X006006Y008593D01*
X006496Y008593D02*
X008274Y008593D01*
X008432Y008752D02*
X006655Y008752D01*
X006721Y008910D02*
X008591Y008910D01*
X008749Y009069D02*
X006721Y009069D01*
X006701Y009227D02*
X008908Y009227D01*
X009243Y009680D02*
X009320Y009640D01*
X009402Y009614D01*
X009487Y009600D01*
X009511Y009600D01*
X009511Y010130D01*
X008981Y010130D01*
X008981Y010107D01*
X008994Y010021D01*
X009021Y009939D01*
X009060Y009862D01*
X009111Y009792D01*
X009172Y009731D01*
X009243Y009680D01*
X009211Y009703D02*
X007224Y009703D01*
X007403Y009861D02*
X009061Y009861D01*
X008995Y010020D02*
X007469Y010020D01*
X007481Y010179D02*
X008981Y010179D01*
X008981Y010170D02*
X009511Y010170D01*
X009511Y010700D01*
X009487Y010700D01*
X009402Y010687D01*
X009320Y010660D01*
X009243Y010621D01*
X009172Y010570D01*
X009111Y010508D01*
X009060Y010438D01*
X009021Y010361D01*
X008994Y010279D01*
X008981Y010193D01*
X008981Y010170D01*
X009013Y010337D02*
X007445Y010337D01*
X007346Y010496D02*
X009102Y010496D01*
X009309Y010654D02*
X007087Y010654D01*
X006855Y010654D02*
X006652Y010654D01*
X006595Y010496D02*
X006521Y010496D01*
X006810Y010813D02*
X009961Y010813D01*
X009961Y010971D02*
X008869Y010971D01*
X009027Y011130D02*
X009961Y011130D01*
X009961Y011288D02*
X009186Y011288D01*
X009345Y011447D02*
X009365Y011447D01*
X009697Y011447D02*
X009961Y011447D01*
X009961Y011605D02*
X009927Y011605D01*
X010541Y011605D02*
X012821Y011605D01*
X012821Y011447D02*
X010541Y011447D01*
X010541Y011288D02*
X012821Y011288D01*
X012821Y011130D02*
X010541Y011130D01*
X010541Y010971D02*
X012821Y010971D01*
X012821Y010813D02*
X010541Y010813D01*
X010541Y010654D02*
X012821Y010654D01*
X012821Y010496D02*
X010541Y010496D01*
X010541Y010337D02*
X012821Y010337D01*
X012821Y010179D02*
X010541Y010179D01*
X010541Y010020D02*
X012821Y010020D01*
X012821Y009861D02*
X010541Y009861D01*
X010541Y009703D02*
X012821Y009703D01*
X012821Y009544D02*
X010541Y009544D01*
X010542Y009386D02*
X012821Y009386D01*
X012821Y009227D02*
X010701Y009227D01*
X009959Y009386D02*
X006542Y009386D01*
X006521Y009544D02*
X009961Y009544D01*
X009961Y009703D02*
X009851Y009703D01*
X009551Y009703D02*
X009511Y009703D01*
X009511Y009861D02*
X009551Y009861D01*
X009551Y010020D02*
X009511Y010020D01*
X009511Y010179D02*
X009551Y010179D01*
X009551Y010337D02*
X009511Y010337D01*
X009511Y010496D02*
X009551Y010496D01*
X009551Y010654D02*
X009511Y010654D01*
X009753Y010654D02*
X009961Y010654D01*
X009960Y010496D02*
X009961Y010496D01*
X010541Y011764D02*
X012821Y011764D01*
X012821Y011923D02*
X010541Y011923D01*
X010541Y012081D02*
X012821Y012081D01*
X012821Y012240D02*
X010541Y012240D01*
X010541Y012398D02*
X012821Y012398D01*
X012821Y012557D02*
X010541Y012557D01*
X010541Y012715D02*
X012821Y012715D01*
X012821Y012874D02*
X010541Y012874D01*
X010541Y013032D02*
X012821Y013032D01*
X009961Y012398D02*
X009733Y012398D01*
X009942Y012240D02*
X009961Y012240D01*
X008735Y014935D02*
X008558Y014935D01*
X005621Y014142D02*
X005401Y014142D01*
X005401Y013984D02*
X005621Y013984D01*
X005621Y013825D02*
X005401Y013825D01*
X005401Y013667D02*
X005621Y013667D01*
X005621Y013508D02*
X005401Y013508D01*
X005401Y013349D02*
X005621Y013349D01*
X005621Y013191D02*
X005401Y013191D01*
X005401Y013032D02*
X005621Y013032D01*
X005621Y012874D02*
X005401Y012874D01*
X005401Y012715D02*
X005621Y012715D01*
X005621Y012557D02*
X005401Y012557D01*
X005401Y012398D02*
X005621Y012398D01*
X005621Y012240D02*
X005401Y012240D01*
X005401Y012081D02*
X005621Y012081D01*
X005621Y011923D02*
X005401Y011923D01*
X005401Y011764D02*
X005621Y011764D01*
X005621Y011605D02*
X005401Y011605D01*
X005401Y011447D02*
X005621Y011447D01*
X005621Y011288D02*
X005401Y011288D01*
X005401Y011130D02*
X005621Y011130D01*
X005653Y010971D02*
X005401Y010971D01*
X005401Y010813D02*
X005811Y010813D01*
X006521Y009861D02*
X006538Y009861D01*
X006521Y009703D02*
X006718Y009703D01*
X008460Y007959D02*
X009483Y007959D01*
X009324Y007800D02*
X008301Y007800D01*
X008143Y007642D02*
X009166Y007642D01*
X008856Y007483D02*
X007984Y007483D01*
X007826Y007325D02*
X008761Y007325D01*
X007075Y006056D02*
X006981Y006056D01*
X007530Y005898D02*
X007690Y005898D01*
X007684Y005739D02*
X007711Y005739D01*
X007263Y005105D02*
X007246Y005105D01*
X018021Y005105D02*
X018021Y005105D01*
X018021Y004947D02*
X018021Y004947D01*
X018021Y005264D02*
X018021Y005264D01*
X018021Y005422D02*
X018021Y005422D01*
X018021Y005581D02*
X018021Y005581D01*
X024190Y008593D02*
X024726Y008593D01*
X024726Y008435D02*
X024369Y008435D01*
X024421Y008276D02*
X024726Y008276D01*
X024726Y008118D02*
X024421Y008118D01*
X024421Y007959D02*
X024726Y007959D01*
X024726Y007800D02*
X024421Y007800D01*
X024421Y007642D02*
X024726Y007642D01*
X024726Y007483D02*
X024360Y007483D01*
D28*
X017021Y007970D02*
X017021Y012488D01*
X016462Y012488D01*
D29*
X017241Y012870D03*
X017281Y011990D03*
X017281Y011220D03*
X017281Y010440D03*
X017281Y009560D03*
X015471Y009400D03*
X015471Y010450D03*
X015471Y011250D03*
X015471Y012050D03*
X015481Y012830D03*
X013741Y012800D03*
X013741Y011980D03*
X013741Y011120D03*
X013741Y010300D03*
X013761Y009550D03*
X012574Y009202D03*
X011799Y009165D03*
X011034Y009201D03*
X008651Y007780D03*
X009021Y007280D03*
X008771Y006940D03*
X008521Y006640D03*
X008221Y006350D03*
X007921Y006020D03*
X006091Y004780D03*
X006511Y004340D03*
X006101Y003450D03*
X009321Y003050D03*
X009981Y003300D03*
X010221Y003550D03*
X011221Y003550D03*
X012151Y003390D03*
X010151Y005080D03*
X010581Y005700D03*
X013521Y007640D03*
X014511Y007640D03*
X015521Y007650D03*
X016501Y007630D03*
X017531Y007650D03*
X018541Y007820D03*
X019021Y007220D03*
X020031Y006950D03*
X021011Y006900D03*
X022021Y006900D03*
X023021Y006880D03*
X023611Y007030D03*
X023631Y005990D03*
X023561Y004410D03*
X022521Y004400D03*
X021511Y004390D03*
X020541Y004430D03*
X016531Y005330D03*
X015511Y005670D03*
X014001Y005730D03*
X019181Y009870D03*
X021021Y009130D03*
X018591Y011440D03*
X018591Y012560D03*
X020671Y013350D03*
X021371Y013760D03*
X020671Y015080D03*
X021831Y015880D03*
X022481Y016920D03*
X023801Y016260D03*
X024451Y014310D03*
X024451Y011310D03*
X017951Y015350D03*
X017511Y014300D03*
X017541Y017420D03*
X015901Y019710D03*
X013001Y019590D03*
X013001Y020370D03*
X006701Y014780D03*
X006681Y013540D03*
X008231Y010740D03*
X011351Y011770D03*
X011991Y012540D03*
X021041Y020350D03*
D30*
X018331Y018801D02*
X018331Y017770D01*
X018758Y017343D01*
X019122Y017343D01*
X019122Y015891D01*
X019111Y015880D01*
X019092Y015862D01*
X016775Y015862D01*
X019111Y015880D02*
X019111Y015840D01*
X019441Y015510D01*
X021411Y015510D01*
X021821Y015100D01*
X021821Y013320D01*
X021838Y013303D01*
X023019Y013303D01*
X021821Y013320D02*
X020861Y012360D01*
X020111Y012360D01*
X019671Y011920D01*
X019671Y009650D01*
X019193Y009172D01*
X018531Y009172D01*
X018531Y008481D01*
X018021Y007970D01*
X018021Y007360D01*
X016021Y005360D01*
X016021Y004970D01*
X010251Y009013D02*
X010243Y009020D01*
X009111Y009020D01*
X007571Y007480D01*
X007255Y007480D01*
X010251Y009013D02*
X010251Y013940D01*
X011631Y015320D01*
X011631Y016436D01*
X011645Y016451D01*
X009221Y018875D01*
X009221Y019980D01*
X012215Y017020D02*
X013601Y017020D01*
X013971Y016650D01*
X013962Y016641D01*
X013962Y016146D01*
X012215Y017020D02*
X011645Y016451D01*
X008932Y014565D02*
X008517Y014565D01*
X006637Y016446D01*
X017177Y019955D02*
X018331Y018801D01*
D31*
X017541Y017420D02*
X013501Y017420D01*
X012341Y018580D01*
X012341Y019680D01*
X012041Y019980D01*
X011221Y019980D01*
X006221Y019980D02*
X006221Y018360D01*
X005831Y017970D01*
X005831Y011090D01*
X006311Y010610D01*
X006811Y011110D01*
X008711Y011110D01*
X009531Y011930D01*
X006311Y010610D02*
X006311Y009070D01*
X006308Y009070D01*
X006251Y009013D01*
X006113Y009013D01*
X005671Y008570D01*
X005671Y006064D01*
X006255Y005480D01*
X006771Y004600D02*
X006771Y007020D01*
X006311Y007480D01*
X006255Y007480D01*
X007921Y006020D02*
X007921Y004585D01*
X005636Y002300D01*
X006571Y002300D02*
X008221Y003950D01*
X008221Y006350D01*
X008521Y006640D02*
X008521Y003250D01*
X007571Y002300D01*
X008571Y002300D02*
X008771Y002500D01*
X008771Y006940D01*
X009021Y007280D02*
X009021Y002850D01*
X009571Y002300D01*
X009611Y002340D01*
X009321Y003050D02*
X009321Y003130D01*
X009291Y003160D01*
X009291Y007470D01*
X009791Y007970D01*
X011021Y007970D01*
X011331Y007270D02*
X009661Y007270D01*
X009501Y007110D01*
X009501Y003500D01*
X009701Y003300D01*
X009981Y003300D01*
X010011Y003550D02*
X010221Y003550D01*
X010011Y003550D02*
X009721Y003840D01*
X009721Y006840D01*
X009861Y006980D01*
X011951Y006980D01*
X012941Y007970D01*
X013021Y007970D01*
X014021Y007970D02*
X014021Y005750D01*
X014001Y005730D01*
X014021Y004970D02*
X015081Y003910D01*
X016411Y003910D01*
X016771Y003550D01*
X016771Y003440D01*
X017571Y002640D01*
X017571Y002300D01*
X018571Y002300D02*
X018571Y002840D01*
X018516Y002895D01*
X019531Y003910D01*
X019531Y008820D01*
X020681Y009971D01*
X020681Y010392D01*
X021461Y009770D02*
X021461Y012300D01*
X023016Y012300D01*
X023019Y012303D01*
X023019Y010303D02*
X023026Y010296D01*
X023026Y009245D01*
X024026Y009245D02*
X024026Y016035D01*
X023801Y016260D01*
X019961Y014550D02*
X019481Y015030D01*
X018271Y015030D01*
X017951Y015350D01*
X019961Y014550D02*
X019961Y013060D01*
X019181Y012280D01*
X019181Y009870D01*
X021461Y009770D02*
X023021Y008210D01*
X023021Y007970D01*
X023021Y006880D01*
X022021Y006900D02*
X022021Y007970D01*
X021021Y007970D02*
X021011Y007960D01*
X021011Y006900D01*
X020031Y006950D02*
X020021Y006910D01*
X020021Y007970D01*
X019021Y007970D02*
X019021Y007220D01*
X018541Y007210D02*
X018541Y007820D01*
X018541Y007210D02*
X017021Y005690D01*
X017021Y004970D01*
X017503Y004488D01*
X017503Y004066D01*
X016971Y003730D02*
X016971Y003610D01*
X017301Y003280D01*
X018131Y003280D01*
X018516Y002895D01*
X016971Y003730D02*
X016521Y004180D01*
X015811Y004180D01*
X015021Y004970D01*
X014371Y003620D02*
X016161Y003620D01*
X016571Y003210D01*
X016571Y002300D01*
X015571Y002300D02*
X015571Y003180D01*
X015381Y003370D01*
X013621Y003370D01*
X012021Y004970D01*
X013021Y004970D02*
X014371Y003620D01*
X014571Y003110D02*
X014571Y002300D01*
X014571Y003110D02*
X012881Y003110D01*
X011021Y004970D01*
X010581Y005700D02*
X010581Y002310D01*
X010571Y002300D01*
X011571Y002300D02*
X011581Y002310D01*
X011581Y003190D01*
X011221Y003550D01*
X012151Y003390D02*
X012151Y002720D01*
X012571Y002300D01*
X006771Y004600D02*
X006511Y004340D01*
X011331Y007270D02*
X012021Y007960D01*
X012021Y007970D01*
M02*
