%
M48
M72
T01C0.0120
T02C0.0276
T03C0.0320
T04C0.0354
T05C0.0374
T06C0.0400
T07C0.0440
T08C0.1181
%
T01
X6101Y3450
X6511Y4340
X6091Y4780
X7921Y6020
X8221Y6350
X8521Y6640
X8771Y6940
X9021Y7280
X8651Y7780
X11034Y9201
X11799Y9165
X12574Y9202
X13761Y9550
X13741Y10300
X13741Y11120
X13741Y11980
X13741Y12800
X11991Y12540
X11351Y11770
X8231Y10740
X6681Y13540
X6701Y14780
X13001Y19590
X13001Y20370
X15901Y19710
X17541Y17420
X17951Y15350
X17511Y14300
X17241Y12870
X17281Y11990
X17281Y11220
X17281Y10440
X17281Y9560
X15471Y9400
X15471Y10450
X15471Y11250
X15471Y12050
X15481Y12830
X18591Y12560
X18591Y11440
X19181Y9870
X21021Y9130
X19021Y7220
X18541Y7820
X17531Y7650
X16501Y7630
X15521Y7650
X14511Y7640
X13521Y7640
X14001Y5730
X15511Y5670
X16531Y5330
X20031Y6950
X21011Y6900
X22021Y6900
X23021Y6880
X23611Y7030
X23631Y5990
X23561Y4410
X22521Y4400
X21511Y4390
X20541Y4430
X12151Y3390
X11221Y3550
X10221Y3550
X9981Y3300
X9321Y3050
X10151Y5080
X10581Y5700
X20671Y13350
X21371Y13760
X20671Y15080
X21831Y15880
X22481Y16920
X23801Y16260
X24451Y14310
X24451Y11310
X21041Y20350
T02
X19626Y19698
X18626Y19698
X16462Y12488
X16462Y11488
X14537Y11473
X14537Y12473
X18531Y10172
X18531Y9172
X23026Y9245
X24026Y9245
X18503Y4066
X17503Y4066
T03
X17021Y4970
X16021Y4970
X15021Y4970
X14021Y4970
X13021Y4970
X12021Y4970
X11021Y4970
X11021Y7970
X12021Y7970
X13021Y7970
X14021Y7970
X15021Y7970
X16021Y7970
X17021Y7970
X18021Y7970
X19021Y7970
X20021Y7970
X21021Y7970
X22021Y7970
X23021Y7970
X24021Y7970
X20681Y10392
X19236Y13415
X19236Y14415
X20681Y14392
X19122Y17343
X19122Y18143
X16775Y16662
X16775Y15862
X14962Y16146
X13962Y16146
X12962Y16146
X12091Y17830
X8091Y17830
X6637Y17246
X6637Y16446
X14548Y9910
X16448Y9910
X10251Y9013
X6251Y9013
X18021Y4970
X19021Y4970
X20021Y4970
X21021Y4970
X22021Y4970
X23021Y4970
X24021Y4970
T04
X8932Y13581
X8932Y14565
X7255Y7480
X7255Y6480
X6255Y6480
X6255Y7480
X6255Y5480
X7255Y5480
T05
X17177Y18144
X17177Y19049
X17177Y19955
T06
X5636Y2300
X6571Y2300
X7571Y2300
X8571Y2300
X9571Y2300
X10571Y2300
X11571Y2300
X12571Y2300
X13571Y2300
X14571Y2300
X15571Y2300
X16571Y2300
X17571Y2300
X18571Y2300
X19571Y2300
X20571Y2300
X21571Y2300
X22571Y2300
X23571Y2300
X24506Y2300
X23019Y10303
X23019Y11303
X23019Y12303
X23019Y13303
X23019Y14303
X23019Y15303
X11221Y19980
X10221Y19980
X9221Y19980
X8221Y19980
X7221Y19980
X6221Y19980
X6971Y11930
X9531Y11930
X9531Y10150
X6971Y10150
T07
X8496Y16451
X11645Y16451
T08
X21388Y18001
X22569Y19851
X23711Y18001
M30
